rounded-thin-italic.ufo
<glyph name="exclam" format="2">
  <advance height="1920" width="540"/>
  <unicode hex="0021"/>
  <outline>
    <contour>
      <point x="151.0" y="-3.0" type="curve" smooth="yes"/>
      <point x="147.0" y="-3.0" type="line" smooth="yes"/>
      <point x="134.0" y="-3.0"/>
      <point x="128.0" y="6.0"/>
      <point x="131.0" y="18.0" type="curve" smooth="yes"/>
      <point x="171.0" y="192.0" type="line" smooth="yes"/>
      <point x="174.0" y="204.0"/>
      <point x="184.0" y="213.0"/>
      <point x="197.0" y="213.0" type="curve" smooth="yes"/>
      <point x="201.0" y="213.0" type="line" smooth="yes"/>
      <point x="214.0" y="213.0"/>
      <point x="220.0" y="204.0"/>
      <point x="217.0" y="192.0" type="curve" smooth="yes"/>
      <point x="177.0" y="18.0" type="line" smooth="yes"/>
      <point x="174.0" y="6.0"/>
      <point x="164.0" y="-3.0"/>
    </contour>
    <contour>
      <point x="356.0" y="957.0" type="curve" smooth="yes"/>
      <point x="466.0" y="1434.0" type="line" smooth="yes"/>
      <point x="469.0" y="1447.0"/>
      <point x="475.0" y="1453.0"/>
      <point x="484.0" y="1453.0" type="curve" smooth="yes"/>
      <point x="486.0" y="1453.0" type="line" smooth="yes"/>
      <point x="495.0" y="1453.0"/>
      <point x="499.0" y="1447.0"/>
      <point x="496.0" y="1434.0" type="curve" smooth="yes"/>
      <point x="386.0" y="957.0" type="line" smooth="yes"/>
      <point x="383.0" y="946.0"/>
      <point x="361.0" y="855.0"/>
      <point x="358.0" y="844.0" type="curve" smooth="yes"/>
      <point x="264.0" y="444.0" type="line" smooth="yes"/>
      <point x="261.0" y="433.0"/>
      <point x="258.0" y="428.0"/>
      <point x="250.0" y="428.0" type="curve" smooth="yes"/>
      <point x="248.0" y="428.0" type="line" smooth="yes"/>
      <point x="240.0" y="428.0"/>
      <point x="239.0" y="433.0"/>
      <point x="242.0" y="444.0" type="curve" smooth="yes"/>
      <point x="332.0" y="844.0" type="line" smooth="yes"/>
      <point x="335.0" y="855.0"/>
      <point x="353.0" y="946.0"/>
    </contour>
  </outline>
</glyph>
<glyph name="numbersign" format="2">
  <advance height="1920" width="1300"/>
  <unicode hex="0023"/>
  <outline>
    <contour>
      <point x="67.0" y="460.0" type="curve" smooth="yes"/>
      <point x="1119.0" y="460.0" type="line" smooth="yes"/>
      <point x="1131.0" y="460.0"/>
      <point x="1136.0" y="456.0"/>
      <point x="1136.0" y="446.0" type="curve" smooth="yes"/>
      <point x="1136.0" y="444.0" type="line" smooth="yes"/>
      <point x="1136.0" y="434.0"/>
      <point x="1131.0" y="430.0"/>
      <point x="1119.0" y="430.0" type="curve" smooth="yes"/>
      <point x="67.0" y="430.0" type="line" smooth="yes"/>
      <point x="55.0" y="430.0"/>
      <point x="50.0" y="434.0"/>
      <point x="50.0" y="444.0" type="curve" smooth="yes"/>
      <point x="50.0" y="446.0" type="line" smooth="yes"/>
      <point x="50.0" y="456.0"/>
      <point x="55.0" y="460.0"/>
    </contour>
    <contour>
      <point x="283.0" y="1050.0" type="curve" smooth="yes"/>
      <point x="1335.0" y="1050.0" type="line" smooth="yes"/>
      <point x="1347.0" y="1050.0"/>
      <point x="1352.0" y="1046.0"/>
      <point x="1352.0" y="1036.0" type="curve" smooth="yes"/>
      <point x="1352.0" y="1034.0" type="line" smooth="yes"/>
      <point x="1352.0" y="1024.0"/>
      <point x="1347.0" y="1020.0"/>
      <point x="1335.0" y="1020.0" type="curve" smooth="yes"/>
      <point x="283.0" y="1020.0" type="line" smooth="yes"/>
      <point x="271.0" y="1020.0"/>
      <point x="266.0" y="1024.0"/>
      <point x="266.0" y="1034.0" type="curve" smooth="yes"/>
      <point x="266.0" y="1036.0" type="line" smooth="yes"/>
      <point x="266.0" y="1046.0"/>
      <point x="271.0" y="1050.0"/>
    </contour>
    <contour>
      <point x="1197.0" y="1403.0" type="curve" smooth="yes"/>
      <point x="1198.0" y="1403.0" type="line" smooth="yes"/>
      <point x="1212.0" y="1403.0"/>
      <point x="1212.0" y="1396.0"/>
      <point x="1205.0" y="1382.0" type="curve" smooth="yes"/>
      <point x="567.0" y="16.0" type="line" smooth="yes"/>
      <point x="561.0" y="3.0"/>
      <point x="558.0" y="-3.0"/>
      <point x="544.0" y="-3.0" type="curve" smooth="yes"/>
      <point x="543.0" y="-3.0" type="line" smooth="yes"/>
      <point x="529.0" y="-3.0"/>
      <point x="532.0" y="5.0"/>
      <point x="538.0" y="18.0" type="curve" smooth="yes"/>
      <point x="1177.0" y="1384.0" type="line" smooth="yes"/>
      <point x="1183.0" y="1396.0"/>
      <point x="1183.0" y="1403.0"/>
    </contour>
    <contour>
      <point x="817.0" y="1403.0" type="curve" smooth="yes"/>
      <point x="818.0" y="1403.0" type="line" smooth="yes"/>
      <point x="829.0" y="1403.0"/>
      <point x="832.0" y="1396.0"/>
      <point x="825.0" y="1382.0" type="curve" smooth="yes"/>
      <point x="187.0" y="16.0" type="line" smooth="yes"/>
      <point x="181.0" y="3.0"/>
      <point x="175.0" y="-3.0"/>
      <point x="164.0" y="-3.0" type="curve" smooth="yes"/>
      <point x="163.0" y="-3.0" type="line" smooth="yes"/>
      <point x="153.0" y="-3.0"/>
      <point x="152.0" y="5.0"/>
      <point x="158.0" y="18.0" type="curve" smooth="yes"/>
      <point x="797.0" y="1384.0" type="line" smooth="yes"/>
      <point x="803.0" y="1396.0"/>
      <point x="806.0" y="1403.0"/>
    </contour>
  </outline>
</glyph>
<glyph name="dollar" format="2">
  <advance height="1920" width="1110"/>
  <unicode hex="0024"/>
  <outline>
    <contour>
      <point x="145.0" y="511.0" type="curve" smooth="yes"/>
      <point x="147.0" y="511.0" type="line" smooth="yes"/>
      <point x="154.0" y="511.0"/>
      <point x="162.0" y="506.0"/>
      <point x="159.0" y="493.0" type="curve" smooth="yes"/>
      <point x="144.0" y="427.0" type="line" smooth="yes"/>
      <point x="91.0" y="198.0"/>
      <point x="158.0" y="-5.0"/>
      <point x="439.0" y="-5.0" type="curve" smooth="yes"/>
      <point x="708.0" y="-5.0"/>
      <point x="851.0" y="165.0"/>
      <point x="893.0" y="345.0" type="curve" smooth="yes"/>
      <point x="927.0" y="492.0"/>
      <point x="864.0" y="615.0"/>
      <point x="576.0" y="684.0" type="curve" smooth="yes"/>
      <point x="321.0" y="746.0"/>
      <point x="254.0" y="885.0"/>
      <point x="295.0" y="1063.0" type="curve" smooth="yes"/>
      <point x="348.0" y="1293.0"/>
      <point x="514.0" y="1435.0"/>
      <point x="751.0" y="1435.0" type="curve" smooth="yes"/>
      <point x="1025.0" y="1435.0"/>
      <point x="1090.0" y="1256.0"/>
      <point x="1040.0" y="1041.0" type="curve" smooth="yes"/>
      <point x="1026.0" y="977.0" type="line" smooth="yes"/>
      <point x="1023.0" y="965.0"/>
      <point x="1014.0" y="960.0"/>
      <point x="1005.0" y="960.0" type="curve" smooth="yes"/>
      <point x="1004.0" y="960.0" type="line" smooth="yes"/>
      <point x="995.0" y="960.0"/>
      <point x="987.0" y="964.0"/>
      <point x="990.0" y="976.0" type="curve" smooth="yes"/>
      <point x="1003.0" y="1031.0" type="line" smooth="yes"/>
      <point x="1050.0" y="1236.0"/>
      <point x="989.0" y="1405.0"/>
      <point x="744.0" y="1405.0" type="curve" smooth="yes"/>
      <point x="537.0" y="1405.0"/>
      <point x="384.0" y="1283.0"/>
      <point x="333.0" y="1063.0" type="curve" smooth="yes"/>
      <point x="296.0" y="902.0"/>
      <point x="349.0" y="774.0"/>
      <point x="593.0" y="715.0" type="curve" smooth="yes"/>
      <point x="876.0" y="647.0"/>
      <point x="969.0" y="515.0"/>
      <point x="930.0" y="348.0" type="curve" smooth="yes"/>
      <point x="885.0" y="152.0"/>
      <point x="742.0" y="-35.0"/>
      <point x="432.0" y="-35.0" type="curve" smooth="yes"/>
      <point x="124.0" y="-35.0"/>
      <point x="54.0" y="183.0"/>
      <point x="108.0" y="418.0" type="curve" smooth="yes"/>
      <point x="125.0" y="492.0" type="line" smooth="yes"/>
      <point x="128.0" y="505.0"/>
      <point x="138.0" y="511.0"/>
    </contour>
    <contour>
      <point x="796.0" y="1590.0" type="curve" smooth="yes"/>
      <point x="798.0" y="1590.0" type="line" smooth="yes"/>
      <point x="806.0" y="1590.0"/>
      <point x="811.0" y="1586.0"/>
      <point x="809.0" y="1576.0" type="curve" smooth="yes"/>
      <point x="404.0" y="-176.0" type="line" smooth="yes"/>
      <point x="402.0" y="-186.0"/>
      <point x="395.0" y="-190.0"/>
      <point x="387.0" y="-190.0" type="curve" smooth="yes"/>
      <point x="385.0" y="-190.0" type="line" smooth="yes"/>
      <point x="377.0" y="-190.0"/>
      <point x="372.0" y="-186.0"/>
      <point x="374.0" y="-176.0" type="curve" smooth="yes"/>
      <point x="779.0" y="1576.0" type="line" smooth="yes"/>
      <point x="781.0" y="1586.0"/>
      <point x="788.0" y="1590.0"/>
    </contour>
  </outline>
</glyph>
<glyph name="percent" format="2">
  <advance height="2048" width="1755"/>
  <unicode hex="0025"/>
  <outline>
    <contour>
      <point x="230.0" y="1083.0" type="curve" smooth="yes"/>
      <point x="238.0" y="1118.0" type="line" smooth="yes"/>
      <point x="282.0" y="1308.0"/>
      <point x="469.0" y="1435.0"/>
      <point x="646.0" y="1435.0" type="curve" smooth="yes"/>
      <point x="823.0" y="1435.0"/>
      <point x="962.0" y="1308.0"/>
      <point x="918.0" y="1118.0" type="curve" smooth="yes"/>
      <point x="910.0" y="1083.0" type="line" smooth="yes"/>
      <point x="866.0" y="893.0"/>
      <point x="669.0" y="765.0"/>
      <point x="492.0" y="765.0" type="curve" smooth="yes"/>
      <point x="315.0" y="765.0"/>
      <point x="186.0" y="893.0"/>
    </contour>
    <contour>
      <point x="265.0" y="1083.0" type="line" smooth="yes"/>
      <point x="226.0" y="913.0"/>
      <point x="344.0" y="805.0"/>
      <point x="501.0" y="805.0" type="curve" smooth="yes"/>
      <point x="668.0" y="805.0"/>
      <point x="836.0" y="913.0"/>
      <point x="875.0" y="1083.0" type="curve" smooth="yes"/>
      <point x="883.0" y="1118.0" type="line" smooth="yes"/>
      <point x="922.0" y="1288.0"/>
      <point x="804.0" y="1395.0"/>
      <point x="637.0" y="1395.0" type="curve" smooth="yes"/>
      <point x="480.0" y="1395.0"/>
      <point x="312.0" y="1288.0"/>
      <point x="273.0" y="1118.0" type="curve" smooth="yes"/>
    </contour>
    <contour>
      <point x="920.0" y="283.0" type="curve" smooth="yes"/>
      <point x="928.0" y="318.0" type="line" smooth="yes"/>
      <point x="972.0" y="508.0"/>
      <point x="1160.0" y="635.0"/>
      <point x="1337.0" y="635.0" type="curve" smooth="yes"/>
      <point x="1514.0" y="635.0"/>
      <point x="1652.0" y="508.0"/>
      <point x="1608.0" y="318.0" type="curve" smooth="yes"/>
      <point x="1600.0" y="283.0" type="line" smooth="yes"/>
      <point x="1556.0" y="93.0"/>
      <point x="1359.0" y="-35.0"/>
      <point x="1182.0" y="-35.0" type="curve" smooth="yes"/>
      <point x="1005.0" y="-35.0"/>
      <point x="876.0" y="93.0"/>
    </contour>
    <contour>
      <point x="955.0" y="283.0" type="line" smooth="yes"/>
      <point x="916.0" y="113.0"/>
      <point x="1034.0" y="5.0"/>
      <point x="1191.0" y="5.0" type="curve" smooth="yes"/>
      <point x="1348.0" y="5.0"/>
      <point x="1526.0" y="113.0"/>
      <point x="1565.0" y="283.0" type="curve" smooth="yes"/>
      <point x="1573.0" y="318.0" type="line" smooth="yes"/>
      <point x="1612.0" y="488.0"/>
      <point x="1484.0" y="595.0"/>
      <point x="1327.0" y="595.0" type="curve" smooth="yes"/>
      <point x="1170.0" y="595.0"/>
      <point x="1002.0" y="488.0"/>
      <point x="963.0" y="318.0" type="curve" smooth="yes"/>
    </contour>
    <contour>
      <point x="1573.0" y="1381.0" type="curve" smooth="yes"/>
      <point x="304.0" y="16.0" type="line" smooth="yes"/>
      <point x="292.0" y="3.0"/>
      <point x="285.0" y="-3.0"/>
      <point x="274.0" y="-3.0" type="curve" smooth="yes"/>
      <point x="272.0" y="-3.0" type="line" smooth="yes"/>
      <point x="260.0" y="-3.0"/>
      <point x="253.0" y="6.0"/>
      <point x="265.0" y="19.0" type="curve" smooth="yes"/>
      <point x="1535.0" y="1384.0" type="line" smooth="yes"/>
      <point x="1546.0" y="1398.0"/>
      <point x="1553.0" y="1403.0"/>
      <point x="1564.0" y="1403.0" type="curve" smooth="yes"/>
      <point x="1565.0" y="1403.0" type="line" smooth="yes"/>
      <point x="1578.0" y="1403.0"/>
      <point x="1584.0" y="1395.0"/>
    </contour>
  </outline>
</glyph>
<glyph name="ampersand" format="2">
  <advance height="1920" width="1280"/>
  <unicode hex="0026"/>
  <outline>
    <contour>
      <point x="1003.0" y="16.0" type="curve" smooth="yes"/>
      <point x="607.0" y="734.0" type="line" smooth="yes"/>
      <point x="514.0" y="903.0"/>
      <point x="457.0" y="1030.0"/>
      <point x="488.0" y="1163.0" type="curve" smooth="yes"/>
      <point x="520.0" y="1303.0"/>
      <point x="649.0" y="1435.0"/>
      <point x="856.0" y="1435.0" type="curve" smooth="yes"/>
      <point x="1043.0" y="1435.0"/>
      <point x="1160.0" y="1343.0"/>
      <point x="1121.0" y="1173.0" type="curve" smooth="yes"/>
      <point x="1079.0" y="990.0"/>
      <point x="925.0" y="868.0"/>
      <point x="696.0" y="776.0" type="curve" smooth="yes"/>
      <point x="416.0" y="664.0"/>
      <point x="126.0" y="627.0"/>
      <point x="84.0" y="443.0" type="curve" smooth="yes"/>
      <point x="63.0" y="354.0"/>
      <point x="75.0" y="294.0"/>
      <point x="107.0" y="219.0" type="curve" smooth="yes"/>
      <point x="141.0" y="139.0" type="line" smooth="yes"/>
      <point x="177.0" y="54.0"/>
      <point x="285.0" y="-5.0"/>
      <point x="410.0" y="-5.0" type="curve" smooth="yes"/>
      <point x="652.0" y="-5.0"/>
      <point x="928.0" y="245.0"/>
      <point x="1145.0" y="634.0" type="curve" smooth="yes"/>
      <point x="1152.0" y="645.0"/>
      <point x="1158.0" y="653.0"/>
      <point x="1169.0" y="653.0" type="curve" smooth="yes"/>
      <point x="1170.0" y="653.0" type="line" smooth="yes"/>
      <point x="1181.0" y="653.0"/>
      <point x="1183.0" y="645.0"/>
      <point x="1175.0" y="631.0" type="curve" smooth="yes"/>
      <point x="946.0" y="226.0"/>
      <point x="671.0" y="-35.0"/>
      <point x="403.0" y="-35.0" type="curve" smooth="yes"/>
      <point x="267.0" y="-35.0"/>
      <point x="151.0" y="15.0"/>
      <point x="106.0" y="119.0" type="curve" smooth="yes"/>
      <point x="72.0" y="199.0" type="line" smooth="yes"/>
      <point x="37.0" y="279.0"/>
      <point x="26.0" y="347.0"/>
      <point x="48.0" y="443.0" type="curve" smooth="yes"/>
      <point x="96.0" y="652.0"/>
      <point x="419.0" y="695.0"/>
      <point x="683.0" y="806.0" type="curve" smooth="yes"/>
      <point x="927.0" y="908.0"/>
      <point x="1049.0" y="1012.0"/>
      <point x="1086.0" y="1173.0" type="curve" smooth="yes"/>
      <point x="1118.0" y="1313.0"/>
      <point x="1026.0" y="1405.0"/>
      <point x="849.0" y="1405.0" type="curve" smooth="yes"/>
      <point x="672.0" y="1405.0"/>
      <point x="554.0" y="1292.0"/>
      <point x="524.0" y="1163.0" type="curve" smooth="yes"/>
      <point x="497.0" y="1044.0"/>
      <point x="550.0" y="918.0"/>
      <point x="645.0" y="744.0" type="curve" smooth="yes"/>
      <point x="1041.0" y="21.0" type="line" smooth="yes"/>
      <point x="1048.0" y="9.0"/>
      <point x="1037.0" y="-3.0"/>
      <point x="1025.0" y="-3.0" type="curve" smooth="yes"/>
      <point x="1024.0" y="-3.0" type="line" smooth="yes"/>
      <point x="1012.0" y="-3.0"/>
      <point x="1009.0" y="3.0"/>
    </contour>
  </outline>
</glyph>
<glyph name="quotesingle" format="2">
  <advance height="1920" width="370"/>
  <unicode hex="0027"/>
  <outline>
    <contour>
      <point x="281.0" y="930.0" type="curve" smooth="yes"/>
      <point x="280.0" y="930.0" type="line" smooth="yes"/>
      <point x="272.0" y="930.0"/>
      <point x="269.0" y="934.0"/>
      <point x="271.0" y="944.0" type="curve" smooth="yes"/>
      <point x="316.0" y="1146.0" type="line" smooth="yes"/>
      <point x="325.0" y="1187.0"/>
      <point x="327.0" y="1208.0"/>
      <point x="334.0" y="1239.0" type="curve" smooth="yes"/>
      <point x="372.0" y="1404.0" type="line" smooth="yes"/>
      <point x="375.0" y="1416.0"/>
      <point x="381.0" y="1423.0"/>
      <point x="393.0" y="1423.0" type="curve" smooth="yes"/>
      <point x="395.0" y="1423.0" type="line" smooth="yes"/>
      <point x="407.0" y="1423.0"/>
      <point x="409.0" y="1416.0"/>
      <point x="406.0" y="1404.0" type="curve" smooth="yes"/>
      <point x="368.0" y="1239.0" type="line" smooth="yes"/>
      <point x="361.0" y="1208.0"/>
      <point x="353.0" y="1187.0"/>
      <point x="344.0" y="1146.0" type="curve" smooth="yes"/>
      <point x="295.0" y="944.0" type="line" smooth="yes"/>
      <point x="293.0" y="934.0"/>
      <point x="289.0" y="930.0"/>
    </contour>
  </outline>
</glyph>
<glyph name="parenleft" format="2">
  <advance height="2048" width="535"/>
  <unicode hex="0028"/>
  <outline>
    <contour>
      <point x="203.0" y="838.0" type="line" smooth="yes"/>
      <point x="297.0" y="1243.0"/>
      <point x="480.0" y="1561.0"/>
      <point x="743.0" y="1618.0" type="curve" smooth="yes"/>
      <point x="753.0" y="1620.0"/>
      <point x="757.0" y="1618.0"/>
      <point x="755.0" y="1609.0" type="curve" smooth="yes"/>
      <point x="755.0" y="1608.0" type="line" smooth="yes"/>
      <point x="753.0" y="1599.0"/>
      <point x="749.0" y="1598.0"/>
      <point x="739.0" y="1595.0" type="curve" smooth="yes"/>
      <point x="503.0" y="1523.0"/>
      <point x="331.0" y="1239.0"/>
      <point x="238.0" y="838.0" type="curve" smooth="yes"/>
      <point x="140.0" y="412.0" type="line" smooth="yes"/>
      <point x="47.0" y="11.0"/>
      <point x="89.0" y="-273.0"/>
      <point x="291.0" y="-345.0" type="curve" smooth="yes"/>
      <point x="299.0" y="-348.0"/>
      <point x="304.0" y="-349.0"/>
      <point x="302.0" y="-358.0" type="curve" smooth="yes"/>
      <point x="302.0" y="-359.0" type="line" smooth="yes"/>
      <point x="300.0" y="-368.0"/>
      <point x="294.0" y="-370.0"/>
      <point x="284.0" y="-368.0" type="curve" smooth="yes"/>
      <point x="47.0" y="-311.0"/>
      <point x="11.0" y="7.0"/>
      <point x="105.0" y="412.0" type="curve" smooth="yes"/>
    </contour>
  </outline>
</glyph>
<glyph name="parenright" format="2">
  <advance height="2048" width="535"/>
  <unicode hex="0029"/>
  <outline>
    <contour>
      <point x="380.0" y="412.0" type="line" smooth="yes"/>
      <point x="286.0" y="7.0"/>
      <point x="104.0" y="-311.0"/>
      <point x="-159.0" y="-368.0" type="curve" smooth="yes"/>
      <point x="-169.0" y="-370.0"/>
      <point x="-174.0" y="-368.0"/>
      <point x="-172.0" y="-359.0" type="curve" smooth="yes"/>
      <point x="-172.0" y="-358.0" type="line" smooth="yes"/>
      <point x="-170.0" y="-349.0"/>
      <point x="-166.0" y="-348.0"/>
      <point x="-156.0" y="-345.0" type="curve" smooth="yes"/>
      <point x="80.0" y="-273.0"/>
      <point x="252.0" y="11.0"/>
      <point x="345.0" y="412.0" type="curve" smooth="yes"/>
      <point x="443.0" y="838.0" type="line" smooth="yes"/>
      <point x="536.0" y="1239.0"/>
      <point x="494.0" y="1523.0"/>
      <point x="292.0" y="1595.0" type="curve" smooth="yes"/>
      <point x="284.0" y="1598.0"/>
      <point x="279.0" y="1599.0"/>
      <point x="281.0" y="1608.0" type="curve" smooth="yes"/>
      <point x="281.0" y="1609.0" type="line" smooth="yes"/>
      <point x="283.0" y="1618.0"/>
      <point x="290.0" y="1620.0"/>
      <point x="300.0" y="1618.0" type="curve" smooth="yes"/>
      <point x="537.0" y="1561.0"/>
      <point x="572.0" y="1243.0"/>
      <point x="478.0" y="838.0" type="curve" smooth="yes"/>
    </contour>
  </outline>
</glyph>
<glyph name="asterisk" format="2">
  <advance height="2048" width="914"/>
  <unicode hex="002A"/>
  <outline>
    <contour>
      <point x="573.0" y="1015.0" type="line"/>
      <point x="572.0" y="1025.0" type="line"/>
      <point x="925.0" y="1143.0" type="line" smooth="yes"/>
      <point x="936.0" y="1146.0"/>
      <point x="943.0" y="1150.0"/>
      <point x="951.0" y="1152.0" type="curve" smooth="yes"/>
      <point x="995.0" y="1164.0" type="line" smooth="yes"/>
      <point x="1006.0" y="1167.0"/>
      <point x="1014.0" y="1165.0"/>
      <point x="1015.0" y="1155.0" type="curve" smooth="yes"/>
      <point x="1015.0" y="1153.0" type="line" smooth="yes"/>
      <point x="1016.0" y="1143.0"/>
      <point x="1009.0" y="1135.0"/>
      <point x="998.0" y="1132.0" type="curve" smooth="yes"/>
      <point x="954.0" y="1118.0" type="line" smooth="yes"/>
      <point x="944.0" y="1115.0"/>
      <point x="938.0" y="1114.0"/>
      <point x="927.0" y="1111.0" type="curve" smooth="yes"/>
    </contour>
    <contour>
      <point x="568.0" y="1017.0" type="line"/>
      <point x="577.0" y="1023.0" type="line"/>
      <point x="727.0" y="750.0" type="line" smooth="yes"/>
      <point x="731.0" y="741.0"/>
      <point x="735.0" y="736.0"/>
      <point x="739.0" y="730.0" type="curve" smooth="yes"/>
      <point x="755.0" y="694.0" type="line" smooth="yes"/>
      <point x="759.0" y="686.0"/>
      <point x="757.0" y="676.0"/>
      <point x="747.0" y="670.0" type="curve" smooth="yes"/>
      <point x="745.0" y="669.0" type="line" smooth="yes"/>
      <point x="735.0" y="663.0"/>
      <point x="727.0" y="666.0"/>
      <point x="723.0" y="674.0" type="curve" smooth="yes"/>
      <point x="704.0" y="708.0" type="line" smooth="yes"/>
      <point x="701.0" y="715.0"/>
      <point x="700.0" y="721.0"/>
      <point x="696.0" y="730.0" type="curve" smooth="yes"/>
    </contour>
    <contour>
      <point x="569.0" y="1023.0" type="line"/>
      <point x="576.0" y="1017.0" type="line"/>
      <point x="316.0" y="730.0" type="line" smooth="yes"/>
      <point x="308.0" y="721.0"/>
      <point x="302.0" y="714.0"/>
      <point x="296.0" y="708.0" type="curve" smooth="yes"/>
      <point x="263.0" y="674.0" type="line" smooth="yes"/>
      <point x="255.0" y="666.0"/>
      <point x="245.0" y="663.0"/>
      <point x="237.0" y="669.0" type="curve" smooth="yes"/>
      <point x="237.0" y="670.0" type="line" smooth="yes"/>
      <point x="229.0" y="676.0"/>
      <point x="231.0" y="686.0"/>
      <point x="239.0" y="694.0" type="curve" smooth="yes"/>
      <point x="273.0" y="730.0" type="line" smooth="yes"/>
      <point x="280.0" y="737.0"/>
      <point x="285.0" y="741.0"/>
      <point x="293.0" y="750.0" type="curve" smooth="yes"/>
    </contour>
    <contour>
      <point x="576.0" y="1025.0" type="line"/>
      <point x="569.0" y="1015.0" type="line"/>
      <point x="259.0" y="1111.0" type="line" smooth="yes"/>
      <point x="250.0" y="1114.0"/>
      <point x="243.0" y="1115.0"/>
      <point x="236.0" y="1118.0" type="curve" smooth="yes"/>
      <point x="198.0" y="1132.0" type="line" smooth="yes"/>
      <point x="189.0" y="1135.0"/>
      <point x="184.0" y="1144.0"/>
      <point x="191.0" y="1153.0" type="curve" smooth="yes"/>
      <point x="193.0" y="1155.0" type="line" smooth="yes"/>
      <point x="200.0" y="1164.0"/>
      <point x="208.0" y="1167.0"/>
      <point x="217.0" y="1164.0" type="curve" smooth="yes"/>
      <point x="255.0" y="1152.0" type="line" smooth="yes"/>
      <point x="263.0" y="1149.0"/>
      <point x="268.0" y="1147.0"/>
      <point x="277.0" y="1143.0" type="curve" smooth="yes"/>
    </contour>
    <contour>
      <point x="577.0" y="1020.0" type="line"/>
      <point x="567.0" y="1020.0" type="line"/>
      <point x="635.0" y="1366.0" type="line" smooth="yes"/>
      <point x="638.0" y="1377.0"/>
      <point x="638.0" y="1384.0"/>
      <point x="640.0" y="1392.0" type="curve" smooth="yes"/>
      <point x="651.0" y="1435.0" type="line" smooth="yes"/>
      <point x="653.0" y="1445.0"/>
      <point x="660.0" y="1453.0"/>
      <point x="671.0" y="1453.0" type="curve" smooth="yes"/>
      <point x="673.0" y="1453.0" type="line" smooth="yes"/>
      <point x="684.0" y="1453.0"/>
      <point x="687.0" y="1445.0"/>
      <point x="685.0" y="1435.0" type="curve" smooth="yes"/>
      <point x="676.0" y="1392.0" type="line" smooth="yes"/>
      <point x="674.0" y="1383.0"/>
      <point x="672.0" y="1377.0"/>
      <point x="669.0" y="1366.0" type="curve" smooth="yes"/>
    </contour>
  </outline>
</glyph>
<glyph name="plus" format="2">
  <advance height="1920" width="1040"/>
  <unicode hex="002B"/>
  <outline>
    <contour>
      <point x="82.0" y="690.0" type="curve" smooth="yes"/>
      <point x="82.0" y="695.0" type="line" smooth="yes"/>
      <point x="82.0" y="705.0"/>
      <point x="88.0" y="710.0"/>
      <point x="100.0" y="710.0" type="curve" smooth="yes"/>
      <point x="1020.0" y="710.0" type="line" smooth="yes"/>
      <point x="1032.0" y="710.0"/>
      <point x="1038.0" y="705.0"/>
      <point x="1038.0" y="695.0" type="curve" smooth="yes"/>
      <point x="1038.0" y="690.0" type="line" smooth="yes"/>
      <point x="1038.0" y="680.0"/>
      <point x="1032.0" y="675.0"/>
      <point x="1020.0" y="675.0" type="curve" smooth="yes"/>
      <point x="100.0" y="675.0" type="line" smooth="yes"/>
      <point x="88.0" y="675.0"/>
      <point x="82.0" y="680.0"/>
    </contour>
    <contour>
      <point x="674.0" y="1193.0" type="curve" smooth="yes"/>
      <point x="676.0" y="1193.0" type="line" smooth="yes"/>
      <point x="686.0" y="1193.0"/>
      <point x="689.0" y="1187.0"/>
      <point x="686.0" y="1175.0" type="curve" smooth="yes"/>
      <point x="458.0" y="185.0" type="line" smooth="yes"/>
      <point x="455.0" y="173.0"/>
      <point x="450.0" y="167.0"/>
      <point x="440.0" y="167.0" type="curve" smooth="yes"/>
      <point x="438.0" y="167.0" type="line" smooth="yes"/>
      <point x="428.0" y="167.0"/>
      <point x="425.0" y="173.0"/>
      <point x="428.0" y="185.0" type="curve" smooth="yes"/>
      <point x="656.0" y="1175.0" type="line" smooth="yes"/>
      <point x="659.0" y="1187.0"/>
      <point x="664.0" y="1193.0"/>
    </contour>
  </outline>
</glyph>
<glyph name="comma" format="2">
  <advance height="1920" width="540"/>
  <unicode hex="002C"/>
  <outline>
    <contour>
      <point x="71.0" y="-211.0" type="curve" smooth="yes"/>
      <point x="70.0" y="-211.0" type="line" smooth="yes"/>
      <point x="62.0" y="-211.0"/>
      <point x="62.0" y="-203.0"/>
      <point x="66.0" y="-193.0" type="curve" smooth="yes"/>
      <point x="147.0" y="0.0" type="line"/>
      <point x="145.0" y="0.0" type="line" smooth="yes"/>
      <point x="132.0" y="0.0"/>
      <point x="129.0" y="5.0"/>
      <point x="132.0" y="19.0" type="curve" smooth="yes"/>
      <point x="173.0" y="193.0" type="line" smooth="yes"/>
      <point x="176.0" y="205.0"/>
      <point x="184.0" y="213.0"/>
      <point x="197.0" y="213.0" type="curve" smooth="yes"/>
      <point x="201.0" y="213.0" type="line" smooth="yes"/>
      <point x="214.0" y="213.0"/>
      <point x="221.0" y="205.0"/>
      <point x="218.0" y="193.0" type="curve" smooth="yes"/>
      <point x="182.0" y="38.0" type="line" smooth="yes"/>
      <point x="179.0" y="27.0"/>
      <point x="170.0" y="8.0"/>
      <point x="165.0" y="-3.0" type="curve" smooth="yes"/>
      <point x="90.0" y="-191.0" type="line" smooth="yes"/>
      <point x="84.0" y="-206.0"/>
      <point x="78.0" y="-211.0"/>
    </contour>
  </outline>
</glyph>
<glyph name="hyphen" format="2">
  <advance height="1920" width="570"/>
  <unicode hex="002D"/>
  <outline>
    <contour>
      <point x="57.0" y="610.0" type="curve" smooth="yes"/>
      <point x="57.0" y="615.0" type="line" smooth="yes"/>
      <point x="57.0" y="625.0"/>
      <point x="63.0" y="630.0"/>
      <point x="75.0" y="630.0" type="curve" smooth="yes"/>
      <point x="535.0" y="630.0" type="line" smooth="yes"/>
      <point x="547.0" y="630.0"/>
      <point x="553.0" y="625.0"/>
      <point x="553.0" y="615.0" type="curve" smooth="yes"/>
      <point x="553.0" y="610.0" type="line" smooth="yes"/>
      <point x="553.0" y="600.0"/>
      <point x="547.0" y="595.0"/>
      <point x="535.0" y="595.0" type="curve" smooth="yes"/>
      <point x="75.0" y="595.0" type="line" smooth="yes"/>
      <point x="63.0" y="595.0"/>
      <point x="57.0" y="600.0"/>
    </contour>
  </outline>
</glyph>
<glyph name="period" format="2">
  <advance height="1920" width="540"/>
  <unicode hex="002E"/>
  <outline>
    <contour>
      <point x="151.0" y="-3.0" type="curve" smooth="yes"/>
      <point x="147.0" y="-3.0" type="line" smooth="yes"/>
      <point x="134.0" y="-3.0"/>
      <point x="128.0" y="6.0"/>
      <point x="131.0" y="18.0" type="curve" smooth="yes"/>
      <point x="171.0" y="192.0" type="line" smooth="yes"/>
      <point x="174.0" y="204.0"/>
      <point x="184.0" y="213.0"/>
      <point x="197.0" y="213.0" type="curve" smooth="yes"/>
      <point x="201.0" y="213.0" type="line" smooth="yes"/>
      <point x="214.0" y="213.0"/>
      <point x="220.0" y="204.0"/>
      <point x="217.0" y="192.0" type="curve" smooth="yes"/>
      <point x="177.0" y="18.0" type="line" smooth="yes"/>
      <point x="174.0" y="6.0"/>
      <point x="164.0" y="-3.0"/>
    </contour>
  </outline>
</glyph>
<glyph name="slash" format="2">
  <advance height="2048" width="840"/>
  <unicode hex="002F"/>
  <outline>
    <contour>
      <point x="940.0" y="1379.0" type="curve" smooth="yes"/>
      <point x="-37.0" y="-84.0" type="line" smooth="yes"/>
      <point x="-46.0" y="-98.0"/>
      <point x="-52.0" y="-103.0"/>
      <point x="-61.0" y="-103.0" type="curve" smooth="yes"/>
      <point x="-62.0" y="-103.0" type="line" smooth="yes"/>
      <point x="-74.0" y="-103.0"/>
      <point x="-75.0" y="-95.0"/>
      <point x="-64.0" y="-79.0" type="curve" smooth="yes"/>
      <point x="913.0" y="1384.0" type="line" smooth="yes"/>
      <point x="922.0" y="1398.0"/>
      <point x="927.0" y="1403.0"/>
      <point x="936.0" y="1403.0" type="curve" smooth="yes"/>
      <point x="937.0" y="1403.0" type="line" smooth="yes"/>
      <point x="946.0" y="1403.0"/>
      <point x="951.0" y="1395.0"/>
    </contour>
  </outline>
</glyph>
<glyph name="zero" format="2">
  <advance height="1920" width="1150"/>
  <unicode hex="0030"/>
  <outline>
    <contour>
      <point x="173.0" y="488.0" type="curve" smooth="yes"/>
      <point x="271.0" y="913.0" type="line" smooth="yes"/>
      <point x="346.0" y="1239.0"/>
      <point x="504.0" y="1435.0"/>
      <point x="786.0" y="1435.0" type="curve" smooth="yes"/>
      <point x="1068.0" y="1435.0"/>
      <point x="1136.0" y="1239.0"/>
      <point x="1061.0" y="913.0" type="curve" smooth="yes"/>
      <point x="963.0" y="488.0" type="line" smooth="yes"/>
      <point x="888.0" y="162.0"/>
      <point x="728.0" y="-35.0"/>
      <point x="447.0" y="-35.0" type="curve" smooth="yes"/>
      <point x="166.0" y="-35.0"/>
      <point x="98.0" y="162.0"/>
    </contour>
    <contour>
      <point x="208.0" y="488.0" type="line" smooth="yes"/>
      <point x="139.0" y="190.0"/>
      <point x="190.0" y="-5.0"/>
      <point x="454.0" y="-5.0" type="curve" smooth="yes"/>
      <point x="718.0" y="-5.0"/>
      <point x="859.0" y="190.0"/>
      <point x="928.0" y="488.0" type="curve" smooth="yes"/>
      <point x="1026.0" y="913.0" type="line" smooth="yes"/>
      <point x="1095.0" y="1211.0"/>
      <point x="1043.0" y="1405.0"/>
      <point x="779.0" y="1405.0" type="curve" smooth="yes"/>
      <point x="515.0" y="1405.0"/>
      <point x="375.0" y="1211.0"/>
      <point x="306.0" y="913.0" type="curve" smooth="yes"/>
    </contour>
  </outline>
</glyph>
<glyph name="one" format="2">
  <advance height="1920" width="600"/>
  <unicode hex="0031"/>
  <outline>
    <contour>
      <point x="494.0" y="1400.0" type="curve" smooth="yes"/>
      <point x="499.0" y="1408.0"/>
      <point x="504.0" y="1420.0"/>
      <point x="510.0" y="1438.0" type="curve" smooth="yes"/>
      <point x="513.0" y="1446.0"/>
      <point x="516.0" y="1450.0"/>
      <point x="521.0" y="1450.0" type="curve" smooth="yes"/>
      <point x="522.0" y="1450.0" type="line" smooth="yes"/>
      <point x="528.0" y="1450.0"/>
      <point x="529.0" y="1445.0"/>
      <point x="527.0" y="1436.0" type="curve" smooth="yes"/>
      <point x="199.0" y="16.0" type="line" smooth="yes"/>
      <point x="196.0" y="3.0"/>
      <point x="191.0" y="-3.0"/>
      <point x="180.0" y="-3.0" type="curve" smooth="yes"/>
      <point x="179.0" y="-3.0" type="line" smooth="yes"/>
      <point x="168.0" y="-3.0"/>
      <point x="166.0" y="3.0"/>
      <point x="169.0" y="16.0" type="curve" smooth="yes"/>
      <point x="483.0" y="1377.0" type="line" smooth="yes"/>
      <point x="486.0" y="1388.0"/>
      <point x="491.0" y="1395.0"/>
    </contour>
  </outline>
</glyph>
<glyph name="two" format="2">
  <advance height="1920" width="1080"/>
  <unicode hex="0032"/>
  <outline>
    <contour>
      <point x="53.0" y="49.0" type="line" smooth="yes"/>
      <point x="162.0" y="521.0"/>
      <point x="897.0" y="638.0"/>
      <point x="988.0" y="1033.0" type="curve" smooth="yes"/>
      <point x="997.0" y="1068.0" type="line" smooth="yes"/>
      <point x="1036.0" y="1238.0"/>
      <point x="970.0" y="1405.0"/>
      <point x="763.0" y="1405.0" type="curve" smooth="yes"/>
      <point x="513.0" y="1405.0"/>
      <point x="389.0" y="1255.0"/>
      <point x="331.0" y="1002.0" type="curve" smooth="yes"/>
      <point x="312.0" y="918.0" type="line" smooth="yes"/>
      <point x="309.0" y="905.0"/>
      <point x="302.0" y="899.0"/>
      <point x="291.0" y="899.0" type="curve" smooth="yes"/>
      <point x="290.0" y="899.0" type="line" smooth="yes"/>
      <point x="279.0" y="899.0"/>
      <point x="274.0" y="905.0"/>
      <point x="277.0" y="918.0" type="curve" smooth="yes"/>
      <point x="296.0" y="1002.0" type="line" smooth="yes"/>
      <point x="359.0" y="1276.0"/>
      <point x="493.0" y="1435.0"/>
      <point x="770.0" y="1435.0" type="curve" smooth="yes"/>
      <point x="997.0" y="1435.0"/>
      <point x="1075.0" y="1253.0"/>
      <point x="1033.0" y="1073.0" type="curve" smooth="yes"/>
      <point x="1022.0" y="1028.0" type="line" smooth="yes"/>
      <point x="928.0" y="622.0"/>
      <point x="186.0" y="486.0"/>
      <point x="84.0" y="45.0" type="curve" smooth="yes"/>
      <point x="82.0" y="35.0" type="line"/>
      <point x="869.0" y="35.0" type="line" smooth="yes"/>
      <point x="882.0" y="35.0"/>
      <point x="887.0" y="30.0"/>
      <point x="884.0" y="19.0" type="curve" smooth="yes"/>
      <point x="884.0" y="16.0" type="line" smooth="yes"/>
      <point x="881.0" y="5.0"/>
      <point x="874.0" y="0.0"/>
      <point x="861.0" y="0.0" type="curve" smooth="yes"/>
      <point x="62.0" y="0.0" type="line" smooth="yes"/>
      <point x="44.0" y="0.0"/>
      <point x="43.0" y="7.0"/>
      <point x="47.0" y="23.0" type="curve" smooth="yes"/>
    </contour>
  </outline>
</glyph>
<glyph name="three" format="2">
  <advance height="1920" width="1100"/>
  <unicode hex="0033"/>
  <outline>
    <contour>
      <point x="149.0" y="410.0" type="curve" smooth="yes"/>
      <point x="150.0" y="410.0" type="line" smooth="yes"/>
      <point x="161.0" y="410.0"/>
      <point x="163.0" y="405.0"/>
      <point x="160.0" y="392.0" type="curve" smooth="yes"/>
      <point x="145.0" y="327.0" type="line" smooth="yes"/>
      <point x="94.0" y="107.0"/>
      <point x="180.0" y="-5.0"/>
      <point x="409.0" y="-5.0" type="curve" smooth="yes"/>
      <point x="686.0" y="-5.0"/>
      <point x="818.0" y="142.0"/>
      <point x="864.0" y="342.0" type="curve" smooth="yes"/>
      <point x="876.0" y="393.0" type="line" smooth="yes"/>
      <point x="922.0" y="593.0"/>
      <point x="808.0" y="740.0"/>
      <point x="581.0" y="740.0" type="curve" smooth="yes"/>
      <point x="506.0" y="740.0" type="line" smooth="yes"/>
      <point x="494.0" y="740.0"/>
      <point x="488.0" y="743.0"/>
      <point x="491.0" y="754.0" type="curve" smooth="yes"/>
      <point x="491.0" y="755.0" type="line" smooth="yes"/>
      <point x="494.0" y="766.0"/>
      <point x="501.0" y="770.0"/>
      <point x="513.0" y="770.0" type="curve" smooth="yes"/>
      <point x="568.0" y="770.0" type="line" smooth="yes"/>
      <point x="805.0" y="770.0"/>
      <point x="936.0" y="893.0"/>
      <point x="973.0" y="1053.0" type="curve" smooth="yes"/>
      <point x="981.0" y="1088.0" type="line" smooth="yes"/>
      <point x="1025.0" y="1278.0"/>
      <point x="975.0" y="1405.0"/>
      <point x="748.0" y="1405.0" type="curve" smooth="yes"/>
      <point x="538.0" y="1405.0"/>
      <point x="397.0" y="1265.0"/>
      <point x="348.0" y="1052.0" type="curve" smooth="yes"/>
      <point x="328.0" y="968.0" type="line" smooth="yes"/>
      <point x="325.0" y="955.0"/>
      <point x="320.0" y="949.0"/>
      <point x="310.0" y="949.0" type="curve" smooth="yes"/>
      <point x="309.0" y="949.0" type="line" smooth="yes"/>
      <point x="298.0" y="949.0"/>
      <point x="295.0" y="955.0"/>
      <point x="298.0" y="968.0" type="curve" smooth="yes"/>
      <point x="318.0" y="1052.0" type="line" smooth="yes"/>
      <point x="372.0" y="1286.0"/>
      <point x="528.0" y="1435.0"/>
      <point x="755.0" y="1435.0" type="curve" smooth="yes"/>
      <point x="982.0" y="1435.0"/>
      <point x="1068.0" y="1313.0"/>
      <point x="1015.0" y="1083.0" type="curve" smooth="yes"/>
      <point x="1009.0" y="1058.0" type="line" smooth="yes"/>
      <point x="967.0" y="878.0"/>
      <point x="820.0" y="750.0"/>
      <point x="563.0" y="750.0" type="curve"/>
      <point x="585.0" y="760.0" type="line"/>
      <point x="842.0" y="760.0"/>
      <point x="957.0" y="612.0"/>
      <point x="906.0" y="392.0" type="curve" smooth="yes"/>
      <point x="893.0" y="337.0" type="line" smooth="yes"/>
      <point x="845.0" y="127.0"/>
      <point x="699.0" y="-35.0"/>
      <point x="402.0" y="-35.0" type="curve" smooth="yes"/>
      <point x="150.0" y="-35.0"/>
      <point x="62.0" y="99.0"/>
      <point x="115.0" y="327.0" type="curve" smooth="yes"/>
      <point x="130.0" y="392.0" type="line" smooth="yes"/>
      <point x="133.0" y="405.0"/>
      <point x="139.0" y="410.0"/>
    </contour>
  </outline>
</glyph>
<glyph name="four" format="2">
  <advance height="1920" width="1045"/>
  <unicode hex="0034"/>
  <outline>
    <contour>
      <point x="927.0" y="406.0" type="curve" smooth="yes"/>
      <point x="927.0" y="405.0" type="line" smooth="yes"/>
      <point x="924.0" y="394.0"/>
      <point x="917.0" y="390.0"/>
      <point x="904.0" y="390.0" type="curve" smooth="yes"/>
      <point x="725.0" y="390.0" type="line"/>
      <point x="639.0" y="16.0" type="line" smooth="yes"/>
      <point x="636.0" y="3.0"/>
      <point x="628.0" y="-3.0"/>
      <point x="617.0" y="-3.0" type="curve" smooth="yes"/>
      <point x="616.0" y="-3.0" type="line" smooth="yes"/>
      <point x="605.0" y="-3.0"/>
      <point x="601.0" y="3.0"/>
      <point x="604.0" y="16.0" type="curve" smooth="yes"/>
      <point x="690.0" y="390.0" type="line"/>
      <point x="56.0" y="390.0" type="line" smooth="yes"/>
      <point x="33.0" y="390.0"/>
      <point x="18.0" y="395.0"/>
      <point x="23.0" y="415.0" type="curve" smooth="yes"/>
      <point x="25.0" y="423.0" type="line" smooth="yes"/>
      <point x="27.0" y="433.0"/>
      <point x="33.0" y="442.0"/>
      <point x="45.0" y="454.0" type="curve" smooth="yes"/>
      <point x="902.0" y="1389.0" type="line" smooth="yes"/>
      <point x="909.0" y="1397.0"/>
      <point x="917.0" y="1402.0"/>
      <point x="934.0" y="1402.0" type="curve" smooth="yes"/>
      <point x="940.0" y="1402.0" type="line" smooth="yes"/>
      <point x="952.0" y="1402.0"/>
      <point x="957.0" y="1395.0"/>
      <point x="954.0" y="1381.0" type="curve" smooth="yes"/>
      <point x="732.0" y="420.0" type="line"/>
      <point x="911.0" y="420.0" type="line" smooth="yes"/>
      <point x="924.0" y="420.0"/>
      <point x="930.0" y="417.0"/>
    </contour>
    <contour>
      <point x="697.0" y="420.0" type="line"/>
      <point x="915.0" y="1363.0" type="line"/>
      <point x="52.0" y="420.0" type="line"/>
    </contour>
  </outline>
</glyph>
<glyph name="five" format="2">
  <advance height="1920" width="1100"/>
  <unicode hex="0035"/>
  <outline>
    <contour>
      <point x="161.0" y="371.0" type="curve" smooth="yes"/>
      <point x="162.0" y="371.0" type="line" smooth="yes"/>
      <point x="173.0" y="371.0"/>
      <point x="174.0" y="365.0"/>
      <point x="173.0" y="353.0" type="curve" smooth="yes"/>
      <point x="135.0" y="122.0"/>
      <point x="197.0" y="-5.0"/>
      <point x="414.0" y="-5.0" type="curve" smooth="yes"/>
      <point x="663.0" y="-5.0"/>
      <point x="881.0" y="157.0"/>
      <point x="944.0" y="428.0" type="curve" smooth="yes"/>
      <point x="959.0" y="493.0" type="line" smooth="yes"/>
      <point x="1019.0" y="753.0"/>
      <point x="898.0" y="925.0"/>
      <point x="704.0" y="925.0" type="curve" smooth="yes"/>
      <point x="568.0" y="925.0"/>
      <point x="403.0" y="815.0"/>
      <point x="282.0" y="667.0" type="curve" smooth="yes"/>
      <point x="272.0" y="655.0"/>
      <point x="264.0" y="650.0"/>
      <point x="253.0" y="650.0" type="curve"/>
      <point x="258.0" y="650.0" type="line"/>
      <point x="246.0" y="650.0"/>
      <point x="242.0" y="656.0"/>
      <point x="247.0" y="670.0" type="curve" smooth="yes"/>
      <point x="516.0" y="1376.0" type="line" smooth="yes"/>
      <point x="523.0" y="1394.0"/>
      <point x="529.0" y="1400.0"/>
      <point x="547.0" y="1400.0" type="curve" smooth="yes"/>
      <point x="1128.0" y="1400.0" type="line" smooth="yes"/>
      <point x="1143.0" y="1400.0"/>
      <point x="1145.0" y="1396.0"/>
      <point x="1144.0" y="1391.0" type="curve" smooth="yes"/>
      <point x="1144.0" y="1389.0" type="line" smooth="yes"/>
      <point x="1140.0" y="1373.0"/>
      <point x="1105.0" y="1370.0"/>
      <point x="937.0" y="1370.0" type="curve" smooth="yes"/>
      <point x="540.0" y="1370.0" type="line"/>
      <point x="277.0" y="675.0" type="line"/>
      <point x="264.0" y="675.0" type="line"/>
      <point x="372.0" y="818.0"/>
      <point x="550.0" y="955.0"/>
      <point x="710.0" y="955.0" type="curve" smooth="yes"/>
      <point x="910.0" y="955.0"/>
      <point x="1063.0" y="790.0"/>
      <point x="994.0" y="493.0" type="curve" smooth="yes"/>
      <point x="979.0" y="428.0" type="line" smooth="yes"/>
      <point x="910.0" y="131.0"/>
      <point x="677.0" y="-35.0"/>
      <point x="407.0" y="-35.0" type="curve" smooth="yes"/>
      <point x="173.0" y="-35.0"/>
      <point x="102.0" y="101.0"/>
      <point x="143.0" y="352.0" type="curve" smooth="yes"/>
      <point x="145.0" y="365.0"/>
      <point x="151.0" y="371.0"/>
    </contour>
  </outline>
</glyph>
<glyph name="seven" format="2">
  <advance height="1920" width="1015"/>
  <unicode hex="0037"/>
  <outline>
    <contour>
      <point x="1204.0" y="1378.0" type="curve" smooth="yes"/>
      <point x="246.0" y="16.0" type="line" smooth="yes"/>
      <point x="238.0" y="4.0"/>
      <point x="225.0" y="-6.0"/>
      <point x="214.0" y="-6.0" type="curve" smooth="yes"/>
      <point x="209.0" y="-6.0" type="line" smooth="yes"/>
      <point x="197.0" y="-6.0"/>
      <point x="188.0" y="5.0"/>
      <point x="197.0" y="19.0" type="curve" smooth="yes"/>
      <point x="1171.0" y="1370.0" type="line"/>
      <point x="287.0" y="1370.0" type="line" smooth="yes"/>
      <point x="274.0" y="1370.0"/>
      <point x="269.0" y="1373.0"/>
      <point x="272.0" y="1384.0" type="curve" smooth="yes"/>
      <point x="272.0" y="1385.0" type="line" smooth="yes"/>
      <point x="275.0" y="1396.0"/>
      <point x="281.0" y="1400.0"/>
      <point x="294.0" y="1400.0" type="curve" smooth="yes"/>
      <point x="1195.0" y="1400.0" type="line" smooth="yes"/>
      <point x="1211.0" y="1400.0"/>
      <point x="1213.0" y="1392.0"/>
    </contour>
  </outline>
</glyph>
<glyph name="less" format="2">
  <advance height="1920" width="1010"/>
  <unicode hex="003C"/>
  <outline>
    <contour>
      <point x="761.0" y="160.0" type="curve" smooth="yes"/>
      <point x="96.0" y="571.0" type="line" smooth="yes"/>
      <point x="85.0" y="577.0"/>
      <point x="81.0" y="585.0"/>
      <point x="83.0" y="595.0" type="curve" smooth="yes"/>
      <point x="86.0" y="605.0" type="line" smooth="yes"/>
      <point x="88.0" y="615.0"/>
      <point x="96.0" y="623.0"/>
      <point x="109.0" y="629.0" type="curve" smooth="yes"/>
      <point x="964.0" y="1040.0" type="line" smooth="yes"/>
      <point x="978.0" y="1047.0"/>
      <point x="986.0" y="1043.0"/>
      <point x="983.0" y="1032.0" type="curve" smooth="yes"/>
      <point x="983.0" y="1031.0" type="line" smooth="yes"/>
      <point x="980.0" y="1020.0"/>
      <point x="972.0" y="1017.0"/>
      <point x="957.0" y="1010.0" type="curve" smooth="yes"/>
      <point x="108.0" y="600.0" type="line"/>
      <point x="768.0" y="190.0" type="line" smooth="yes"/>
      <point x="779.0" y="183.0"/>
      <point x="787.0" y="180.0"/>
      <point x="784.0" y="169.0" type="curve" smooth="yes"/>
      <point x="784.0" y="168.0" type="line" smooth="yes"/>
      <point x="781.0" y="157.0"/>
      <point x="771.0" y="153.0"/>
    </contour>
  </outline>
</glyph>
<glyph name="equal" format="2">
  <advance height="1920" width="1180"/>
  <unicode hex="003D"/>
  <outline>
    <contour>
      <point x="107.0" y="347.0" type="curve" smooth="yes"/>
      <point x="107.0" y="348.0" type="line" smooth="yes"/>
      <point x="107.0" y="358.0"/>
      <point x="113.0" y="360.0"/>
      <point x="125.0" y="360.0" type="curve" smooth="yes"/>
      <point x="975.0" y="360.0" type="line" smooth="yes"/>
      <point x="987.0" y="360.0"/>
      <point x="993.0" y="358.0"/>
      <point x="993.0" y="348.0" type="curve" smooth="yes"/>
      <point x="993.0" y="347.0" type="line" smooth="yes"/>
      <point x="993.0" y="337.0"/>
      <point x="987.0" y="335.0"/>
      <point x="975.0" y="335.0" type="curve" smooth="yes"/>
      <point x="125.0" y="335.0" type="line" smooth="yes"/>
      <point x="113.0" y="335.0"/>
      <point x="107.0" y="337.0"/>
    </contour>
    <contour>
      <point x="176.0" y="647.0" type="curve" smooth="yes"/>
      <point x="176.0" y="648.0" type="line" smooth="yes"/>
      <point x="176.0" y="658.0"/>
      <point x="182.0" y="660.0"/>
      <point x="194.0" y="660.0" type="curve" smooth="yes"/>
      <point x="1044.0" y="660.0" type="line" smooth="yes"/>
      <point x="1056.0" y="660.0"/>
      <point x="1062.0" y="658.0"/>
      <point x="1062.0" y="648.0" type="curve" smooth="yes"/>
      <point x="1062.0" y="647.0" type="line" smooth="yes"/>
      <point x="1062.0" y="637.0"/>
      <point x="1056.0" y="635.0"/>
      <point x="1044.0" y="635.0" type="curve" smooth="yes"/>
      <point x="194.0" y="635.0" type="line" smooth="yes"/>
      <point x="182.0" y="635.0"/>
      <point x="176.0" y="637.0"/>
    </contour>
  </outline>
</glyph>
<glyph name="greater" format="2">
  <advance height="1920" width="1010"/>
  <unicode hex="003E"/>
  <outline>
    <contour>
      <point x="286.0" y="1040.0" type="curve" smooth="yes"/>
      <point x="951.0" y="629.0" type="line" smooth="yes"/>
      <point x="962.0" y="623.0"/>
      <point x="966.0" y="615.0"/>
      <point x="964.0" y="605.0" type="curve" smooth="yes"/>
      <point x="961.0" y="595.0" type="line" smooth="yes"/>
      <point x="959.0" y="585.0"/>
      <point x="951.0" y="577.0"/>
      <point x="938.0" y="571.0" type="curve" smooth="yes"/>
      <point x="83.0" y="160.0" type="line" smooth="yes"/>
      <point x="69.0" y="153.0"/>
      <point x="61.0" y="157.0"/>
      <point x="64.0" y="168.0" type="curve" smooth="yes"/>
      <point x="64.0" y="169.0" type="line" smooth="yes"/>
      <point x="67.0" y="180.0"/>
      <point x="75.0" y="183.0"/>
      <point x="90.0" y="190.0" type="curve" smooth="yes"/>
      <point x="940.0" y="600.0" type="line"/>
      <point x="279.0" y="1010.0" type="line" smooth="yes"/>
      <point x="268.0" y="1017.0"/>
      <point x="260.0" y="1020.0"/>
      <point x="263.0" y="1031.0" type="curve" smooth="yes"/>
      <point x="263.0" y="1032.0" type="line" smooth="yes"/>
      <point x="266.0" y="1043.0"/>
      <point x="276.0" y="1047.0"/>
    </contour>
  </outline>
</glyph>
<glyph name="question" format="2">
  <advance height="1920" width="1080"/>
  <unicode hex="003F"/>
  <outline>
    <contour>
      <point x="461.0" y="-3.0" type="curve" smooth="yes"/>
      <point x="457.0" y="-3.0" type="line" smooth="yes"/>
      <point x="444.0" y="-3.0"/>
      <point x="438.0" y="6.0"/>
      <point x="441.0" y="18.0" type="curve" smooth="yes"/>
      <point x="481.0" y="192.0" type="line" smooth="yes"/>
      <point x="484.0" y="204.0"/>
      <point x="494.0" y="213.0"/>
      <point x="507.0" y="213.0" type="curve" smooth="yes"/>
      <point x="511.0" y="213.0" type="line" smooth="yes"/>
      <point x="524.0" y="213.0"/>
      <point x="530.0" y="204.0"/>
      <point x="527.0" y="192.0" type="curve" smooth="yes"/>
      <point x="487.0" y="18.0" type="line" smooth="yes"/>
      <point x="484.0" y="6.0"/>
      <point x="474.0" y="-3.0"/>
    </contour>
    <contour>
      <point x="543.0" y="397.0" type="curve" smooth="yes"/>
      <point x="541.0" y="397.0" type="line" smooth="yes"/>
      <point x="532.0" y="397.0"/>
      <point x="527.0" y="403.0"/>
      <point x="529.0" y="412.0" type="curve" smooth="yes"/>
      <point x="623.0" y="732.0"/>
      <point x="954.0" y="779.0"/>
      <point x="1020.0" y="1063.0" type="curve" smooth="yes"/>
      <point x="1028.0" y="1098.0" type="line" smooth="yes"/>
      <point x="1081.0" y="1329.0"/>
      <point x="1002.0" y="1455.0"/>
      <point x="805.0" y="1455.0" type="curve" smooth="yes"/>
      <point x="585.0" y="1455.0"/>
      <point x="434.0" y="1296.0"/>
      <point x="378.0" y="1052.0" type="curve" smooth="yes"/>
      <point x="358.0" y="968.0" type="line" smooth="yes"/>
      <point x="355.0" y="955.0"/>
      <point x="351.0" y="949.0"/>
      <point x="340.0" y="949.0" type="curve" smooth="yes"/>
      <point x="339.0" y="949.0" type="line" smooth="yes"/>
      <point x="328.0" y="949.0"/>
      <point x="325.0" y="955.0"/>
      <point x="328.0" y="968.0" type="curve" smooth="yes"/>
      <point x="348.0" y="1052.0" type="line" smooth="yes"/>
      <point x="409.0" y="1317.0"/>
      <point x="565.0" y="1485.0"/>
      <point x="812.0" y="1485.0" type="curve" smooth="yes"/>
      <point x="1029.0" y="1485.0"/>
      <point x="1118.0" y="1354.0"/>
      <point x="1060.0" y="1103.0" type="curve" smooth="yes"/>
      <point x="1054.0" y="1078.0" type="line" smooth="yes"/>
      <point x="979.0" y="755.0"/>
      <point x="652.0" y="715.0"/>
      <point x="562.0" y="411.0" type="curve" smooth="yes"/>
      <point x="559.0" y="403.0"/>
      <point x="552.0" y="397.0"/>
    </contour>
  </outline>
</glyph>
<glyph name="A" format="2">
  <advance height="1872" width="1127"/>
  <unicode hex="0041"/>
  <anchor x="445.0" y="0.0" name="bottom"/>
  <anchor x="920.0" y="0.0" name="ogonek"/>
  <anchor x="777.0" y="1400.0" name="top"/>
  <outline>
    <contour>
      <point x="262.0" y="508.0" type="line"/>
      <point x="842.0" y="508.0" type="line"/>
      <point x="835.0" y="478.0" type="line"/>
      <point x="255.0" y="478.0" type="line"/>
    </contour>
    <contour>
      <point x="747.0" y="1354.0" type="line"/>
      <point x="9.0" y="18.0" type="line" smooth="yes"/>
      <point x="2.0" y="6.0"/>
      <point x="-5.0" y="-3.0"/>
      <point x="-16.0" y="-3.0" type="curve" smooth="yes"/>
      <point x="-23.0" y="-3.0" type="line" smooth="yes"/>
      <point x="-36.0" y="-3.0"/>
      <point x="-40.0" y="6.0"/>
      <point x="-33.0" y="18.0" type="curve" smooth="yes"/>
      <point x="730.0" y="1381.0" type="line" smooth="yes"/>
      <point x="737.0" y="1393.0"/>
      <point x="740.0" y="1400.0"/>
      <point x="752.0" y="1400.0" type="curve" smooth="yes"/>
      <point x="754.0" y="1400.0" type="line" smooth="yes"/>
      <point x="765.0" y="1400.0"/>
      <point x="767.750588235" y="1393.07764706"/>
      <point x="769.0" y="1381.0" type="curve" smooth="yes"/>
      <point x="910.0" y="18.0" type="line" smooth="yes"/>
      <point x="911.0" y="6.0"/>
      <point x="906.0" y="-3.0"/>
      <point x="893.0" y="-3.0" type="curve" smooth="yes"/>
      <point x="892.0" y="-3.0" type="line" smooth="yes"/>
      <point x="881.0" y="-3.0"/>
      <point x="876.0" y="5.0"/>
      <point x="875.0" y="18.0" type="curve" smooth="yes"/>
    </contour>
  </outline>
</glyph>
<glyph name="B" format="2">
  <advance height="1872" width="1145"/>
  <unicode hex="0042"/>
  <anchor x="475.0" y="0.0" name="bottom"/>
  <anchor x="777.0" y="1400.0" name="top"/>
  <outline>
    <contour>
      <point x="314.0" y="730.0" type="line"/>
      <point x="696.0" y="730.0" type="line" smooth="yes"/>
      <point x="900.0" y="730.0"/>
      <point x="1066.53846154" y="855.692307692"/>
      <point x="1104.0" y="1043.0" type="curve" smooth="yes"/>
      <point x="1109.0" y="1068.0" type="line" smooth="yes"/>
      <point x="1153.46153846" y="1290.30769231"/>
      <point x="1056.0" y="1370.0"/>
      <point x="843.0" y="1370.0" type="curve" smooth="yes"/>
      <point x="461.0" y="1370.0" type="line"/>
    </contour>
    <contour>
      <point x="713.0" y="720.0" type="line"/>
      <point x="944.0" y="720.0"/>
      <point x="1086.89107413" y="621.546142209"/>
      <point x="1027.0" y="372.0" type="curve" smooth="yes"/>
      <point x="1021.0" y="347.0" type="line" smooth="yes"/>
      <point x="956.0" y="67.0"/>
      <point x="775.0" y="0.0"/>
      <point x="544.0" y="0.0" type="curve" smooth="yes"/>
      <point x="138.0" y="0.0" type="line" smooth="yes"/>
      <point x="122.0" y="0.0"/>
      <point x="117.0" y="8.0"/>
      <point x="121.0" y="24.0" type="curve" smooth="yes"/>
      <point x="433.0" y="1376.0" type="line" smooth="yes"/>
      <point x="437.0" y="1392.0"/>
      <point x="445.0" y="1400.0"/>
      <point x="461.0" y="1400.0" type="curve" smooth="yes"/>
      <point x="850.0" y="1400.0" type="line" smooth="yes"/>
      <point x="1081.0" y="1400.0"/>
      <point x="1193.84615385" y="1322.23076923"/>
      <point x="1142.0" y="1063.0" type="curve" smooth="yes"/>
      <point x="1139.0" y="1048.0" type="line" smooth="yes"/>
      <point x="1096.46153846" y="835.307692308"/>
      <point x="924.0" y="710.0"/>
      <point x="693.0" y="710.0" type="curve"/>
    </contour>
    <contour>
      <point x="697.0" y="700.0" type="curve" smooth="yes"/>
      <point x="307.0" y="700.0" type="line"/>
      <point x="152.0" y="30.0" type="line"/>
      <point x="551.0" y="30.0" type="line" smooth="yes"/>
      <point x="764.0" y="30.0"/>
      <point x="929.81458495" y="91.8138091544"/>
      <point x="987.0" y="342.0" type="curve" smooth="yes"/>
      <point x="995.0" y="377.0" type="line" smooth="yes"/>
      <point x="1051.83785881" y="625.665632273"/>
      <point x="910.0" y="700.0"/>
    </contour>
  </outline>
</glyph>
<glyph name="D" format="2">
  <advance height="1872" width="1229"/>
  <unicode hex="0044"/>
  <anchor x="465.0" y="0.0" name="bottom"/>
  <anchor x="807.0" y="1400.0" name="top"/>
  <outline>
    <contour>
      <point x="495.0" y="0.0" type="curve" smooth="yes"/>
      <point x="127.0" y="0.0" type="line" smooth="yes"/>
      <point x="110.0" y="0.0"/>
      <point x="101.174157303" y="14.4213483146"/>
      <point x="105.0" y="31.0" type="curve" smooth="yes"/>
      <point x="414.0" y="1370.0" type="line" smooth="yes"/>
      <point x="419.361793112" y="1393.22305297"/>
      <point x="433.0" y="1400.0"/>
      <point x="449.0" y="1400.0" type="curve" smooth="yes"/>
      <point x="818.0" y="1400.0" type="line" smooth="yes"/>
      <point x="1093.0" y="1400.0"/>
      <point x="1236.0" y="1165.0"/>
      <point x="1151.0" y="795.0" type="curve" smooth="yes"/>
      <point x="1107.0" y="606.0" type="line" smooth="yes"/>
      <point x="1022.0" y="236.0"/>
      <point x="805.0" y="0.0"/>
    </contour>
    <contour>
      <point x="502.0" y="30.0" type="line" smooth="yes"/>
      <point x="786.0" y="30.0"/>
      <point x="1000.24408455" y="273.554001472"/>
      <point x="1077.0" y="605.0" type="curve" smooth="yes"/>
      <point x="1121.0" y="795.0" type="line" smooth="yes"/>
      <point x="1206.66557998" y="1164.9195499"/>
      <point x="1068.0" y="1370.0"/>
      <point x="811.0" y="1370.0" type="curve" smooth="yes"/>
      <point x="444.0" y="1370.0" type="line"/>
      <point x="135.0" y="30.0" type="line"/>
    </contour>
  </outline>
</glyph>
<glyph name="E" format="2">
  <advance height="1872" width="1162"/>
  <unicode hex="0045"/>
  <anchor x="515.0" y="0.0" name="bottom"/>
  <anchor x="916.0" y="0.0" name="ogonek"/>
  <anchor x="837.0" y="1400.0" name="top"/>
  <outline>
    <contour>
      <point x="297.0" y="730.0" type="line"/>
      <point x="829.0" y="730.0" type="line" smooth="yes"/>
      <point x="838.0" y="730.0"/>
      <point x="842.0" y="723.0"/>
      <point x="842.0" y="716.0" type="curve" smooth="yes"/>
      <point x="842.0" y="714.0" type="line" smooth="yes"/>
      <point x="842.0" y="707.0"/>
      <point x="837.0" y="700.0"/>
      <point x="827.0" y="700.0" type="curve" smooth="yes"/>
      <point x="290.0" y="700.0" type="line"/>
      <point x="135.0" y="30.0" type="line"/>
      <point x="924.0" y="30.0" type="line" smooth="yes"/>
      <point x="931.0" y="30.0"/>
      <point x="939.0" y="26.0"/>
      <point x="939.0" y="15.0" type="curve" smooth="yes"/>
      <point x="939.0" y="14.0" type="line" smooth="yes"/>
      <point x="939.0" y="4.0"/>
      <point x="930.0" y="0.0"/>
      <point x="923.0" y="0.0" type="curve" smooth="yes"/>
      <point x="107.0" y="0.0" type="line" smooth="yes"/>
      <point x="100.0" y="0.0"/>
      <point x="98.0" y="3.0"/>
      <point x="100.0" y="10.0" type="curve" smooth="yes"/>
      <point x="414.0" y="1368.0" type="line" smooth="yes"/>
      <point x="420.027669913" y="1394.06871255"/>
      <point x="433.0" y="1400.0"/>
      <point x="460.0" y="1400.0" type="curve" smooth="yes"/>
      <point x="1220.0" y="1400.0" type="line" smooth="yes"/>
      <point x="1228.0" y="1400.0"/>
      <point x="1235.0" y="1395.0"/>
      <point x="1235.0" y="1386.0" type="curve" smooth="yes"/>
      <point x="1235.0" y="1385.0" type="line" smooth="yes"/>
      <point x="1235.0" y="1375.0"/>
      <point x="1225.0" y="1370.0"/>
      <point x="1218.0" y="1370.0" type="curve" smooth="yes"/>
      <point x="444.0" y="1370.0" type="line"/>
    </contour>
  </outline>
</glyph>
<glyph name="F" format="2">
  <advance height="1872" width="1066"/>
  <unicode hex="0046"/>
  <anchor x="525.0" y="0.0" name="bottom"/>
  <anchor x="847.0" y="1400.0" name="top"/>
  <outline>
    <contour>
      <point x="297.0" y="730.0" type="line"/>
      <point x="750.0" y="730.0" type="line" smooth="yes"/>
      <point x="758.0" y="730.0"/>
      <point x="766.0" y="726.0"/>
      <point x="766.0" y="716.0" type="curve" smooth="yes"/>
      <point x="766.0" y="715.0" type="line" smooth="yes"/>
      <point x="766.0" y="705.0"/>
      <point x="757.0" y="700.0"/>
      <point x="749.0" y="700.0" type="curve" smooth="yes"/>
      <point x="290.0" y="700.0" type="line"/>
      <point x="131.0" y="14.0" type="line" smooth="yes"/>
      <point x="127.378646318" y="-1.62420519605"/>
      <point x="123.0" y="-10.0"/>
      <point x="114.0" y="-10.0" type="curve" smooth="yes"/>
      <point x="113.0" y="-10.0" type="line" smooth="yes"/>
      <point x="105.0" y="-10.0"/>
      <point x="97.6084644135" y="-0.678478776087"/>
      <point x="101.0" y="14.0" type="curve" smooth="yes"/>
      <point x="412.0" y="1360.0" type="line" smooth="yes"/>
      <point x="419.560764312" y="1392.71484558"/>
      <point x="428.0" y="1400.0"/>
      <point x="460.0" y="1400.0" type="curve" smooth="yes"/>
      <point x="1180.0" y="1400.0" type="line" smooth="yes"/>
      <point x="1190.0" y="1400.0"/>
      <point x="1196.0" y="1396.0"/>
      <point x="1196.0" y="1386.0" type="curve" smooth="yes"/>
      <point x="1196.0" y="1385.0" type="line" smooth="yes"/>
      <point x="1196.0" y="1375.0"/>
      <point x="1190.0" y="1370.0"/>
      <point x="1180.0" y="1370.0" type="curve" smooth="yes"/>
      <point x="444.0" y="1370.0" type="line"/>
    </contour>
  </outline>
</glyph>
<glyph name="G" format="2">
  <advance height="1872" width="1223"/>
  <unicode hex="0047"/>
  <anchor x="505.0" y="0.0" name="bottom"/>
  <anchor x="847.0" y="1400.0" name="top"/>
  <outline>
    <contour>
      <point x="718.0" y="640.0" type="curve" smooth="yes"/>
      <point x="718.0" y="641.0" type="line" smooth="yes"/>
      <point x="718.0" y="648.0"/>
      <point x="724.0" y="655.0"/>
      <point x="735.0" y="655.0" type="curve" smooth="yes"/>
      <point x="1088.0" y="655.0" type="line" smooth="yes"/>
      <point x="1107.0" y="655.0"/>
      <point x="1116.58975728" y="648.169795548"/>
      <point x="1111.0" y="624.0" type="curve" smooth="yes"/>
      <point x="969.0" y="10.0" type="line" smooth="yes"/>
      <point x="967.0" y="3.0"/>
      <point x="964.0" y="-3.0"/>
      <point x="957.0" y="-3.0" type="curve" smooth="yes"/>
      <point x="956.0" y="-3.0" type="line" smooth="yes"/>
      <point x="949.0" y="-3.0"/>
      <point x="945.0" y="3.0"/>
      <point x="947.0" y="10.0" type="curve" smooth="yes"/>
      <point x="1073.0" y="586.0" type="line"/>
      <point x="1100.0" y="621.0" type="line"/>
      <point x="990.0" y="227.0"/>
      <point x="747.0" y="-34.0"/>
      <point x="461.0" y="-34.0" type="curve" smooth="yes"/>
      <point x="134.0" y="-34.0"/>
      <point x="26.0" y="231.0"/>
      <point x="113.0" y="606.0" type="curve" smooth="yes"/>
      <point x="157.0" y="795.0" type="line" smooth="yes"/>
      <point x="243.0" y="1169.0"/>
      <point x="490.0" y="1434.0"/>
      <point x="827.0" y="1434.0" type="curve" smooth="yes"/>
      <point x="996.0" y="1434.0"/>
      <point x="1123.0" y="1342.0"/>
      <point x="1167.0" y="1210.0" type="curve" smooth="yes"/>
      <point x="1192.0" y="1134.0"/>
      <point x="1197.0" y="1045.0"/>
      <point x="1180.0" y="968.0" type="curve" smooth="yes"/>
      <point x="1178.0" y="959.0"/>
      <point x="1173.0" y="952.0"/>
      <point x="1164.0" y="952.0" type="curve" smooth="yes"/>
      <point x="1163.0" y="952.0" type="line" smooth="yes"/>
      <point x="1155.0" y="952.0"/>
      <point x="1149.0" y="959.0"/>
      <point x="1151.0" y="968.0" type="curve" smooth="yes"/>
      <point x="1199.0" y="1212.0"/>
      <point x="1072.0" y="1404.0"/>
      <point x="830.0" y="1404.0" type="curve" smooth="yes"/>
      <point x="503.0" y="1404.0"/>
      <point x="266.0" y="1137.0"/>
      <point x="187.0" y="795.0" type="curve" smooth="yes"/>
      <point x="143.0" y="606.0" type="line" smooth="yes"/>
      <point x="59.0" y="243.0"/>
      <point x="158.0" y="-4.0"/>
      <point x="467.0" y="-4.0" type="curve" smooth="yes"/>
      <point x="657.0" y="-4.0"/>
      <point x="948.0" y="154.0"/>
      <point x="1083.0" y="645.0" type="curve"/>
      <point x="1089.0" y="625.0" type="line"/>
      <point x="736.0" y="625.0" type="line" smooth="yes"/>
      <point x="725.0" y="625.0"/>
      <point x="718.0" y="633.0"/>
    </contour>
  </outline>
</glyph>
<glyph name="H" format="2">
  <advance height="1872" width="1227"/>
  <unicode hex="0048"/>
  <anchor x="505.0" y="0.0" name="bottom"/>
  <anchor x="827.0" y="1400.0" name="top"/>
  <outline>
    <contour>
      <point x="1233.0" y="1403.0" type="curve" smooth="yes"/>
      <point x="1234.0" y="1403.0" type="line" smooth="yes"/>
      <point x="1246.0" y="1403.0"/>
      <point x="1247.0" y="1396.0"/>
      <point x="1244.0" y="1384.0" type="curve" smooth="yes"/>
      <point x="928.0" y="16.0" type="line" smooth="yes"/>
      <point x="925.0" y="4.0"/>
      <point x="921.0" y="-3.0"/>
      <point x="909.0" y="-3.0" type="curve" smooth="yes"/>
      <point x="908.0" y="-3.0" type="line" smooth="yes"/>
      <point x="896.0" y="-3.0"/>
      <point x="895.0" y="4.0"/>
      <point x="898.0" y="16.0" type="curve" smooth="yes"/>
      <point x="1056.0" y="700.0" type="line"/>
      <point x="272.0" y="700.0" type="line"/>
      <point x="114.0" y="16.0" type="line" smooth="yes"/>
      <point x="111.0" y="4.0"/>
      <point x="106.0" y="-3.0"/>
      <point x="94.0" y="-3.0" type="curve" smooth="yes"/>
      <point x="93.0" y="-3.0" type="line" smooth="yes"/>
      <point x="81.0" y="-3.0"/>
      <point x="81.0" y="4.0"/>
      <point x="84.0" y="16.0" type="curve" smooth="yes"/>
      <point x="400.0" y="1384.0" type="line" smooth="yes"/>
      <point x="403.0" y="1396.0"/>
      <point x="407.0" y="1403.0"/>
      <point x="419.0" y="1403.0" type="curve" smooth="yes"/>
      <point x="420.0" y="1403.0" type="line" smooth="yes"/>
      <point x="432.0" y="1403.0"/>
      <point x="433.0" y="1396.0"/>
      <point x="430.0" y="1384.0" type="curve" smooth="yes"/>
      <point x="279.0" y="730.0" type="line"/>
      <point x="1063.0" y="730.0" type="line"/>
      <point x="1214.0" y="1384.0" type="line" smooth="yes"/>
      <point x="1217.0" y="1396.0"/>
      <point x="1221.0" y="1403.0"/>
    </contour>
  </outline>
</glyph>
<glyph name="I" format="2">
  <advance height="1872" width="506"/>
  <unicode hex="0049"/>
  <anchor x="130.0" y="0.0" name="bottom"/>
  <anchor x="130.0" y="0.0" name="ogonek"/>
  <anchor x="452.0" y="1400.0" name="top"/>
  <outline>
    <contour>
      <point x="443.0" y="1403.0" type="curve" smooth="yes"/>
      <point x="445.0" y="1403.0" type="line" smooth="yes"/>
      <point x="456.0" y="1403.0"/>
      <point x="458.0" y="1397.0"/>
      <point x="455.0" y="1384.0" type="curve" smooth="yes"/>
      <point x="139.0" y="16.0" type="line" smooth="yes"/>
      <point x="136.0" y="3.0"/>
      <point x="131.0" y="-3.0"/>
      <point x="120.0" y="-3.0" type="curve" smooth="yes"/>
      <point x="118.0" y="-3.0" type="line" smooth="yes"/>
      <point x="107.0" y="-3.0"/>
      <point x="106.0" y="3.0"/>
      <point x="109.0" y="16.0" type="curve" smooth="yes"/>
      <point x="425.0" y="1384.0" type="line" smooth="yes"/>
      <point x="428.0" y="1397.0"/>
      <point x="432.0" y="1403.0"/>
    </contour>
  </outline>
</glyph>
<glyph name="K" format="2">
  <advance height="1872" width="1138"/>
  <unicode hex="004B"/>
  <anchor x="465.0" y="0.0" name="bottom"/>
  <anchor x="777.0" y="1400.0" name="top"/>
  <outline>
    <contour>
      <point x="418.0" y="1403.0" type="curve" smooth="yes"/>
      <point x="420.0" y="1403.0" type="line" smooth="yes"/>
      <point x="431.0" y="1403.0"/>
      <point x="433.0" y="1397.0"/>
      <point x="430.0" y="1384.0" type="curve" smooth="yes"/>
      <point x="114.0" y="16.0" type="line" smooth="yes"/>
      <point x="111.0" y="3.0"/>
      <point x="106.0" y="-3.0"/>
      <point x="95.0" y="-3.0" type="curve" smooth="yes"/>
      <point x="93.0" y="-3.0" type="line" smooth="yes"/>
      <point x="82.0" y="-3.0"/>
      <point x="81.0" y="3.0"/>
      <point x="84.0" y="16.0" type="curve" smooth="yes"/>
      <point x="400.0" y="1384.0" type="line" smooth="yes"/>
      <point x="403.0" y="1397.0"/>
      <point x="407.0" y="1403.0"/>
    </contour>
    <contour>
      <point x="555.0" y="826.0" type="line"/>
      <point x="582.0" y="847.0" type="line"/>
      <point x="919.0" y="20.0" type="line" smooth="yes"/>
      <point x="924.74697366" y="5.89689253139"/>
      <point x="918.0" y="-3.0"/>
      <point x="905.0" y="-3.0" type="curve" smooth="yes"/>
      <point x="903.0" y="-3.0" type="line" smooth="yes"/>
      <point x="894.0" y="-3.0"/>
      <point x="888.740504309" y="2.30003191829"/>
      <point x="884.0" y="14.0" type="curve" smooth="yes"/>
    </contour>
    <contour>
      <point x="1196.0" y="1388.0" type="line" smooth="yes"/>
      <point x="1206.0" y="1396.0"/>
      <point x="1214.0" y="1403.0"/>
      <point x="1222.0" y="1403.0" type="curve" smooth="yes"/>
      <point x="1223.0" y="1403.0" type="line" smooth="yes"/>
      <point x="1233.0" y="1403.0"/>
      <point x="1243.0" y="1393.0"/>
      <point x="1228.0" y="1381.0" type="curve" smooth="yes"/>
      <point x="584.0" y="826.0" type="line"/>
      <point x="572.0" y="816.0" type="line"/>
      <point x="208.0" y="513.0" type="line"/>
      <point x="216.0" y="556.0" type="line"/>
    </contour>
  </outline>
</glyph>
<glyph name="L" format="2">
  <advance height="1872" width="1011"/>
  <unicode hex="004C"/>
  <anchor x="525.0" y="0.0" name="bottom"/>
  <anchor x="467.0" y="1400.0" name="top"/>
  <outline>
    <contour>
      <point x="418.0" y="1403.0" type="curve" smooth="yes"/>
      <point x="420.0" y="1403.0" type="line" smooth="yes"/>
      <point x="430.0" y="1403.0"/>
      <point x="432.0" y="1397.0"/>
      <point x="429.0" y="1383.0" type="curve" smooth="yes"/>
      <point x="117.0" y="30.0" type="line"/>
      <point x="803.0" y="30.0" type="line" smooth="yes"/>
      <point x="816.0" y="30.0"/>
      <point x="821.0" y="26.0"/>
      <point x="821.0" y="16.0" type="curve" smooth="yes"/>
      <point x="821.0" y="15.0" type="line" smooth="yes"/>
      <point x="821.0" y="5.0"/>
      <point x="816.0" y="0.0"/>
      <point x="803.0" y="0.0" type="curve" smooth="yes"/>
      <point x="101.0" y="0.0" type="line" smooth="yes"/>
      <point x="87.0" y="0.0"/>
      <point x="82.0" y="7.0"/>
      <point x="85.0" y="21.0" type="curve" smooth="yes"/>
      <point x="399.0" y="1383.0" type="line" smooth="yes"/>
      <point x="402.0" y="1397.0"/>
      <point x="409.0" y="1403.0"/>
    </contour>
  </outline>
</glyph>
<glyph name="M" format="2">
  <advance height="1872" width="1422"/>
  <unicode hex="004D"/>
  <anchor x="652.0" y="0.0" name="bottom"/>
  <anchor x="957.0" y="1400.0" name="top"/>
  <outline>
    <contour>
      <point x="409.0" y="1336.0" type="line"/>
      <point x="105.0" y="17.0" type="line" smooth="yes"/>
      <point x="102.0" y="4.0"/>
      <point x="97.0" y="-3.0"/>
      <point x="86.0" y="-3.0" type="curve" smooth="yes"/>
      <point x="85.0" y="-3.0" type="line" smooth="yes"/>
      <point x="74.0" y="-3.0"/>
      <point x="73.0" y="4.0"/>
      <point x="76.0" y="17.0" type="curve" smooth="yes"/>
      <point x="391.0" y="1382.0" type="line" smooth="yes"/>
      <point x="394.0" y="1394.0"/>
      <point x="401.0" y="1401.0"/>
      <point x="413.0" y="1401.0" type="curve" smooth="yes"/>
      <point x="417.0" y="1401.0" type="line" smooth="yes"/>
      <point x="428.0" y="1401.0"/>
      <point x="434.0" y="1396.0"/>
      <point x="436.0" y="1383.0" type="curve" smooth="yes"/>
      <point x="636.0" y="44.0" type="line"/>
      <point x="1428.0" y="1381.0" type="line" smooth="yes"/>
      <point x="1437.09403507" y="1396.35192537"/>
      <point x="1442.0" y="1401.0"/>
      <point x="1454.0" y="1401.0" type="curve" smooth="yes"/>
      <point x="1456.0" y="1401.0" type="line" smooth="yes"/>
      <point x="1470.0" y="1401.0"/>
      <point x="1477.0" y="1395.0"/>
      <point x="1474.0" y="1383.0" type="curve" smooth="yes"/>
      <point x="1161.0" y="16.0" type="line" smooth="yes"/>
      <point x="1158.0" y="4.0"/>
      <point x="1153.0" y="-3.0"/>
      <point x="1142.0" y="-3.0" type="curve" smooth="yes"/>
      <point x="1141.0" y="-3.0" type="line" smooth="yes"/>
      <point x="1130.0" y="-3.0"/>
      <point x="1128.0" y="4.0"/>
      <point x="1131.0" y="16.0" type="curve" smooth="yes"/>
      <point x="1433.0" y="1336.0" type="line"/>
      <point x="652.0" y="14.0" type="line" smooth="yes"/>
      <point x="647.0" y="4.0"/>
      <point x="637.0" y="1.0"/>
      <point x="629.0" y="1.0" type="curve" smooth="yes"/>
      <point x="620.0" y="1.0" type="line" smooth="yes"/>
      <point x="612.0" y="1.0"/>
      <point x="606.493730474" y="3.92494037288"/>
      <point x="605.0" y="14.0" type="curve" smooth="yes"/>
    </contour>
  </outline>
</glyph>
<glyph name="N" format="2">
  <advance height="1872" width="1227"/>
  <unicode hex="004E"/>
  <anchor x="565.0" y="0.0" name="bottom"/>
  <anchor x="897.0" y="1400.0" name="top"/>
  <outline>
    <contour>
      <point x="1268.0" y="1403.0" type="curve" smooth="yes"/>
      <point x="1269.0" y="1403.0" type="line" smooth="yes"/>
      <point x="1280.0" y="1403.0"/>
      <point x="1285.0" y="1398.0"/>
      <point x="1282.0" y="1386.0" type="curve" smooth="yes"/>
      <point x="965.0" y="12.0" type="line" smooth="yes"/>
      <point x="962.0" y="1.0"/>
      <point x="957.0" y="-3.0"/>
      <point x="949.0" y="-3.0" type="curve" smooth="yes"/>
      <point x="937.0" y="-3.0" type="line" smooth="yes"/>
      <point x="928.0" y="-3.0"/>
      <point x="923.0" y="2.0"/>
      <point x="919.0" y="13.0" type="curve" smooth="yes"/>
      <point x="417.0" y="1379.0" type="line"/>
      <point x="428.0" y="1376.0" type="line"/>
      <point x="113.0" y="16.0" type="line" smooth="yes"/>
      <point x="110.0" y="4.0"/>
      <point x="107.0" y="-3.0"/>
      <point x="96.0" y="-3.0" type="curve" smooth="yes"/>
      <point x="95.0" y="-3.0" type="line" smooth="yes"/>
      <point x="84.0" y="-3.0"/>
      <point x="80.0" y="4.0"/>
      <point x="83.0" y="16.0" type="curve" smooth="yes"/>
      <point x="399.0" y="1382.0" type="line" smooth="yes"/>
      <point x="402.0" y="1395.0"/>
      <point x="410.0" y="1402.0"/>
      <point x="422.0" y="1402.0" type="curve" smooth="yes"/>
      <point x="426.0" y="1402.0" type="line" smooth="yes"/>
      <point x="437.0" y="1402.0"/>
      <point x="442.0" y="1396.0"/>
      <point x="448.0" y="1383.0" type="curve" smooth="yes"/>
      <point x="950.0" y="33.0" type="line"/>
      <point x="940.0" y="36.0" type="line"/>
      <point x="1252.0" y="1386.0" type="line" smooth="yes"/>
      <point x="1255.0" y="1398.0"/>
      <point x="1257.0" y="1403.0"/>
    </contour>
  </outline>
</glyph>
<glyph name="P" format="2">
  <advance height="1872" width="1141"/>
  <unicode hex="0050"/>
  <anchor x="115.0" y="0.0" name="bottom"/>
  <anchor x="787.0" y="1400.0" name="top"/>
  <outline>
    <contour>
      <point x="444.0" y="1370.0" type="line"/>
      <point x="286.0" y="684.0" type="line"/>
      <point x="647.0" y="684.0" type="line" smooth="yes"/>
      <point x="878.0" y="684.0"/>
      <point x="1015.0" y="736.0"/>
      <point x="1072.0" y="982.0" type="curve" smooth="yes"/>
      <point x="1089.0" y="1057.0" type="line" smooth="yes"/>
      <point x="1146.0" y="1303.0"/>
      <point x="1047.0" y="1370.0"/>
      <point x="805.0" y="1370.0" type="curve" smooth="yes"/>
    </contour>
    <contour>
      <point x="810.0" y="1400.0" type="line" smooth="yes"/>
      <point x="1062.0" y="1400.0"/>
      <point x="1181.0" y="1324.0"/>
      <point x="1119.0" y="1057.0" type="curve" smooth="yes"/>
      <point x="1102.0" y="982.0" type="line" smooth="yes"/>
      <point x="1040.0" y="715.0"/>
      <point x="889.0" y="654.0"/>
      <point x="639.0" y="654.0" type="curve" smooth="yes"/>
      <point x="279.0" y="654.0" type="line"/>
      <point x="131.0" y="14.0" type="line" smooth="yes"/>
      <point x="128.264340539" y="2.17012125032"/>
      <point x="121.0" y="-3.0"/>
      <point x="114.0" y="-3.0" type="curve" smooth="yes"/>
      <point x="113.0" y="-3.0" type="line" smooth="yes"/>
      <point x="106.0" y="-3.0"/>
      <point x="98.4858441751" y="3.11879826266"/>
      <point x="101.0" y="14.0" type="curve" smooth="yes"/>
      <point x="412.0" y="1360.0" type="line" smooth="yes"/>
      <point x="420.218942789" y="1395.56273322"/>
      <point x="423.0" y="1400.0"/>
      <point x="460.0" y="1400.0" type="curve" smooth="yes"/>
    </contour>
  </outline>
</glyph>
<glyph name="Q" format="2">
  <advance height="1872" width="1438"/>
  <unicode hex="0051"/>
  <anchor x="561.0" y="0.0" name="bottom"/>
  <anchor x="883.0" y="1400.0" name="top"/>
  <outline>
    <contour>
      <point x="1279.0" y="16.0" type="curve" smooth="yes"/>
      <point x="1279.0" y="15.0" type="line" smooth="yes"/>
      <point x="1279.0" y="6.0"/>
      <point x="1274.0" y="0.0"/>
      <point x="1262.0" y="-3.0" type="curve" smooth="yes"/>
      <point x="1046.0" y="-54.0"/>
      <point x="1053.0" y="128.0"/>
      <point x="1113.0" y="387.0" type="curve"/>
      <point x="1178.0" y="573.0" type="line"/>
      <point x="1099.0" y="232.0"/>
      <point x="877.0" y="-34.0"/>
      <point x="506.0" y="-34.0" type="curve" smooth="yes"/>
      <point x="160.0" y="-34.0"/>
      <point x="67.0" y="261.0"/>
      <point x="146.0" y="602.0" type="curve" smooth="yes"/>
      <point x="191.0" y="799.0" type="line" smooth="yes"/>
      <point x="270.0" y="1141.0"/>
      <point x="491.0" y="1434.0"/>
      <point x="862.0" y="1434.0" type="curve" smooth="yes"/>
      <point x="1233.0" y="1434.0"/>
      <point x="1319.0" y="1151.0"/>
      <point x="1240.0" y="809.0" type="curve" smooth="yes"/>
      <point x="1127.0" y="320.0" type="line" smooth="yes"/>
      <point x="1072.22131089" y="82.9488586288"/>
      <point x="1122.0" y="-11.0"/>
      <point x="1262.0" y="28.0" type="curve" smooth="yes"/>
      <point x="1274.18514745" y="31.3944339314"/>
      <point x="1279.0" y="23.0"/>
    </contour>
    <contour>
      <point x="1149.0" y="544.0" type="curve" smooth="yes"/>
      <point x="1210.0" y="809.0" type="line" smooth="yes"/>
      <point x="1280.0" y="1112.0"/>
      <point x="1211.0" y="1404.0"/>
      <point x="867.0" y="1404.0" type="curve" smooth="yes"/>
      <point x="523.0" y="1404.0"/>
      <point x="296.0" y="1122.0"/>
      <point x="222.0" y="800.0" type="curve" smooth="yes"/>
      <point x="176.0" y="601.0" type="line" smooth="yes"/>
      <point x="102.0" y="281.0"/>
      <point x="175.0" y="-4.0"/>
      <point x="520.0" y="-4.0" type="curve" smooth="yes"/>
      <point x="839.0" y="-4.0"/>
      <point x="1082.0" y="252.0"/>
    </contour>
  </outline>
</glyph>
<glyph name="R" format="2">
  <advance height="1872" width="1231"/>
  <unicode hex="0052"/>
  <anchor x="525.0" y="0.0" name="bottom"/>
  <anchor x="827.0" y="1400.0" name="top"/>
  <outline>
    <contour>
      <point x="444.0" y="1370.0" type="line"/>
      <point x="295.0" y="725.0" type="line"/>
      <point x="708.0" y="725.0" type="line" smooth="yes"/>
      <point x="871.0" y="725.0"/>
      <point x="1041.0" y="816.0"/>
      <point x="1084.0" y="1003.0" type="curve" smooth="yes"/>
      <point x="1094.0" y="1048.0" type="line" smooth="yes"/>
      <point x="1142.0" y="1254.0"/>
      <point x="1074.0" y="1370.0"/>
      <point x="857.0" y="1370.0" type="curve" smooth="yes"/>
    </contour>
    <contour>
      <point x="864.0" y="1400.0" type="line" smooth="yes"/>
      <point x="1081.0" y="1400.0"/>
      <point x="1176.0" y="1274.0"/>
      <point x="1124.0" y="1047.0" type="curve" smooth="yes"/>
      <point x="1116.0" y="1014.0" type="line" smooth="yes"/>
      <point x="1061.13096271" y="787.665221162"/>
      <point x="911.0" y="710.0"/>
      <point x="705.0" y="710.0" type="curve"/>
      <point x="707.0" y="720.0" type="line"/>
      <point x="930.0" y="720.0"/>
      <point x="1025.0" y="663.0"/>
      <point x="971.0" y="429.0" type="curve" smooth="yes"/>
      <point x="947.0" y="323.0" type="line" smooth="yes"/>
      <point x="921.0" y="209.0"/>
      <point x="921.516433202" y="90.208916995"/>
      <point x="948.0" y="24.0" type="curve" smooth="yes"/>
      <point x="952.0" y="14.0"/>
      <point x="952.0" y="12.0"/>
      <point x="952.0" y="10.0" type="curve" smooth="yes"/>
      <point x="952.0" y="9.0" type="line" smooth="yes"/>
      <point x="952.0" y="1.0"/>
      <point x="944.0" y="-4.0"/>
      <point x="936.0" y="-4.0" type="curve" smooth="yes"/>
      <point x="935.0" y="-4.0" type="line" smooth="yes"/>
      <point x="927.0" y="-4.0"/>
      <point x="920.0" y="0.0"/>
      <point x="917.0" y="9.0" type="curve" smooth="yes"/>
      <point x="889.0" y="105.0"/>
      <point x="885.0" y="195.0"/>
      <point x="915.0" y="323.0" type="curve" smooth="yes"/>
      <point x="939.0" y="430.0" type="line" smooth="yes"/>
      <point x="993.0" y="662.0"/>
      <point x="893.0" y="704.0"/>
      <point x="704.0" y="704.0" type="curve" smooth="yes"/>
      <point x="291.0" y="704.0" type="line"/>
      <point x="130.0" y="10.0" type="line" smooth="yes"/>
      <point x="127.696451827" y="0.0704196770018"/>
      <point x="120.0" y="-5.0"/>
      <point x="113.0" y="-5.0" type="curve" smooth="yes"/>
      <point x="112.0" y="-5.0" type="line" smooth="yes"/>
      <point x="105.0" y="-5.0"/>
      <point x="97.946689731" y="1.47462963829"/>
      <point x="102.0" y="19.0" type="curve" smooth="yes"/>
      <point x="414.0" y="1368.0" type="line" smooth="yes"/>
      <point x="418.930231217" y="1389.32246495"/>
      <point x="428.0" y="1400.0"/>
      <point x="450.0" y="1400.0" type="curve" smooth="yes"/>
    </contour>
  </outline>
</glyph>
<glyph name="S" format="2">
  <advance height="1872" width="1133"/>
  <unicode hex="0053"/>
  <anchor x="449.0" y="-25.0" name="bottom"/>
  <anchor x="777.0" y="1400.0" name="top"/>
  <outline>
    <contour>
      <point x="141.0" y="512.0" type="curve" smooth="yes"/>
      <point x="142.0" y="512.0" type="line" smooth="yes"/>
      <point x="152.0" y="512.0"/>
      <point x="158.0" y="503.0"/>
      <point x="155.0" y="491.0" type="curve" smooth="yes"/>
      <point x="148.764428419" y="466.057713676"/>
      <point x="147.804152948" y="451.793214851"/>
      <point x="141.0" y="427.0" type="curve" smooth="yes"/>
      <point x="68.0" y="161.0"/>
      <point x="153.0" y="-4.0"/>
      <point x="447.0" y="-4.0" type="curve" smooth="yes"/>
      <point x="693.0" y="-4.0"/>
      <point x="876.0" y="106.0"/>
      <point x="929.0" y="336.0" type="curve" smooth="yes"/>
      <point x="985.0" y="577.0"/>
      <point x="772.0" y="617.0"/>
      <point x="625.0" y="680.0" type="curve" smooth="yes"/>
      <point x="441.0" y="759.0"/>
      <point x="243.0" y="835.0"/>
      <point x="299.0" y="1078.0" type="curve" smooth="yes"/>
      <point x="349.0" y="1296.0"/>
      <point x="525.0" y="1434.0"/>
      <point x="766.0" y="1434.0" type="curve" smooth="yes"/>
      <point x="1048.0" y="1434.0"/>
      <point x="1118.0" y="1259.0"/>
      <point x="1069.0" y="1046.0" type="curve" smooth="yes"/>
      <point x="1053.0" y="977.0" type="line" smooth="yes"/>
      <point x="1049.3771178" y="961.37632051"/>
      <point x="1044.0" y="956.0"/>
      <point x="1035.0" y="956.0" type="curve" smooth="yes"/>
      <point x="1034.0" y="956.0" type="line" smooth="yes"/>
      <point x="1027.0" y="956.0"/>
      <point x="1019.0" y="961.0"/>
      <point x="1023.0" y="977.0" type="curve" smooth="yes"/>
      <point x="1029.47165767" y="1002.88663066"/>
      <point x="1030.26019618" y="1006.94047498"/>
      <point x="1037.0" y="1037.0" type="curve" smooth="yes"/>
      <point x="1087.0" y="1260.0"/>
      <point x="1015.0" y="1404.0"/>
      <point x="759.0" y="1404.0" type="curve" smooth="yes"/>
      <point x="556.0" y="1404.0"/>
      <point x="382.0" y="1285.0"/>
      <point x="334.0" y="1078.0" type="curve" smooth="yes"/>
      <point x="281.0" y="850.0"/>
      <point x="478.0" y="776.0"/>
      <point x="647.0" y="708.0" type="curve" smooth="yes"/>
      <point x="828.0" y="634.0"/>
      <point x="1021.0" y="581.0"/>
      <point x="964.0" y="336.0" type="curve" smooth="yes"/>
      <point x="907.0" y="90.0"/>
      <point x="734.0" y="-34.0"/>
      <point x="440.0" y="-34.0" type="curve" smooth="yes"/>
      <point x="130.0" y="-34.0"/>
      <point x="46.0" y="148.0"/>
      <point x="100.0" y="381.0" type="curve" smooth="yes"/>
      <point x="125.0" y="491.0" type="line" smooth="yes"/>
      <point x="128.339882122" y="505.695481336"/>
      <point x="133.0" y="512.0"/>
    </contour>
  </outline>
</glyph>
<glyph name="T" format="2">
  <advance height="1872" width="1071"/>
  <unicode hex="0054"/>
  <anchor x="440.0" y="0.0" name="bottom"/>
  <anchor x="762.0" y="1400.0" name="top"/>
  <outline>
    <contour>
      <point x="248.0" y="1400.0" type="curve" smooth="yes"/>
      <point x="1223.0" y="1400.0" type="line" smooth="yes"/>
      <point x="1236.0" y="1400.0"/>
      <point x="1241.0" y="1395.0"/>
      <point x="1241.0" y="1385.0" type="curve" smooth="yes"/>
      <point x="1241.0" y="1384.0" type="line" smooth="yes"/>
      <point x="1241.0" y="1374.0"/>
      <point x="1236.0" y="1370.0"/>
      <point x="1223.0" y="1370.0" type="curve" smooth="yes"/>
      <point x="744.0" y="1370.0" type="line"/>
      <point x="432.0" y="16.0" type="line" smooth="yes"/>
      <point x="429.0" y="3.0"/>
      <point x="424.0" y="-3.0"/>
      <point x="413.0" y="-3.0" type="curve" smooth="yes"/>
      <point x="411.0" y="-3.0" type="line" smooth="yes"/>
      <point x="400.0" y="-3.0"/>
      <point x="399.0" y="3.0"/>
      <point x="402.0" y="16.0" type="curve" smooth="yes"/>
      <point x="714.0" y="1370.0" type="line"/>
      <point x="248.0" y="1370.0" type="line" smooth="yes"/>
      <point x="235.0" y="1370.0"/>
      <point x="230.0" y="1374.0"/>
      <point x="230.0" y="1384.0" type="curve" smooth="yes"/>
      <point x="230.0" y="1385.0" type="line" smooth="yes"/>
      <point x="230.0" y="1395.0"/>
      <point x="235.0" y="1400.0"/>
    </contour>
  </outline>
</glyph>
<glyph name="U" format="2">
  <advance height="1872" width="1236"/>
  <unicode hex="0055"/>
  <anchor x="515.0" y="0.0" name="bottom"/>
  <anchor x="680.0" y="0.0" name="ogonek"/>
  <anchor x="837.0" y="1400.0" name="top"/>
  <outline>
    <contour>
      <point x="977.0" y="472.0" type="curve" smooth="yes"/>
      <point x="1187.0" y="1381.0" type="line" smooth="yes"/>
      <point x="1190.82973663" y="1397.57728857"/>
      <point x="1194.0" y="1405.0"/>
      <point x="1204.0" y="1405.0" type="curve" smooth="yes"/>
      <point x="1205.0" y="1405.0" type="line" smooth="yes"/>
      <point x="1215.0" y="1405.0"/>
      <point x="1220.60301818" y="1396.63048467"/>
      <point x="1217.0" y="1381.0" type="curve" smooth="yes"/>
      <point x="1010.0" y="483.0" type="line" smooth="yes"/>
      <point x="938.0" y="172.0"/>
      <point x="826.0" y="-34.0"/>
      <point x="483.0" y="-34.0" type="curve" smooth="yes"/>
      <point x="149.0" y="-34.0"/>
      <point x="141.0" y="170.0"/>
      <point x="226.0" y="540.0" type="curve" smooth="yes"/>
      <point x="419.0" y="1377.0" type="line" smooth="yes"/>
      <point x="422.823022751" y="1393.57963753"/>
      <point x="426.0" y="1405.0"/>
      <point x="437.0" y="1405.0" type="curve" smooth="yes"/>
      <point x="438.0" y="1405.0" type="line" smooth="yes"/>
      <point x="454.0" y="1405.0"/>
      <point x="452.957017828" y="1389.77854133"/>
      <point x="450.0" y="1377.0" type="curve" smooth="yes"/>
      <point x="254.0" y="530.0" type="line" smooth="yes"/>
      <point x="182.0" y="220.0"/>
      <point x="160.0" y="-4.0"/>
      <point x="485.0" y="-4.0" type="curve" smooth="yes"/>
      <point x="791.0" y="-4.0"/>
      <point x="910.0" y="182.0"/>
    </contour>
  </outline>
</glyph>
<glyph name="V" format="2">
  <advance height="1872" width="1129"/>
  <unicode hex="0056"/>
  <anchor x="475.0" y="0.0" name="bottom"/>
  <anchor x="797.0" y="1400.0" name="top"/>
  <outline>
    <contour>
      <point x="463.0" y="46.0" type="line"/>
      <point x="1200.0" y="1381.0" type="line" smooth="yes"/>
      <point x="1207.47048758" y="1394.53202296"/>
      <point x="1212.0" y="1405.0"/>
      <point x="1225.0" y="1405.0" type="curve" smooth="yes"/>
      <point x="1226.0" y="1405.0" type="line" smooth="yes"/>
      <point x="1239.0" y="1405.0"/>
      <point x="1244.82818435" y="1391.41778454"/>
      <point x="1239.0" y="1381.0" type="curve" smooth="yes"/>
      <point x="472.0" y="10.0" type="line" smooth="yes"/>
      <point x="465.31963832" y="-1.94103763073"/>
      <point x="460.0" y="-5.0"/>
      <point x="454.0" y="-5.0" type="curve" smooth="yes"/>
      <point x="453.0" y="-5.0" type="line" smooth="yes"/>
      <point x="447.0" y="-5.0"/>
      <point x="439.93288627" y="0.993048760268"/>
      <point x="439.0" y="10.0" type="curve" smooth="yes"/>
      <point x="297.0" y="1381.0" type="line" smooth="yes"/>
      <point x="295.349790636" y="1396.93265519"/>
      <point x="306.0" y="1405.0"/>
      <point x="314.0" y="1405.0" type="curve" smooth="yes"/>
      <point x="315.0" y="1405.0" type="line" smooth="yes"/>
      <point x="328.0" y="1405.0"/>
      <point x="331.842437296" y="1392.88727854"/>
      <point x="333.0" y="1381.0" type="curve" smooth="yes"/>
    </contour>
  </outline>
</glyph>
<glyph name="W" format="2">
  <advance height="1872" width="1597"/>
  <unicode hex="0057"/>
  <anchor x="723.0" y="0.0" name="bottom"/>
  <anchor x="1045.0" y="1400.0" name="top"/>
  <outline>
    <contour>
      <point x="371.0" y="60.0" type="line"/>
      <point x="991.0" y="1381.0" type="line" smooth="yes"/>
      <point x="997.695428519" y="1395.26558238"/>
      <point x="1004.0" y="1403.0"/>
      <point x="1017.0" y="1403.0" type="curve" smooth="yes"/>
      <point x="1018.0" y="1403.0" type="line" smooth="yes"/>
      <point x="1032.0" y="1403.0"/>
      <point x="1037.62302821" y="1393.98984208"/>
      <point x="1038.0" y="1380.0" type="curve" smooth="yes"/>
      <point x="1074.0" y="44.0" type="line"/>
      <point x="1665.0" y="1381.0" type="line" smooth="yes"/>
      <point x="1671.77664881" y="1396.33059129"/>
      <point x="1678.0" y="1403.0"/>
      <point x="1684.0" y="1403.0" type="curve" smooth="yes"/>
      <point x="1685.0" y="1403.0" type="line" smooth="yes"/>
      <point x="1694.0" y="1403.0"/>
      <point x="1699.16836237" y="1395.04788173"/>
      <point x="1693.0" y="1381.0" type="curve" smooth="yes"/>
      <point x="1095.0" y="20.0" type="line" smooth="yes"/>
      <point x="1088.82848468" y="5.95412649751"/>
      <point x="1081.0" y="-3.0"/>
      <point x="1066.0" y="-3.0" type="curve" smooth="yes"/>
      <point x="1065.0" y="-3.0" type="line" smooth="yes"/>
      <point x="1052.0" y="-3.0"/>
      <point x="1046.42858259" y="4.01148843871"/>
      <point x="1046.0" y="20.0" type="curve" smooth="yes"/>
      <point x="1010.0" y="1363.0" type="line"/>
      <point x="386.0" y="20.0" type="line" smooth="yes"/>
      <point x="379.557764275" y="6.13473945805"/>
      <point x="374.0" y="-3.0"/>
      <point x="360.0" y="-3.0" type="curve" smooth="yes"/>
      <point x="358.0" y="-3.0" type="line" smooth="yes"/>
      <point x="346.0" y="-3.0"/>
      <point x="340.308692682" y="5.00635543757"/>
      <point x="340.0" y="20.0" type="curve" smooth="yes"/>
      <point x="312.0" y="1380.0" type="line" smooth="yes"/>
      <point x="311.713988083" y="1393.9941545"/>
      <point x="317.0" y="1403.0"/>
      <point x="329.0" y="1403.0" type="curve" smooth="yes"/>
      <point x="330.0" y="1403.0" type="line" smooth="yes"/>
      <point x="342.0" y="1403.0"/>
      <point x="345.735302133" y="1393.97604739"/>
      <point x="346.0" y="1380.0" type="curve" smooth="yes"/>
    </contour>
  </outline>
</glyph>
<glyph name="X" format="2">
  <advance height="1872" width="1128"/>
  <unicode hex="0058"/>
  <anchor x="475.0" y="0.0" name="bottom"/>
  <anchor x="797.0" y="1400.0" name="top"/>
  <outline>
    <contour>
      <point x="1174.0" y="1403.0" type="curve" smooth="yes"/>
      <point x="1176.0" y="1403.0" type="line" smooth="yes"/>
      <point x="1188.0" y="1403.0"/>
      <point x="1196.22067179" y="1393.48911085"/>
      <point x="1185.0" y="1380.0" type="curve" smooth="yes"/>
      <point x="631.0" y="714.0" type="line"/>
      <point x="894.0" y="20.0" type="line" smooth="yes"/>
      <point x="899.678704805" y="5.01512876608"/>
      <point x="892.0" y="-3.0"/>
      <point x="881.0" y="-3.0" type="curve" smooth="yes"/>
      <point x="880.0" y="-3.0" type="line" smooth="yes"/>
      <point x="871.0" y="-3.0"/>
      <point x="864.16576152" y="1.18363783846"/>
      <point x="859.0" y="15.0" type="curve" smooth="yes"/>
      <point x="607.0" y="689.0" type="line"/>
      <point x="23.0" y="10.0" type="line" smooth="yes"/>
      <point x="15.0798207698" y="0.791435449827"/>
      <point x="9.0" y="-3.0"/>
      <point x="3.0" y="-3.0" type="curve" smooth="yes"/>
      <point x="2.0" y="-3.0" type="line" smooth="yes"/>
      <point x="-14.0" y="-3.0"/>
      <point x="-14.0" y="12.0"/>
      <point x="-6.0" y="20.0" type="curve" smooth="yes"/>
      <point x="594.0" y="716.0" type="line"/>
      <point x="337.0" y="1380.0" type="line" smooth="yes"/>
      <point x="331.223209618" y="1394.9252483"/>
      <point x="342.0" y="1403.0"/>
      <point x="352.0" y="1403.0" type="curve" smooth="yes"/>
      <point x="353.0" y="1403.0" type="line" smooth="yes"/>
      <point x="365.0" y="1403.0"/>
      <point x="369.442827443" y="1394.65072765"/>
      <point x="375.0" y="1380.0" type="curve" smooth="yes"/>
      <point x="617.0" y="742.0" type="line"/>
      <point x="1147.0" y="1380.0" type="line" smooth="yes"/>
      <point x="1158.70563302" y="1394.09093182"/>
      <point x="1166.0" y="1403.0"/>
    </contour>
  </outline>
</glyph>
<glyph name="Y" format="2">
  <advance height="1872" width="1125"/>
  <unicode hex="0059"/>
  <anchor x="460.0" y="0.0" name="bottom"/>
  <anchor x="787.0" y="1400.0" name="top"/>
  <outline>
    <contour>
      <point x="1218.0" y="1403.0" type="curve" smooth="yes"/>
      <point x="1219.0" y="1403.0" type="line" smooth="yes"/>
      <point x="1231.0" y="1403.0"/>
      <point x="1237.52665716" y="1393.45978145"/>
      <point x="1227.0" y="1380.0" type="curve" smooth="yes"/>
      <point x="581.0" y="554.0" type="line"/>
      <point x="457.0" y="19.0" type="line" smooth="yes"/>
      <point x="453.378685747" y="3.37578124741"/>
      <point x="450.0" y="-3.0"/>
      <point x="441.0" y="-3.0" type="curve" smooth="yes"/>
      <point x="440.0" y="-3.0" type="line" smooth="yes"/>
      <point x="432.0" y="-3.0"/>
      <point x="426.378685747" y="3.37578124741"/>
      <point x="430.0" y="19.0" type="curve" smooth="yes"/>
      <point x="554.0" y="554.0" type="line"/>
      <point x="280.0" y="1381.0" type="line" smooth="yes"/>
      <point x="274.926520906" y="1396.31301902"/>
      <point x="284.0" y="1403.0"/>
      <point x="292.0" y="1403.0" type="curve" smooth="yes"/>
      <point x="293.0" y="1403.0" type="line" smooth="yes"/>
      <point x="302.0" y="1403.0"/>
      <point x="306.021214353" y="1396.01207992"/>
      <point x="311.0" y="1381.0" type="curve" smooth="yes"/>
      <point x="574.0" y="588.0" type="line"/>
      <point x="1189.0" y="1380.0" type="line" smooth="yes"/>
      <point x="1199.49211876" y="1393.51180172"/>
      <point x="1209.0" y="1403.0"/>
    </contour>
  </outline>
</glyph>
<glyph name="Z" format="2">
  <advance height="1872" width="1066"/>
  <unicode hex="005A"/>
  <anchor x="435.0" y="0.0" name="bottom"/>
  <anchor x="757.0" y="1400.0" name="top"/>
  <outline>
    <contour>
      <point x="-83.0" y="22.0" type="curve" smooth="yes"/>
      <point x="1138.0" y="1370.0" type="line"/>
      <point x="316.0" y="1370.0" type="line" smooth="yes"/>
      <point x="305.0" y="1370.0"/>
      <point x="299.0" y="1373.0"/>
      <point x="299.0" y="1384.0" type="curve" smooth="yes"/>
      <point x="299.0" y="1385.0" type="line" smooth="yes"/>
      <point x="299.0" y="1396.0"/>
      <point x="305.0" y="1400.0"/>
      <point x="316.0" y="1400.0" type="curve" smooth="yes"/>
      <point x="1186.0" y="1400.0" type="line" smooth="yes"/>
      <point x="1200.0" y="1400.0"/>
      <point x="1207.40603047" y="1390.63044294"/>
      <point x="1195.0" y="1377.0" type="curve" smooth="yes"/>
      <point x="-28.0" y="30.0" type="line"/>
      <point x="875.0" y="30.0" type="line" smooth="yes"/>
      <point x="887.0" y="30.0"/>
      <point x="893.0" y="27.0"/>
      <point x="893.0" y="16.0" type="curve" smooth="yes"/>
      <point x="893.0" y="15.0" type="line" smooth="yes"/>
      <point x="893.0" y="4.0"/>
      <point x="887.0" y="0.0"/>
      <point x="875.0" y="0.0" type="curve" smooth="yes"/>
      <point x="-78.0" y="0.0" type="line" smooth="yes"/>
      <point x="-91.0" y="0.0"/>
      <point x="-94.8296492233" y="8.93991224159"/>
    </contour>
  </outline>
</glyph>
<glyph name="bracketleft" format="2">
  <advance height="1920" width="550"/>
  <unicode hex="005B"/>
  <outline>
    <contour>
      <point x="422.0" y="1570.0" type="line"/>
      <point x="-16.0" y="-330.0" type="line"/>
      <point x="287.0" y="-330.0" type="line" smooth="yes"/>
      <point x="300.0" y="-330.0"/>
      <point x="306.0" y="-333.0"/>
      <point x="303.0" y="-344.0" type="curve" smooth="yes"/>
      <point x="302.0" y="-345.0" type="line" smooth="yes"/>
      <point x="299.0" y="-356.0"/>
      <point x="293.0" y="-360.0"/>
      <point x="280.0" y="-360.0" type="curve" smooth="yes"/>
      <point x="-29.0" y="-360.0" type="line" smooth="yes"/>
      <point x="-45.0" y="-360.0"/>
      <point x="-52.0" y="-352.0"/>
      <point x="-48.0" y="-336.0" type="curve" smooth="yes"/>
      <point x="394.0" y="1576.0" type="line" smooth="yes"/>
      <point x="398.0" y="1592.0"/>
      <point x="407.0" y="1600.0"/>
      <point x="423.0" y="1600.0" type="curve" smooth="yes"/>
      <point x="732.0" y="1600.0" type="line" smooth="yes"/>
      <point x="745.0" y="1600.0"/>
      <point x="751.0" y="1597.0"/>
      <point x="748.0" y="1586.0" type="curve" smooth="yes"/>
      <point x="748.0" y="1585.0" type="line" smooth="yes"/>
      <point x="745.0" y="1574.0"/>
      <point x="738.0" y="1570.0"/>
      <point x="725.0" y="1570.0" type="curve" smooth="yes"/>
    </contour>
  </outline>
</glyph>
<glyph name="backslash" format="2">
  <advance height="2048" width="840"/>
  <unicode hex="005C"/>
  <outline>
    <contour>
      <point x="296.0" y="1379.0" type="line" smooth="yes"/>
      <point x="293.0" y="1395.0"/>
      <point x="302.0" y="1403.0"/>
      <point x="311.0" y="1403.0" type="curve" smooth="yes"/>
      <point x="312.0" y="1403.0" type="line" smooth="yes"/>
      <point x="321.0" y="1403.0"/>
      <point x="324.0" y="1398.0"/>
      <point x="327.0" y="1384.0" type="curve" smooth="yes"/>
      <point x="628.0" y="-79.0" type="line" smooth="yes"/>
      <point x="631.0" y="-95.0"/>
      <point x="626.0" y="-103.0"/>
      <point x="614.0" y="-103.0" type="curve" smooth="yes"/>
      <point x="613.0" y="-103.0" type="line" smooth="yes"/>
      <point x="604.0" y="-103.0"/>
      <point x="602.0" y="-98.0"/>
      <point x="599.0" y="-84.0" type="curve" smooth="yes"/>
    </contour>
  </outline>
</glyph>
<glyph name="bracketright" format="2">
  <advance height="1920" width="550"/>
  <unicode hex="005D"/>
  <outline>
    <contour>
      <point x="174.0" y="-330.0" type="line"/>
      <point x="612.0" y="1570.0" type="line"/>
      <point x="309.0" y="1570.0" type="line" smooth="yes"/>
      <point x="296.0" y="1570.0"/>
      <point x="291.0" y="1573.0"/>
      <point x="294.0" y="1584.0" type="curve" smooth="yes"/>
      <point x="294.0" y="1585.0" type="line" smooth="yes"/>
      <point x="297.0" y="1596.0"/>
      <point x="303.0" y="1600.0"/>
      <point x="316.0" y="1600.0" type="curve" smooth="yes"/>
      <point x="625.0" y="1600.0" type="line" smooth="yes"/>
      <point x="641.0" y="1600.0"/>
      <point x="648.0" y="1592.0"/>
      <point x="644.0" y="1576.0" type="curve" smooth="yes"/>
      <point x="202.0" y="-336.0" type="line" smooth="yes"/>
      <point x="198.0" y="-352.0"/>
      <point x="189.0" y="-360.0"/>
      <point x="173.0" y="-360.0" type="curve" smooth="yes"/>
      <point x="-136.0" y="-360.0" type="line" smooth="yes"/>
      <point x="-149.0" y="-360.0"/>
      <point x="-155.0" y="-356.0"/>
      <point x="-152.0" y="-345.0" type="curve" smooth="yes"/>
      <point x="-151.0" y="-344.0" type="line" smooth="yes"/>
      <point x="-148.0" y="-333.0"/>
      <point x="-142.0" y="-330.0"/>
      <point x="-129.0" y="-330.0" type="curve" smooth="yes"/>
    </contour>
  </outline>
</glyph>
<glyph name="asciicircum" format="2">
  <advance height="1920" width="820"/>
  <unicode hex="005E"/>
  <outline>
    <contour>
      <point x="604.0" y="1361.0" type="line"/>
      <point x="208.0" y="746.0" type="line" smooth="yes"/>
      <point x="201.0" y="735.0"/>
      <point x="190.0" y="727.0"/>
      <point x="179.0" y="727.0" type="curve" smooth="yes"/>
      <point x="176.0" y="727.0" type="line" smooth="yes"/>
      <point x="164.0" y="727.0"/>
      <point x="162.0" y="737.0"/>
      <point x="171.0" y="750.0" type="curve" smooth="yes"/>
      <point x="583.0" y="1384.0" type="line" smooth="yes"/>
      <point x="592.0" y="1398.0"/>
      <point x="598.0" y="1402.0"/>
      <point x="609.0" y="1402.0" type="curve" smooth="yes"/>
      <point x="619.0" y="1402.0" type="line" smooth="yes"/>
      <point x="630.0" y="1402.0"/>
      <point x="634.0" y="1398.0"/>
      <point x="637.0" y="1384.0" type="curve" smooth="yes"/>
      <point x="755.0" y="750.0" type="line" smooth="yes"/>
      <point x="758.0" y="737.0"/>
      <point x="757.0" y="727.0"/>
      <point x="740.0" y="727.0" type="curve" smooth="yes"/>
      <point x="738.0" y="727.0" type="line" smooth="yes"/>
      <point x="724.0" y="727.0"/>
      <point x="717.0" y="735.0"/>
      <point x="716.0" y="746.0" type="curve" smooth="yes"/>
    </contour>
  </outline>
</glyph>
<glyph name="underscore" format="2">
  <advance height="1920" width="900"/>
  <unicode hex="005F"/>
  <outline>
    <contour>
      <point x="-127.0" y="-20.0" type="curve" smooth="yes"/>
      <point x="-127.0" y="-15.0" type="line" smooth="yes"/>
      <point x="-127.0" y="-5.0"/>
      <point x="-121.0" y="0.0"/>
      <point x="-109.0" y="0.0" type="curve" smooth="yes"/>
      <point x="761.0" y="0.0" type="line" smooth="yes"/>
      <point x="773.0" y="0.0"/>
      <point x="779.0" y="-5.0"/>
      <point x="779.0" y="-15.0" type="curve" smooth="yes"/>
      <point x="779.0" y="-20.0" type="line" smooth="yes"/>
      <point x="779.0" y="-30.0"/>
      <point x="773.0" y="-35.0"/>
      <point x="761.0" y="-35.0" type="curve" smooth="yes"/>
      <point x="-109.0" y="-35.0" type="line" smooth="yes"/>
      <point x="-121.0" y="-35.0"/>
      <point x="-127.0" y="-30.0"/>
    </contour>
  </outline>
</glyph>
<glyph name="grave" format="2">
  <advance width="623"/>
  <unicode hex="0060"/>
  <outline>
    <contour>
      <point x="539.0" y="1102.0" type="curve" smooth="yes"/>
      <point x="534.0" y="1102.0" type="line" smooth="yes"/>
      <point x="525.0" y="1102.0"/>
      <point x="517.0" y="1108.0"/>
      <point x="510.0" y="1118.0" type="curve" smooth="yes"/>
      <point x="348.0" y="1380.0" type="line" smooth="yes"/>
      <point x="341.0" y="1392.0"/>
      <point x="355.0" y="1414.0"/>
      <point x="377.0" y="1414.0" type="curve" smooth="yes"/>
      <point x="380.0" y="1414.0" type="line" smooth="yes"/>
      <point x="391.0" y="1414.0"/>
      <point x="402.0" y="1404.0"/>
      <point x="411.0" y="1387.0" type="curve" smooth="yes"/>
      <point x="555.0" y="1121.0" type="line" smooth="yes"/>
      <point x="560.0" y="1110.0"/>
      <point x="548.0" y="1102.0"/>
    </contour>
  </outline>
</glyph>
<glyph name="b" format="2">
  <advance height="1879" width="1055"/>
  <unicode hex="0062"/>
  <outline>
    <contour>
      <point x="346.0" y="1453.0" type="curve" smooth="yes"/>
      <point x="347.0" y="1453.0" type="line" smooth="yes"/>
      <point x="358.0" y="1453.0"/>
      <point x="362.0" y="1447.0"/>
      <point x="359.0" y="1435.0" type="curve" smooth="yes"/>
      <point x="115.0" y="376.0" type="line"/>
      <point x="23.0" y="-17.0" type="line" smooth="yes"/>
      <point x="20.0" y="-30.0"/>
      <point x="14.0" y="-34.0"/>
      <point x="5.0" y="-34.0" type="curve" smooth="yes"/>
      <point x="4.0" y="-34.0" type="line" smooth="yes"/>
      <point x="-5.0" y="-34.0"/>
      <point x="-10.0" y="-31.0"/>
      <point x="-7.0" y="-20.0" type="curve" smooth="yes"/>
      <point x="329.0" y="1435.0" type="line" smooth="yes"/>
      <point x="332.0" y="1447.0"/>
      <point x="335.0" y="1453.0"/>
    </contour>
    <contour>
      <point x="162.0" y="644.0" type="line"/>
      <point x="223.0" y="908.0"/>
      <point x="475.0" y="1084.0"/>
      <point x="684.0" y="1084.0" type="curve" smooth="yes"/>
      <point x="883.0" y="1084.0"/>
      <point x="1080.0" y="946.0"/>
      <point x="1004.0" y="616.0" type="curve" smooth="yes"/>
      <point x="963.0" y="436.0" type="line" smooth="yes"/>
      <point x="891.0" y="123.0"/>
      <point x="639.0" y="-33.0"/>
      <point x="440.0" y="-33.0" type="curve" smooth="yes"/>
      <point x="204.0" y="-33.0"/>
      <point x="49.0" y="157.0"/>
      <point x="108.0" y="411.0" type="curve"/>
      <point x="127.0" y="430.0" type="line"/>
      <point x="73.0" y="196.0"/>
      <point x="205.0" y="-4.0"/>
      <point x="439.0" y="-4.0" type="curve" smooth="yes"/>
      <point x="620.0" y="-4.0"/>
      <point x="865.0" y="143.0"/>
      <point x="932.0" y="435.0" type="curve" smooth="yes"/>
      <point x="974.0" y="616.0" type="line" smooth="yes"/>
      <point x="1045.0" y="924.0"/>
      <point x="863.0" y="1054.0"/>
      <point x="682.0" y="1054.0" type="curve" smooth="yes"/>
      <point x="466.0" y="1054.0"/>
      <point x="226.0" y="858.0"/>
      <point x="172.0" y="624.0" type="curve"/>
    </contour>
  </outline>
</glyph>
<glyph name="c" format="2">
  <advance height="1879" width="954"/>
  <unicode hex="0063"/>
  <anchor x="397.0" y="-25.0" name="bottom"/>
  <anchor x="631.0" y="1050.0" name="top"/>
  <outline>
    <contour>
      <point x="874.0" y="371.0" type="curve" smooth="yes"/>
      <point x="850.211571712" y="289.538860545"/>
      <point x="817.0" y="223.0"/>
      <point x="760.0" y="154.0" type="curve" smooth="yes"/>
      <point x="670.0" y="45.0"/>
      <point x="536.0" y="-34.0"/>
      <point x="367.0" y="-34.0" type="curve" smooth="yes"/>
      <point x="121.0" y="-34.0"/>
      <point x="-17.0" y="165.0"/>
      <point x="50.0" y="457.0" type="curve" smooth="yes"/>
      <point x="81.0" y="594.0" type="line" smooth="yes"/>
      <point x="146.85418145" y="885.032995438"/>
      <point x="375.0" y="1083.0"/>
      <point x="621.0" y="1083.0" type="curve" smooth="yes"/>
      <point x="812.0" y="1083.0"/>
      <point x="939.0" y="968.0"/>
      <point x="939.0" y="854.0" type="curve" smooth="yes"/>
      <point x="939.0" y="788.197265625"/>
      <point x="919.0" y="729.0"/>
      <point x="866.0" y="670.0" type="curve" smooth="yes"/>
      <point x="862.592777777" y="666.207054507"/>
      <point x="856.0" y="657.0"/>
      <point x="848.0" y="657.0" type="curve" smooth="yes"/>
      <point x="846.0" y="657.0" type="line" smooth="yes"/>
      <point x="834.0" y="657.0"/>
      <point x="831.374144683" y="668.700916321"/>
      <point x="841.0" y="679.0" type="curve" smooth="yes"/>
      <point x="894.780697092" y="736.542096931"/>
      <point x="912.0" y="792.869140625"/>
      <point x="912.0" y="854.0" type="curve" smooth="yes"/>
      <point x="912.0" y="968.0"/>
      <point x="775.0" y="1058.0"/>
      <point x="615.0" y="1058.0" type="curve" smooth="yes"/>
      <point x="383.0" y="1058.0"/>
      <point x="168.935220251" y="856.783137333"/>
      <point x="108.0" y="594.0" type="curve" smooth="yes"/>
      <point x="76.0" y="456.0" type="line" smooth="yes"/>
      <point x="14.0" y="188.0"/>
      <point x="134.0" y="-7.0"/>
      <point x="374.0" y="-7.0" type="curve" smooth="yes"/>
      <point x="522.0" y="-7.0"/>
      <point x="655.0" y="67.0"/>
      <point x="739.0" y="169.0" type="curve" smooth="yes"/>
      <point x="794.0" y="236.0"/>
      <point x="830.433193255" y="309.76512581"/>
      <point x="848.0" y="372.0" type="curve" smooth="yes"/>
      <point x="851.000492531" y="382.6300068"/>
      <point x="852.0" y="392.0"/>
      <point x="862.0" y="392.0" type="curve" smooth="yes"/>
      <point x="863.0" y="392.0" type="line" smooth="yes"/>
      <point x="872.0" y="392.0"/>
      <point x="877.375429363" y="382.558826784"/>
    </contour>
  </outline>
</glyph>
<glyph name="d" format="2">
  <advance height="1879" width="1055"/>
  <unicode hex="0064"/>
  <outline>
    <contour>
      <point x="897.0" y="408.0" type="line"/>
      <point x="840.0" y="162.0"/>
      <point x="598.0" y="-34.0"/>
      <point x="360.0" y="-34.0" type="curve" smooth="yes"/>
      <point x="162.0" y="-34.0"/>
      <point x="-18.0" y="122.0"/>
      <point x="54.0" y="435.0" type="curve" smooth="yes"/>
      <point x="96.0" y="615.0" type="line" smooth="yes"/>
      <point x="172.0" y="946.0"/>
      <point x="427.0" y="1084.0"/>
      <point x="626.0" y="1084.0" type="curve" smooth="yes"/>
      <point x="834.0" y="1084.0"/>
      <point x="1008.0" y="888.0"/>
      <point x="951.0" y="642.0" type="curve"/>
      <point x="932.0" y="623.0" type="line"/>
      <point x="980.0" y="829.0"/>
      <point x="852.0" y="1054.0"/>
      <point x="624.0" y="1054.0" type="curve" smooth="yes"/>
      <point x="443.0" y="1054.0"/>
      <point x="197.0" y="924.0"/>
      <point x="126.0" y="615.0" type="curve" smooth="yes"/>
      <point x="84.0" y="435.0" type="line" smooth="yes"/>
      <point x="17.0" y="144.0"/>
      <point x="182.0" y="-4.0"/>
      <point x="363.0" y="-4.0" type="curve" smooth="yes"/>
      <point x="618.0" y="-4.0"/>
      <point x="839.0" y="221.0"/>
      <point x="887.0" y="427.0" type="curve"/>
    </contour>
    <contour>
      <point x="1149.0" y="1434.0" type="curve" smooth="yes"/>
      <point x="822.0" y="16.0" type="line" smooth="yes"/>
      <point x="819.0" y="4.0"/>
      <point x="817.0" y="-3.0"/>
      <point x="806.0" y="-3.0" type="curve" smooth="yes"/>
      <point x="805.0" y="-3.0" type="line" smooth="yes"/>
      <point x="794.0" y="-3.0"/>
      <point x="795.0" y="4.0"/>
      <point x="798.0" y="16.0" type="curve" smooth="yes"/>
      <point x="879.0" y="370.0" type="line"/>
      <point x="881.0" y="402.0" type="line"/>
      <point x="1119.0" y="1434.0" type="line" smooth="yes"/>
      <point x="1122.0" y="1446.0"/>
      <point x="1126.0" y="1453.0"/>
      <point x="1137.0" y="1453.0" type="curve" smooth="yes"/>
      <point x="1138.0" y="1453.0" type="line" smooth="yes"/>
      <point x="1149.0" y="1453.0"/>
      <point x="1152.0" y="1446.0"/>
    </contour>
  </outline>
</glyph>
<glyph name="e" format="2">
  <advance height="1879" width="1044"/>
  <unicode hex="0065"/>
  <anchor x="482.0" y="0.0" name="bottom"/>
  <anchor x="668.0" y="20.0" name="ogonek"/>
  <anchor x="675.0" y="1050.0" name="top"/>
  <outline>
    <contour>
      <point x="915.0" y="322.0" type="curve" smooth="yes"/>
      <point x="899.783163352" y="280.265306813"/>
      <point x="887.245464781" y="254.859601548"/>
      <point x="866.0" y="218.0" type="curve" smooth="yes"/>
      <point x="783.0" y="74.0"/>
      <point x="637.0" y="-34.0"/>
      <point x="419.0" y="-34.0" type="curve" smooth="yes"/>
      <point x="191.0" y="-34.0"/>
      <point x="14.0" y="135.0"/>
      <point x="84.0" y="438.0" type="curve" smooth="yes"/>
      <point x="124.0" y="612.0" type="line" smooth="yes"/>
      <point x="192.0" y="906.0"/>
      <point x="446.0" y="1084.0"/>
      <point x="653.0" y="1084.0" type="curve" smooth="yes"/>
      <point x="905.0" y="1084.0"/>
      <point x="1006.0" y="898.0"/>
      <point x="987.0" y="682.0" type="curve" smooth="yes"/>
      <point x="980.0" y="608.0"/>
      <point x="975.849546778" y="591.247733889"/>
      <point x="968.0" y="552.0" type="curve" smooth="yes"/>
      <point x="965.0" y="537.0"/>
      <point x="957.0" y="525.0"/>
      <point x="937.0" y="525.0" type="curve" smooth="yes"/>
      <point x="118.0" y="525.0" type="line"/>
      <point x="125.0" y="553.0" type="line"/>
      <point x="941.0" y="553.0" type="line"/>
      <point x="1014.0" y="886.0"/>
      <point x="876.0" y="1059.0"/>
      <point x="659.0" y="1059.0" type="curve" smooth="yes"/>
      <point x="452.0" y="1059.0"/>
      <point x="216.0" y="876.0"/>
      <point x="155.0" y="613.0" type="curve" smooth="yes"/>
      <point x="114.0" y="438.0" type="line" smooth="yes"/>
      <point x="53.0" y="175.0"/>
      <point x="181.0" y="-9.0"/>
      <point x="424.0" y="-9.0" type="curve" smooth="yes"/>
      <point x="640.0" y="-9.0"/>
      <point x="814.329191374" y="124.057490006"/>
      <point x="882.0" y="325.0" type="curve" smooth="yes"/>
      <point x="886.469119698" y="338.270657583"/>
      <point x="891.0" y="346.0"/>
      <point x="899.0" y="346.0" type="curve" smooth="yes"/>
      <point x="900.0" y="346.0" type="line" smooth="yes"/>
      <point x="910.0" y="346.0"/>
      <point x="920.523450323" y="337.148976749"/>
    </contour>
  </outline>
</glyph>
<glyph name="f" format="2">
  <advance height="1879" width="599"/>
  <unicode hex="0066"/>
  <outline>
    <contour>
      <point x="673.0" y="1025.0" type="curve" smooth="yes"/>
      <point x="196.0" y="1025.0" type="line" smooth="yes"/>
      <point x="183.0" y="1025.0"/>
      <point x="177.0" y="1029.0"/>
      <point x="177.0" y="1037.0" type="curve" smooth="yes"/>
      <point x="177.0" y="1038.0" type="line" smooth="yes"/>
      <point x="177.0" y="1046.0"/>
      <point x="183.0" y="1050.0"/>
      <point x="196.0" y="1050.0" type="curve" smooth="yes"/>
      <point x="673.0" y="1050.0" type="line" smooth="yes"/>
      <point x="686.0" y="1050.0"/>
      <point x="692.0" y="1046.0"/>
      <point x="692.0" y="1038.0" type="curve"/>
      <point x="692.0" y="1037.0" type="line"/>
      <point x="692.0" y="1028.0"/>
      <point x="686.0" y="1025.0"/>
    </contour>
    <contour>
      <point x="398.0" y="1194.0" type="line" smooth="yes"/>
      <point x="445.0" y="1397.0"/>
      <point x="500.0" y="1506.0"/>
      <point x="765.0" y="1444.0" type="curve" smooth="yes"/>
      <point x="773.817704487" y="1441.93698989"/>
      <point x="783.0" y="1438.0"/>
      <point x="783.0" y="1431.0" type="curve" smooth="yes"/>
      <point x="783.0" y="1430.0" type="line" smooth="yes"/>
      <point x="783.0" y="1420.0"/>
      <point x="774.695823832" y="1415.03081539"/>
      <point x="762.0" y="1418.0" type="curve" smooth="yes"/>
      <point x="514.0" y="1476.0"/>
      <point x="477.0" y="1383.0"/>
      <point x="433.0" y="1194.0" type="curve" smooth="yes"/>
      <point x="79.0" y="-338.0" type="line" smooth="yes"/>
      <point x="75.1695365524" y="-354.577033903"/>
      <point x="70.0" y="-363.0"/>
      <point x="59.0" y="-363.0" type="curve" smooth="yes"/>
      <point x="57.0" y="-363.0" type="line" smooth="yes"/>
      <point x="46.0" y="-363.0"/>
      <point x="40.3888947313" y="-353.627721106"/>
      <point x="44.0" y="-338.0" type="curve" smooth="yes"/>
    </contour>
  </outline>
</glyph>
<glyph name="g" format="2">
  <advance height="1879" width="833"/>
  <unicode hex="0067"/>
  <anchor x="511.0" y="1100.0" name="top"/>
  <outline>
    <contour>
      <point x="935.0" y="1243.0" type="curve" smooth="yes"/>
      <point x="876.0" y="1057.0"/>
      <point x="773.0" y="1011.0"/>
      <point x="729.0" y="1011.0" type="curve"/>
      <point x="703.0" y="1021.0" type="line"/>
      <point x="756.0" y="1021.0"/>
      <point x="855.0" y="1071.0"/>
      <point x="905.0" y="1245.0" type="curve" smooth="yes"/>
      <point x="909.0" y="1258.0"/>
      <point x="916.0" y="1263.0"/>
      <point x="924.0" y="1263.0" type="curve" smooth="yes"/>
      <point x="925.0" y="1263.0" type="line" smooth="yes"/>
      <point x="934.0" y="1263.0"/>
      <point x="939.0" y="1257.0"/>
    </contour>
    <contour>
      <point x="474.0" y="188.0" type="line" smooth="yes"/>
      <point x="623.893701015" y="174.793506519"/>
      <point x="689.0" y="82.0"/>
      <point x="659.0" y="-46.0" type="curve" smooth="yes"/>
      <point x="618.0" y="-224.0"/>
      <point x="449.0" y="-360.0"/>
      <point x="182.0" y="-360.0" type="curve" smooth="yes"/>
      <point x="160.0" y="-360.0" type="line" smooth="yes"/>
      <point x="-25.0" y="-360.0"/>
      <point x="-178.0" y="-270.0"/>
      <point x="-135.0" y="-84.0" type="curve" smooth="yes"/>
      <point x="-101.0" y="63.0"/>
      <point x="37.0" y="174.0"/>
      <point x="171.0" y="204.0" type="curve"/>
      <point x="180.0" y="187.0" type="line"/>
      <point x="47.0" y="157.0"/>
      <point x="-71.0" y="39.0"/>
      <point x="-102.0" y="-96.0" type="curve" smooth="yes"/>
      <point x="-142.0" y="-269.0"/>
      <point x="20.0" y="-330.0"/>
      <point x="157.0" y="-330.0" type="curve" smooth="yes"/>
      <point x="179.0" y="-330.0" type="line" smooth="yes"/>
      <point x="418.0" y="-330.0"/>
      <point x="586.0" y="-195.0"/>
      <point x="622.0" y="-39.0" type="curve" smooth="yes"/>
      <point x="647.0" y="68.0"/>
      <point x="607.035565849" y="144.389446041"/>
      <point x="458.0" y="158.0" type="curve" smooth="yes"/>
      <point x="239.0" y="178.0" type="line" smooth="yes"/>
      <point x="103.0" y="190.0"/>
      <point x="20.0" y="225.0"/>
      <point x="40.0" y="310.0" type="curve" smooth="yes"/>
      <point x="64.0" y="413.0"/>
      <point x="199.0" y="446.0"/>
      <point x="367.0" y="494.0" type="curve"/>
      <point x="367.0" y="484.0" type="line"/>
      <point x="233.0" y="427.0"/>
      <point x="92.0" y="406.0"/>
      <point x="70.0" y="312.0" type="curve" smooth="yes"/>
      <point x="54.0" y="242.0"/>
      <point x="146.0" y="217.0"/>
      <point x="247.0" y="208.0" type="curve" smooth="yes"/>
    </contour>
    <contour>
      <point x="765.0" y="759.0" type="curve" smooth="yes"/>
      <point x="773.0" y="791.0" type="line" smooth="yes"/>
      <point x="811.0" y="954.0"/>
      <point x="699.0" y="1054.0"/>
      <point x="533.0" y="1054.0" type="curve" smooth="yes"/>
      <point x="362.0" y="1054.0"/>
      <point x="206.0" y="947.0"/>
      <point x="170.0" y="791.0" type="curve" smooth="yes"/>
      <point x="162.0" y="759.0" type="line" smooth="yes"/>
      <point x="130.0" y="622.0"/>
      <point x="235.0" y="504.0"/>
      <point x="406.0" y="504.0" type="curve" smooth="yes"/>
      <point x="572.0" y="504.0"/>
      <point x="732.0" y="614.0"/>
    </contour>
    <contour>
      <point x="795.0" y="751.0" type="line" smooth="yes"/>
      <point x="761.0" y="602.0"/>
      <point x="595.0" y="474.0"/>
      <point x="398.0" y="474.0" type="curve" smooth="yes"/>
      <point x="201.0" y="474.0"/>
      <point x="98.0" y="620.0"/>
      <point x="132.0" y="769.0" type="curve" smooth="yes"/>
      <point x="140.0" y="801.0" type="line" smooth="yes"/>
      <point x="179.0" y="969.0"/>
      <point x="342.0" y="1084.0"/>
      <point x="539.0" y="1084.0" type="curve" smooth="yes"/>
      <point x="736.0" y="1084.0"/>
      <point x="842.0" y="951.0"/>
      <point x="803.0" y="783.0" type="curve" smooth="yes"/>
    </contour>
  </outline>
</glyph>
<glyph name="h" format="2">
  <advance height="1879" width="953"/>
  <unicode hex="0068"/>
  <anchor x="375.0" y="0.0" name="bottom"/>
  <anchor x="356.0" y="1450.0" name="top"/>
  <outline>
    <contour>
      <point x="351.0" y="1453.0" type="curve" smooth="yes"/>
      <point x="353.0" y="1453.0" type="line" smooth="yes"/>
      <point x="364.0" y="1453.0"/>
      <point x="366.0" y="1447.0"/>
      <point x="363.0" y="1434.0" type="curve" smooth="yes"/>
      <point x="36.0" y="16.0" type="line" smooth="yes"/>
      <point x="33.0" y="3.0"/>
      <point x="27.0" y="-3.0"/>
      <point x="16.0" y="-3.0" type="curve" smooth="yes"/>
      <point x="15.0" y="-3.0" type="line" smooth="yes"/>
      <point x="4.0" y="-3.0"/>
      <point x="3.0" y="3.0"/>
      <point x="6.0" y="16.0" type="curve" smooth="yes"/>
      <point x="333.0" y="1434.0" type="line" smooth="yes"/>
      <point x="336.0" y="1447.0"/>
      <point x="340.0" y="1453.0"/>
    </contour>
    <contour>
      <point x="159.0" y="634.0" type="line"/>
      <point x="212.0" y="864.0"/>
      <point x="411.0" y="1085.0"/>
      <point x="645.0" y="1085.0" type="curve" smooth="yes"/>
      <point x="841.0" y="1085.0"/>
      <point x="934.0" y="963.0"/>
      <point x="881.0" y="733.0" type="curve" smooth="yes"/>
      <point x="716.0" y="16.0" type="line" smooth="yes"/>
      <point x="713.0" y="3.0"/>
      <point x="708.0" y="-3.0"/>
      <point x="697.0" y="-3.0" type="curve" smooth="yes"/>
      <point x="695.0" y="-3.0" type="line" smooth="yes"/>
      <point x="684.0" y="-3.0"/>
      <point x="683.0" y="3.0"/>
      <point x="686.0" y="16.0" type="curve" smooth="yes"/>
      <point x="851.0" y="733.0" type="line" smooth="yes"/>
      <point x="899.0" y="943.0"/>
      <point x="825.0" y="1060.0"/>
      <point x="647.0" y="1060.0" type="curve" smooth="yes"/>
      <point x="418.0" y="1060.0"/>
      <point x="226.0" y="842.0"/>
      <point x="178.0" y="632.0" type="curve"/>
    </contour>
  </outline>
</glyph>
<glyph name="i" format="2">
  <advance height="1879" width="261"/>
  <unicode hex="0069"/>
  <anchor x="5.0" y="0.0" name="bottom"/>
  <anchor x="5.0" y="0.0" name="ogonek"/>
  <outline>
    <contour>
      <point x="350.0" y="1394.0" type="curve" smooth="yes"/>
      <point x="312.0" y="1229.0" type="line" smooth="yes"/>
      <point x="309.0" y="1217.0"/>
      <point x="303.0" y="1210.0"/>
      <point x="290.0" y="1210.0" type="curve" smooth="yes"/>
      <point x="289.0" y="1210.0" type="line" smooth="yes"/>
      <point x="276.0" y="1210.0"/>
      <point x="275.0" y="1217.0"/>
      <point x="278.0" y="1229.0" type="curve" smooth="yes"/>
      <point x="316.0" y="1394.0" type="line" smooth="yes"/>
      <point x="319.0" y="1406.0"/>
      <point x="323.0" y="1414.0"/>
      <point x="336.0" y="1414.0" type="curve" smooth="yes"/>
      <point x="338.0" y="1414.0" type="line" smooth="yes"/>
      <point x="351.0" y="1414.0"/>
      <point x="353.0" y="1406.0"/>
    </contour>
    <contour>
      <point x="265.0" y="1034.0" type="curve" smooth="yes"/>
      <point x="30.0" y="16.0" type="line" smooth="yes"/>
      <point x="27.0" y="3.0"/>
      <point x="22.0" y="-3.0"/>
      <point x="11.0" y="-3.0" type="curve" smooth="yes"/>
      <point x="9.0" y="-3.0" type="line" smooth="yes"/>
      <point x="-2.0" y="-3.0"/>
      <point x="-3.0" y="3.0"/>
      <point x="0.0" y="16.0" type="curve" smooth="yes"/>
      <point x="235.0" y="1034.0" type="line" smooth="yes"/>
      <point x="238.0" y="1047.0"/>
      <point x="242.0" y="1053.0"/>
      <point x="253.0" y="1053.0" type="curve" smooth="yes"/>
      <point x="255.0" y="1053.0" type="line" smooth="yes"/>
      <point x="266.0" y="1053.0"/>
      <point x="268.0" y="1047.0"/>
    </contour>
  </outline>
</glyph>
<glyph name="j" format="2">
  <advance height="1879" width="261"/>
  <unicode hex="006A"/>
  <outline>
    <contour>
      <point x="12.0" y="-59.0" type="line" smooth="yes"/>
      <point x="-37.0" y="-271.0"/>
      <point x="-110.0" y="-371.0"/>
      <point x="-209.0" y="-371.0" type="curve" smooth="yes"/>
      <point x="-338.0" y="-371.0"/>
      <point x="-269.0" y="-200.0"/>
      <point x="-204.0" y="-107.0" type="curve" smooth="yes"/>
      <point x="-200.914996911" y="-102.586072504"/>
      <point x="-198.0" y="-97.0"/>
      <point x="-191.0" y="-97.0" type="curve" smooth="yes"/>
      <point x="-190.0" y="-97.0" type="line" smooth="yes"/>
      <point x="-180.0" y="-97.0"/>
      <point x="-176.020138511" y="-104.887543169"/>
      <point x="-181.0" y="-112.0" type="curve" smooth="yes"/>
      <point x="-242.686741338" y="-200.10371247"/>
      <point x="-291.0" y="-340.0"/>
      <point x="-201.0" y="-340.0" type="curve" smooth="yes"/>
      <point x="-103.0" y="-340.0"/>
      <point x="-47.0" y="-185.0"/>
      <point x="-18.0" y="-60.0" type="curve" smooth="yes"/>
      <point x="234.0" y="1030.0" type="line" smooth="yes"/>
      <point x="237.832336745" y="1046.57637719"/>
      <point x="241.0" y="1053.0"/>
      <point x="250.0" y="1053.0" type="curve" smooth="yes"/>
      <point x="251.0" y="1053.0" type="line" smooth="yes"/>
      <point x="262.0" y="1053.0"/>
      <point x="267.3963047" y="1044.67688817"/>
      <point x="264.0" y="1030.0" type="curve" smooth="yes"/>
    </contour>
    <contour>
      <point x="350.0" y="1394.0" type="curve" smooth="yes"/>
      <point x="312.0" y="1229.0" type="line" smooth="yes"/>
      <point x="309.0" y="1217.0"/>
      <point x="303.0" y="1210.0"/>
      <point x="290.0" y="1210.0" type="curve" smooth="yes"/>
      <point x="289.0" y="1210.0" type="line" smooth="yes"/>
      <point x="276.0" y="1210.0"/>
      <point x="275.0" y="1217.0"/>
      <point x="278.0" y="1229.0" type="curve" smooth="yes"/>
      <point x="316.0" y="1394.0" type="line" smooth="yes"/>
      <point x="319.0" y="1406.0"/>
      <point x="323.0" y="1414.0"/>
      <point x="336.0" y="1414.0" type="curve" smooth="yes"/>
      <point x="338.0" y="1414.0" type="line" smooth="yes"/>
      <point x="351.0" y="1414.0"/>
      <point x="353.0" y="1406.0"/>
    </contour>
  </outline>
</glyph>
<glyph name="k" format="2">
  <advance height="1879" width="849"/>
  <unicode hex="006B"/>
  <outline>
    <contour>
      <point x="347.0" y="1453.0" type="curve" smooth="yes"/>
      <point x="349.0" y="1453.0" type="line" smooth="yes"/>
      <point x="360.0" y="1453.0"/>
      <point x="361.0" y="1444.0"/>
      <point x="358.0" y="1431.0" type="curve" smooth="yes"/>
      <point x="32.0" y="18.0" type="line" smooth="yes"/>
      <point x="29.0" y="5.0"/>
      <point x="24.0" y="-3.0"/>
      <point x="13.0" y="-3.0" type="curve" smooth="yes"/>
      <point x="11.0" y="-3.0" type="line" smooth="yes"/>
      <point x="0.0" y="-3.0"/>
      <point x="-1.0" y="6.0"/>
      <point x="2.0" y="19.0" type="curve" smooth="yes"/>
      <point x="328.0" y="1431.0" type="line" smooth="yes"/>
      <point x="331.0" y="1444.0"/>
      <point x="336.0" y="1453.0"/>
    </contour>
    <contour>
      <point x="100.0" y="406.0" type="line"/>
      <point x="842.0" y="1036.0" type="line" smooth="yes"/>
      <point x="856.0" y="1049.0"/>
      <point x="860.0" y="1053.0"/>
      <point x="869.0" y="1053.0" type="curve" smooth="yes"/>
      <point x="870.0" y="1053.0" type="line" smooth="yes"/>
      <point x="882.0" y="1053.0"/>
      <point x="892.224555542" y="1037.36069681"/>
      <point x="874.0" y="1022.0" type="curve" smooth="yes"/>
      <point x="104.0" y="373.0" type="line"/>
    </contour>
    <contour>
      <point x="364.0" y="615.0" type="line"/>
      <point x="390.0" y="637.0" type="line"/>
      <point x="722.0" y="21.0" type="line" smooth="yes"/>
      <point x="729.840055368" y="6.4533912453"/>
      <point x="723.0" y="-3.0"/>
      <point x="712.0" y="-3.0" type="curve" smooth="yes"/>
      <point x="710.0" y="-3.0" type="line" smooth="yes"/>
      <point x="699.0" y="-3.0"/>
      <point x="694.733828022" y="3.39682879703"/>
      <point x="689.0" y="14.0" type="curve" smooth="yes"/>
    </contour>
  </outline>
</glyph>
<glyph name="l" format="2">
  <advance height="1879" width="280"/>
  <unicode hex="006C"/>
  <outline>
    <contour>
      <point x="354.451171875" y="1453.0" type="curve" smooth="yes"/>
      <point x="356.451171875" y="1453.0" type="line" smooth="yes"/>
      <point x="367.451171875" y="1453.0"/>
      <point x="369.06640625" y="1447.0"/>
      <point x="366.065429688" y="1434.0" type="curve" smooth="yes"/>
      <point x="38.6943359375" y="16.0" type="line" smooth="yes"/>
      <point x="35.6923828125" y="3.0"/>
      <point x="31.3076171875" y="-3.0"/>
      <point x="20.3076171875" y="-3.0" type="curve" smooth="yes"/>
      <point x="18.3076171875" y="-3.0" type="line" smooth="yes"/>
      <point x="7.3076171875" y="-3.0"/>
      <point x="5.6923828125" y="3.0"/>
      <point x="8.6943359375" y="16.0" type="curve" smooth="yes"/>
      <point x="336.065429688" y="1434.0" type="line" smooth="yes"/>
      <point x="339.06640625" y="1447.0"/>
      <point x="343.451171875" y="1453.0"/>
    </contour>
  </outline>
</glyph>
<glyph name="m" format="2">
  <advance height="1879" width="1494"/>
  <unicode hex="006D"/>
  <outline>
    <contour>
      <point x="769.0" y="634.0" type="line"/>
      <point x="845.0" y="964.0"/>
      <point x="1052.0" y="1084.0"/>
      <point x="1215.0" y="1084.0" type="curve" smooth="yes"/>
      <point x="1377.0" y="1084.0"/>
      <point x="1473.0" y="965.0"/>
      <point x="1428.0" y="769.0" type="curve" smooth="yes"/>
      <point x="1253.0" y="14.0" type="line" smooth="yes"/>
      <point x="1250.25838675" y="2.17189711146"/>
      <point x="1244.0" y="-3.0"/>
      <point x="1237.0" y="-3.0" type="curve" smooth="yes"/>
      <point x="1236.0" y="-3.0" type="line" smooth="yes"/>
      <point x="1225.0" y="-3.0"/>
      <point x="1220.91829685" y="5.01893781736"/>
      <point x="1223.0" y="14.0" type="curve" smooth="yes"/>
      <point x="1398.0" y="769.0" type="line" smooth="yes"/>
      <point x="1440.0" y="953.0"/>
      <point x="1357.0" y="1059.0"/>
      <point x="1213.0" y="1059.0" type="curve" smooth="yes"/>
      <point x="1060.0" y="1059.0"/>
      <point x="855.0" y="924.0"/>
      <point x="788.0" y="632.0" type="curve"/>
    </contour>
    <contour>
      <point x="256.0" y="1053.0" type="curve" smooth="yes"/>
      <point x="257.0" y="1053.0" type="line" smooth="yes"/>
      <point x="264.0" y="1053.0"/>
      <point x="267.825842697" y="1047.57865169"/>
      <point x="264.0" y="1031.0" type="curve" smooth="yes"/>
      <point x="195.0" y="732.0" type="line"/>
      <point x="197.0" y="705.0" type="line"/>
      <point x="37.0" y="14.0" type="line" smooth="yes"/>
      <point x="34.0412716839" y="1.22199208477"/>
      <point x="27.0" y="-3.0"/>
      <point x="21.0" y="-3.0" type="curve" smooth="yes"/>
      <point x="20.0" y="-3.0" type="line" smooth="yes"/>
      <point x="13.0" y="-3.0"/>
      <point x="4.82858650217" y="0.270589667627"/>
      <point x="8.0" y="14.0" type="curve" smooth="yes"/>
      <point x="245.0" y="1040.0" type="line" smooth="yes"/>
      <point x="247.0" y="1047.0"/>
      <point x="250.0" y="1053.0"/>
    </contour>
    <contour>
      <point x="167.0" y="653.0" type="line"/>
      <point x="232.0" y="935.0"/>
      <point x="445.0" y="1084.0"/>
      <point x="607.0" y="1084.0" type="curve" smooth="yes"/>
      <point x="769.0" y="1084.0"/>
      <point x="865.0" y="965.0"/>
      <point x="820.0" y="769.0" type="curve" smooth="yes"/>
      <point x="645.0" y="14.0" type="line" smooth="yes"/>
      <point x="642.038416715" y="1.22288354283"/>
      <point x="635.0" y="-3.0"/>
      <point x="628.0" y="-3.0" type="curve" smooth="yes"/>
      <point x="627.0" y="-3.0" type="line" smooth="yes"/>
      <point x="620.0" y="-3.0"/>
      <point x="612.258386748" y="2.17189711146"/>
      <point x="615.0" y="14.0" type="curve" smooth="yes"/>
      <point x="790.0" y="769.0" type="line" smooth="yes"/>
      <point x="830.0" y="944.0"/>
      <point x="750.0" y="1059.0"/>
      <point x="606.0" y="1059.0" type="curve" smooth="yes"/>
      <point x="453.0" y="1059.0"/>
      <point x="243.0" y="905.0"/>
      <point x="180.0" y="632.0" type="curve"/>
    </contour>
  </outline>
</glyph>
<glyph name="n" format="2">
  <advance height="1879" width="953"/>
  <unicode hex="006E"/>
  <anchor x="375.0" y="0.0" name="bottom"/>
  <anchor x="638.0" y="1050.0" name="top"/>
  <outline>
    <contour>
      <point x="257.0" y="1053.0" type="curve" smooth="yes"/>
      <point x="259.0" y="1053.0" type="line" smooth="yes"/>
      <point x="268.0" y="1053.0"/>
      <point x="270.0" y="1047.0"/>
      <point x="267.0" y="1034.0" type="curve" smooth="yes"/>
      <point x="182.0" y="667.0" type="line"/>
      <point x="180.0" y="640.0" type="line"/>
      <point x="36.0" y="16.0" type="line" smooth="yes"/>
      <point x="33.0" y="3.0"/>
      <point x="28.0" y="-3.0"/>
      <point x="17.0" y="-3.0" type="curve" smooth="yes"/>
      <point x="15.0" y="-3.0" type="line" smooth="yes"/>
      <point x="4.0" y="-3.0"/>
      <point x="3.0" y="3.0"/>
      <point x="6.0" y="16.0" type="curve" smooth="yes"/>
      <point x="241.0" y="1034.0" type="line" smooth="yes"/>
      <point x="244.0" y="1047.0"/>
      <point x="248.0" y="1053.0"/>
    </contour>
    <contour>
      <point x="159.0" y="634.0" type="line"/>
      <point x="212.0" y="864.0"/>
      <point x="419.0" y="1084.0"/>
      <point x="642.0" y="1084.0" type="curve" smooth="yes"/>
      <point x="853.0" y="1084.0"/>
      <point x="933.083330562" y="963.67120008"/>
      <point x="880.0" y="733.0" type="curve" smooth="yes"/>
      <point x="715.0" y="16.0" type="line" smooth="yes"/>
      <point x="712.0" y="3.0"/>
      <point x="707.0" y="-3.0"/>
      <point x="696.0" y="-3.0" type="curve" smooth="yes"/>
      <point x="694.0" y="-3.0" type="line" smooth="yes"/>
      <point x="683.0" y="-3.0"/>
      <point x="682.0" y="3.0"/>
      <point x="685.0" y="16.0" type="curve" smooth="yes"/>
      <point x="850.0" y="733.0" type="line" smooth="yes"/>
      <point x="898.360240082" y="943.147225086"/>
      <point x="835.0" y="1059.0"/>
      <point x="640.0" y="1059.0" type="curve" smooth="yes"/>
      <point x="422.0" y="1059.0"/>
      <point x="226.0" y="842.0"/>
      <point x="178.0" y="632.0" type="curve"/>
    </contour>
  </outline>
</glyph>
<glyph name="o" format="2">
  <advance height="1879" width="1071"/>
  <unicode hex="006F"/>
  <anchor x="437.0" y="0.0" name="bottom"/>
  <anchor x="680.0" y="1050.0" name="top"/>
  <outline>
    <contour>
      <point x="74.0" y="456.0" type="curve" smooth="yes"/>
      <point x="106.0" y="595.0" type="line" smooth="yes"/>
      <point x="172.0" y="879.0"/>
      <point x="404.0" y="1084.0"/>
      <point x="661.0" y="1084.0" type="curve" smooth="yes"/>
      <point x="918.0" y="1084.0"/>
      <point x="1067.0" y="879.0"/>
      <point x="1001.0" y="595.0" type="curve" smooth="yes"/>
      <point x="969.0" y="456.0" type="line" smooth="yes"/>
      <point x="903.0" y="172.0"/>
      <point x="670.0" y="-34.0"/>
      <point x="413.0" y="-34.0" type="curve" smooth="yes"/>
      <point x="156.0" y="-34.0"/>
      <point x="8.0" y="172.0"/>
    </contour>
    <contour>
      <point x="99.0" y="455.0" type="line" smooth="yes"/>
      <point x="38.0" y="192.0"/>
      <point x="175.0" y="-9.0"/>
      <point x="414.0" y="-9.0" type="curve" smooth="yes"/>
      <point x="653.0" y="-9.0"/>
      <point x="882.0" y="192.0"/>
      <point x="943.0" y="455.0" type="curve" smooth="yes"/>
      <point x="976.0" y="596.0" type="line" smooth="yes"/>
      <point x="1037.0" y="859.0"/>
      <point x="899.0" y="1059.0"/>
      <point x="660.0" y="1059.0" type="curve" smooth="yes"/>
      <point x="421.0" y="1059.0"/>
      <point x="193.0" y="859.0"/>
      <point x="132.0" y="596.0" type="curve" smooth="yes"/>
    </contour>
  </outline>
</glyph>
<glyph name="p" format="2">
  <advance height="1879" width="1055"/>
  <unicode hex="0070"/>
  <outline>
    <contour>
      <point x="167.0" y="643.0" type="line"/>
      <point x="228.0" y="908.0"/>
      <point x="472.0" y="1084.0"/>
      <point x="682.0" y="1084.0" type="curve" smooth="yes"/>
      <point x="880.0" y="1084.0"/>
      <point x="1081.0" y="947.0"/>
      <point x="1004.0" y="615.0" type="curve" smooth="yes"/>
      <point x="963.0" y="436.0" type="line" smooth="yes"/>
      <point x="891.0" y="124.0"/>
      <point x="645.0" y="-34.0"/>
      <point x="446.0" y="-34.0" type="curve" smooth="yes"/>
      <point x="211.0" y="-34.0"/>
      <point x="58.0" y="153.0"/>
      <point x="117.0" y="408.0" type="curve"/>
      <point x="127.0" y="427.0" type="line"/>
      <point x="73.0" y="193.0"/>
      <point x="212.0" y="-4.0"/>
      <point x="446.0" y="-4.0" type="curve" smooth="yes"/>
      <point x="627.0" y="-4.0"/>
      <point x="864.0" y="145.0"/>
      <point x="931.0" y="435.0" type="curve" smooth="yes"/>
      <point x="973.0" y="616.0" type="line" smooth="yes"/>
      <point x="1045.0" y="926.0"/>
      <point x="862.0" y="1054.0"/>
      <point x="681.0" y="1054.0" type="curve" smooth="yes"/>
      <point x="465.0" y="1054.0"/>
      <point x="226.0" y="858.0"/>
      <point x="172.0" y="624.0" type="curve"/>
    </contour>
    <contour>
      <point x="-81.0" y="-344.0" type="curve" smooth="yes"/>
      <point x="237.0" y="1034.0" type="line" smooth="yes"/>
      <point x="240.0" y="1046.0"/>
      <point x="242.0" y="1053.0"/>
      <point x="253.0" y="1053.0" type="curve" smooth="yes"/>
      <point x="254.0" y="1053.0" type="line" smooth="yes"/>
      <point x="265.0" y="1053.0"/>
      <point x="265.0" y="1046.0"/>
      <point x="262.0" y="1034.0" type="curve" smooth="yes"/>
      <point x="181.0" y="683.0" type="line"/>
      <point x="179.0" y="652.0" type="line"/>
      <point x="-51.0" y="-344.0" type="line" smooth="yes"/>
      <point x="-54.0" y="-356.0"/>
      <point x="-59.0" y="-363.0"/>
      <point x="-70.0" y="-363.0" type="curve" smooth="yes"/>
      <point x="-72.0" y="-363.0" type="line" smooth="yes"/>
      <point x="-83.0" y="-363.0"/>
      <point x="-84.0" y="-356.0"/>
    </contour>
  </outline>
</glyph>
<glyph name="q" format="2">
  <advance height="1879" width="1055"/>
  <unicode hex="0071"/>
  <outline>
    <contour>
      <point x="720.0" y="-363.0" type="curve" smooth="yes"/>
      <point x="719.0" y="-363.0" type="line" smooth="yes"/>
      <point x="708.0" y="-363.0"/>
      <point x="705.0" y="-357.0"/>
      <point x="708.0" y="-345.0" type="curve" smooth="yes"/>
      <point x="944.0" y="674.0" type="line"/>
      <point x="1035.0" y="1067.0" type="line" smooth="yes"/>
      <point x="1038.0" y="1080.0"/>
      <point x="1044.0" y="1084.0"/>
      <point x="1053.0" y="1084.0" type="curve" smooth="yes"/>
      <point x="1054.0" y="1084.0" type="line" smooth="yes"/>
      <point x="1063.0" y="1084.0"/>
      <point x="1068.0" y="1081.0"/>
      <point x="1065.0" y="1070.0" type="curve" smooth="yes"/>
      <point x="738.0" y="-345.0" type="line" smooth="yes"/>
      <point x="735.0" y="-357.0"/>
      <point x="731.0" y="-363.0"/>
    </contour>
    <contour>
      <point x="897.0" y="406.0" type="line"/>
      <point x="840.0" y="161.0"/>
      <point x="607.0" y="-33.0"/>
      <point x="360.0" y="-33.0" type="curve" smooth="yes"/>
      <point x="161.0" y="-33.0"/>
      <point x="-18.0" y="123.0"/>
      <point x="54.0" y="434.0" type="curve" smooth="yes"/>
      <point x="96.0" y="614.0" type="line" smooth="yes"/>
      <point x="173.0" y="946.0"/>
      <point x="416.0" y="1084.0"/>
      <point x="615.0" y="1084.0" type="curve" smooth="yes"/>
      <point x="845.0" y="1084.0"/>
      <point x="998.0" y="884.0"/>
      <point x="951.0" y="639.0" type="curve"/>
      <point x="931.0" y="620.0" type="line"/>
      <point x="979.0" y="826.0"/>
      <point x="847.0" y="1054.0"/>
      <point x="618.0" y="1054.0" type="curve" smooth="yes"/>
      <point x="437.0" y="1054.0"/>
      <point x="198.0" y="926.0"/>
      <point x="126.0" y="615.0" type="curve" smooth="yes"/>
      <point x="84.0" y="434.0" type="line" smooth="yes"/>
      <point x="17.0" y="144.0"/>
      <point x="177.0" y="-3.0"/>
      <point x="358.0" y="-3.0" type="curve" smooth="yes"/>
      <point x="613.0" y="-3.0"/>
      <point x="839.0" y="221.0"/>
      <point x="886.0" y="426.0" type="curve"/>
    </contour>
  </outline>
</glyph>
<glyph name="r" format="2">
  <advance height="1879" width="694"/>
  <unicode hex="0072"/>
  <anchor x="44.0" y="0.0" name="bottom"/>
  <anchor x="467.0" y="1050.0" name="top"/>
  <outline>
    <contour>
      <point x="193.0" y="713.0" type="curve"/>
      <point x="199.0" y="770.0" type="line"/>
      <point x="229.0" y="900.0"/>
      <point x="374.0" y="1084.0"/>
      <point x="546.0" y="1084.0" type="curve" smooth="yes"/>
      <point x="745.0" y="1084.0"/>
      <point x="736.0" y="863.0"/>
      <point x="578.0" y="670.0" type="curve" smooth="yes"/>
      <point x="575.0" y="666.0"/>
      <point x="569.0" y="662.0"/>
      <point x="566.0" y="662.0" type="curve" smooth="yes"/>
      <point x="565.0" y="662.0" type="line" smooth="yes"/>
      <point x="557.0" y="662.0"/>
      <point x="553.378355511" y="665.949236415"/>
      <point x="563.0" y="680.0" type="curve" smooth="yes"/>
      <point x="726.205848773" y="918.334184913"/>
      <point x="678.0" y="1054.0"/>
      <point x="539.0" y="1054.0" type="curve" smooth="yes"/>
      <point x="401.0" y="1054.0"/>
      <point x="238.0" y="908.0"/>
    </contour>
    <contour>
      <point x="252.0" y="1053.0" type="curve" smooth="yes"/>
      <point x="253.0" y="1053.0" type="line" smooth="yes"/>
      <point x="260.0" y="1053.0"/>
      <point x="264.932985098" y="1047.78598191"/>
      <point x="262.0" y="1035.0" type="curve" smooth="yes"/>
      <point x="198.0" y="756.0" type="line"/>
      <point x="200.0" y="747.0" type="line"/>
      <point x="32.0" y="18.0" type="line" smooth="yes"/>
      <point x="28.6166646147" y="3.31874109575"/>
      <point x="21.0" y="-3.0"/>
      <point x="14.0" y="-3.0" type="curve" smooth="yes"/>
      <point x="13.0" y="-3.0" type="line" smooth="yes"/>
      <point x="6.0" y="-3.0"/>
      <point x="-1.39277521839" y="4.3219343306"/>
      <point x="2.0" y="19.0" type="curve" smooth="yes"/>
      <point x="238.0" y="1040.0" type="line" smooth="yes"/>
      <point x="240.0" y="1047.0"/>
      <point x="245.0" y="1053.0"/>
    </contour>
  </outline>
</glyph>
<glyph name="s" format="2">
  <advance height="1879" width="912"/>
  <unicode hex="0073"/>
  <anchor x="361.0" y="-25.0" name="bottom"/>
  <anchor x="580.0" y="1050.0" name="top"/>
  <outline>
    <contour>
      <point x="38.0" y="363.0" type="curve" smooth="yes"/>
      <point x="39.0" y="363.0" type="line" smooth="yes"/>
      <point x="49.0" y="363.0"/>
      <point x="55.0" y="353.0"/>
      <point x="53.0" y="346.0" type="curve" smooth="yes"/>
      <point x="45.0" y="311.0"/>
      <point x="41.0" y="284.0"/>
      <point x="38.0" y="254.0" type="curve" smooth="yes"/>
      <point x="20.0" y="47.0"/>
      <point x="185.0" y="-6.0"/>
      <point x="351.0" y="-6.0" type="curve" smooth="yes"/>
      <point x="518.0" y="-6.0"/>
      <point x="713.0" y="91.0"/>
      <point x="753.0" y="265.0" type="curve" smooth="yes"/>
      <point x="847.0" y="672.0"/>
      <point x="79.0" y="400.0"/>
      <point x="175.0" y="817.0" type="curve" smooth="yes"/>
      <point x="214.0" y="987.0"/>
      <point x="359.0" y="1084.0"/>
      <point x="568.0" y="1084.0" type="curve" smooth="yes"/>
      <point x="740.0" y="1084.0"/>
      <point x="890.0" y="999.0"/>
      <point x="867.0" y="814.0" type="curve" smooth="yes"/>
      <point x="865.0" y="791.0"/>
      <point x="860.0" y="769.0"/>
      <point x="854.0" y="742.0" type="curve" smooth="yes"/>
      <point x="852.0" y="735.0"/>
      <point x="847.0" y="727.0"/>
      <point x="840.0" y="727.0" type="curve" smooth="yes"/>
      <point x="839.0" y="727.0" type="line" smooth="yes"/>
      <point x="830.0" y="727.0"/>
      <point x="826.0" y="736.0"/>
      <point x="828.0" y="743.0" type="curve" smooth="yes"/>
      <point x="834.0" y="768.0"/>
      <point x="837.0" y="787.0"/>
      <point x="840.0" y="810.0" type="curve" smooth="yes"/>
      <point x="862.0" y="978.0"/>
      <point x="723.0" y="1059.0"/>
      <point x="567.0" y="1059.0" type="curve" smooth="yes"/>
      <point x="366.0" y="1059.0"/>
      <point x="239.0" y="963.0"/>
      <point x="205.0" y="816.0" type="curve" smooth="yes"/>
      <point x="116.0" y="431.0"/>
      <point x="885.0" y="696.0"/>
      <point x="785.0" y="262.0" type="curve" smooth="yes"/>
      <point x="743.0" y="82.0"/>
      <point x="558.0" y="-35.0"/>
      <point x="345.0" y="-35.0" type="curve" smooth="yes"/>
      <point x="183.0" y="-35.0"/>
      <point x="-12.0" y="22.0"/>
      <point x="6.0" y="248.0" type="curve" smooth="yes"/>
      <point x="8.0" y="280.0"/>
      <point x="15.0" y="311.0"/>
      <point x="23.0" y="347.0" type="curve" smooth="yes"/>
      <point x="25.0" y="354.0"/>
      <point x="29.0" y="363.0"/>
    </contour>
  </outline>
</glyph>
<glyph name="t" format="2">
  <advance height="1879" width="604"/>
  <unicode hex="0074"/>
  <anchor x="237.0" y="0.0" name="bottom"/>
  <outline>
    <contour>
      <point x="663.0" y="1025.0" type="curve" smooth="yes"/>
      <point x="167.0" y="1025.0" type="line" smooth="yes"/>
      <point x="154.0" y="1025.0"/>
      <point x="148.0" y="1026.0"/>
      <point x="148.0" y="1037.0" type="curve" smooth="yes"/>
      <point x="148.0" y="1038.0" type="line" smooth="yes"/>
      <point x="148.0" y="1049.0"/>
      <point x="154.0" y="1050.0"/>
      <point x="167.0" y="1050.0" type="curve" smooth="yes"/>
      <point x="663.0" y="1050.0" type="line" smooth="yes"/>
      <point x="676.0" y="1050.0"/>
      <point x="682.0" y="1049.0"/>
      <point x="682.0" y="1038.0" type="curve" smooth="yes"/>
      <point x="682.0" y="1037.0" type="line" smooth="yes"/>
      <point x="682.0" y="1026.0"/>
      <point x="676.0" y="1025.0"/>
    </contour>
    <contour>
      <point x="461.0" y="12.0" type="curve" smooth="yes"/>
      <point x="461.0" y="11.0" type="line" smooth="yes"/>
      <point x="461.0" y="3.0"/>
      <point x="451.0" y="0.0"/>
      <point x="438.0" y="-2.0" type="curve" smooth="yes"/>
      <point x="148.0" y="-37.0"/>
      <point x="132.0" y="44.0"/>
      <point x="180.0" y="252.0" type="curve" smooth="yes"/>
      <point x="442.0" y="1386.0" type="line" smooth="yes"/>
      <point x="445.0" y="1399.0"/>
      <point x="448.0" y="1406.0"/>
      <point x="459.0" y="1406.0" type="curve" smooth="yes"/>
      <point x="460.0" y="1406.0" type="line" smooth="yes"/>
      <point x="471.0" y="1406.0"/>
      <point x="470.0" y="1399.0"/>
      <point x="467.0" y="1386.0" type="curve" smooth="yes"/>
      <point x="205.0" y="252.0" type="line" smooth="yes"/>
      <point x="160.0" y="55.0"/>
      <point x="172.0" y="-11.0"/>
      <point x="443.0" y="19.0" type="curve" smooth="yes"/>
      <point x="454.0" y="20.0"/>
      <point x="461.0" y="21.0"/>
    </contour>
  </outline>
</glyph>
<glyph name="u" format="2">
  <advance height="1879" width="953"/>
  <unicode hex="0075"/>
  <anchor x="395.0" y="0.0" name="bottom"/>
  <anchor x="721.0" y="0.0" name="ogonek"/>
  <anchor x="608.0" y="1050.0" name="top"/>
  <outline>
    <contour>
      <point x="698.0" y="-4.0" type="curve" smooth="yes"/>
      <point x="696.0" y="-4.0" type="line" smooth="yes"/>
      <point x="687.0" y="-4.0"/>
      <point x="685.0" y="2.0"/>
      <point x="688.0" y="15.0" type="curve" smooth="yes"/>
      <point x="773.0" y="382.0" type="line"/>
      <point x="775.0" y="409.0" type="line"/>
      <point x="919.0" y="1033.0" type="line" smooth="yes"/>
      <point x="922.0" y="1046.0"/>
      <point x="927.0" y="1052.0"/>
      <point x="938.0" y="1052.0" type="curve" smooth="yes"/>
      <point x="940.0" y="1052.0" type="line" smooth="yes"/>
      <point x="951.0" y="1052.0"/>
      <point x="952.0" y="1046.0"/>
      <point x="949.0" y="1033.0" type="curve" smooth="yes"/>
      <point x="714.0" y="15.0" type="line" smooth="yes"/>
      <point x="711.0" y="2.0"/>
      <point x="707.0" y="-4.0"/>
    </contour>
    <contour>
      <point x="796.0" y="415.0" type="line"/>
      <point x="743.0" y="185.0"/>
      <point x="536.0" y="-35.0"/>
      <point x="313.0" y="-35.0" type="curve" smooth="yes"/>
      <point x="102.0" y="-35.0"/>
      <point x="22.0" y="85.0"/>
      <point x="75.0" y="316.0" type="curve" smooth="yes"/>
      <point x="240.0" y="1033.0" type="line" smooth="yes"/>
      <point x="243.0" y="1046.0"/>
      <point x="248.0" y="1052.0"/>
      <point x="259.0" y="1052.0" type="curve" smooth="yes"/>
      <point x="261.0" y="1052.0" type="line" smooth="yes"/>
      <point x="272.0" y="1052.0"/>
      <point x="273.0" y="1046.0"/>
      <point x="270.0" y="1033.0" type="curve" smooth="yes"/>
      <point x="105.0" y="316.0" type="line" smooth="yes"/>
      <point x="57.0" y="106.0"/>
      <point x="120.0" y="-10.0"/>
      <point x="315.0" y="-10.0" type="curve" smooth="yes"/>
      <point x="533.0" y="-10.0"/>
      <point x="729.0" y="207.0"/>
      <point x="777.0" y="417.0" type="curve"/>
    </contour>
  </outline>
</glyph>
<glyph name="v" format="2">
  <advance height="1879" width="855"/>
  <unicode hex="0076"/>
  <outline>
    <contour>
      <point x="310.0" y="39.0" type="line"/>
      <point x="915.0" y="1034.0" type="line" smooth="yes"/>
      <point x="922.0" y="1047.0"/>
      <point x="928.0" y="1053.0"/>
      <point x="938.0" y="1053.0" type="curve" smooth="yes"/>
      <point x="940.0" y="1053.0" type="line" smooth="yes"/>
      <point x="951.0" y="1053.0"/>
      <point x="959.0" y="1047.0"/>
      <point x="951.0" y="1034.0" type="curve" smooth="yes"/>
      <point x="330.0" y="16.0" type="line" smooth="yes"/>
      <point x="321.0" y="1.0"/>
      <point x="313.0" y="-3.0"/>
      <point x="303.0" y="-3.0" type="curve" smooth="yes"/>
      <point x="302.0" y="-3.0" type="line" smooth="yes"/>
      <point x="292.0" y="-3.0"/>
      <point x="288.0" y="2.0"/>
      <point x="286.0" y="16.0" type="curve" smooth="yes"/>
      <point x="142.0" y="1034.0" type="line" smooth="yes"/>
      <point x="141.0" y="1047.0"/>
      <point x="144.0" y="1053.0"/>
      <point x="152.0" y="1053.0" type="curve" smooth="yes"/>
      <point x="153.0" y="1053.0" type="line" smooth="yes"/>
      <point x="162.0" y="1053.0"/>
      <point x="165.0" y="1047.0"/>
      <point x="166.0" y="1034.0" type="curve" smooth="yes"/>
    </contour>
  </outline>
</glyph>
<glyph name="w" format="2">
  <advance height="1879" width="1358"/>
  <unicode hex="0077"/>
  <outline>
    <contour>
      <point x="870.0" y="48.0" type="line"/>
      <point x="1410.0" y="1034.0" type="line" smooth="yes"/>
      <point x="1417.0" y="1047.0"/>
      <point x="1421.0" y="1053.0"/>
      <point x="1428.0" y="1053.0" type="curve" smooth="yes"/>
      <point x="1429.0" y="1053.0" type="line" smooth="yes"/>
      <point x="1438.0" y="1053.0"/>
      <point x="1445.0" y="1047.0"/>
      <point x="1438.0" y="1034.0" type="curve" smooth="yes"/>
      <point x="882.0" y="16.0" type="line" smooth="yes"/>
      <point x="875.0" y="3.0"/>
      <point x="871.0" y="-3.0"/>
      <point x="860.0" y="-3.0" type="curve" smooth="yes"/>
      <point x="859.0" y="-3.0" type="line" smooth="yes"/>
      <point x="849.0" y="-3.0"/>
      <point x="849.0" y="2.0"/>
      <point x="848.0" y="16.0" type="curve" smooth="yes"/>
      <point x="804.0" y="1009.0" type="line"/>
      <point x="277.0" y="16.0" type="line" smooth="yes"/>
      <point x="270.0" y="2.0"/>
      <point x="264.0" y="-3.0"/>
      <point x="254.0" y="-3.0" type="curve" smooth="yes"/>
      <point x="253.0" y="-3.0" type="line" smooth="yes"/>
      <point x="242.0" y="-3.0"/>
      <point x="240.126151518" y="3.93005758195"/>
      <point x="239.0" y="18.0" type="curve" smooth="yes"/>
      <point x="158.0" y="1030.0" type="line" smooth="yes"/>
      <point x="156.0" y="1045.0"/>
      <point x="163.0" y="1053.0"/>
      <point x="173.0" y="1053.0" type="curve" smooth="yes"/>
      <point x="175.0" y="1053.0" type="line" smooth="yes"/>
      <point x="185.0" y="1053.0"/>
      <point x="187.0" y="1047.0"/>
      <point x="188.0" y="1034.0" type="curve" smooth="yes"/>
      <point x="265.0" y="48.0" type="line"/>
      <point x="792.0" y="1034.0" type="line" smooth="yes"/>
      <point x="799.0" y="1047.0"/>
      <point x="805.0" y="1053.0"/>
      <point x="815.0" y="1053.0" type="curve" smooth="yes"/>
      <point x="817.0" y="1053.0" type="line" smooth="yes"/>
      <point x="827.0" y="1053.0"/>
      <point x="830.0" y="1047.0"/>
      <point x="831.0" y="1034.0" type="curve" smooth="yes"/>
    </contour>
  </outline>
</glyph>
<glyph name="x" format="2">
  <advance height="1879" width="890"/>
  <unicode hex="0078"/>
  <outline>
    <contour>
      <point x="-62.0" y="-3.0" type="curve" smooth="yes"/>
      <point x="-63.0" y="-3.0" type="line" smooth="yes"/>
      <point x="-75.0" y="-3.0"/>
      <point x="-74.0" y="8.0"/>
      <point x="-61.0" y="22.0" type="curve" smooth="yes"/>
      <point x="440.0" y="550.0" type="line"/>
      <point x="185.0" y="1031.0" type="line" smooth="yes"/>
      <point x="178.0" y="1044.0"/>
      <point x="186.0" y="1053.0"/>
      <point x="196.0" y="1053.0" type="curve" smooth="yes"/>
      <point x="197.0" y="1053.0" type="line" smooth="yes"/>
      <point x="207.0" y="1053.0"/>
      <point x="213.0" y="1047.0"/>
      <point x="220.0" y="1034.0" type="curve" smooth="yes"/>
      <point x="458.0" y="564.0" type="line"/>
      <point x="909.0" y="1034.0" type="line" smooth="yes"/>
      <point x="922.0" y="1047.0"/>
      <point x="931.0" y="1053.0"/>
      <point x="940.0" y="1053.0" type="curve" smooth="yes"/>
      <point x="941.0" y="1053.0" type="line" smooth="yes"/>
      <point x="951.0" y="1053.0"/>
      <point x="954.0" y="1043.0"/>
      <point x="940.0" y="1029.0" type="curve" smooth="yes"/>
      <point x="471.0" y="547.0" type="line"/>
      <point x="721.0" y="23.0" type="line" smooth="yes"/>
      <point x="729.0" y="8.0"/>
      <point x="725.0" y="-3.0"/>
      <point x="713.0" y="-3.0" type="curve" smooth="yes"/>
      <point x="711.0" y="-3.0" type="line" smooth="yes"/>
      <point x="700.0" y="-3.0"/>
      <point x="699.0" y="4.0"/>
      <point x="693.0" y="16.0" type="curve" smooth="yes"/>
      <point x="452.0" y="529.0" type="line"/>
      <point x="-34.0" y="16.0" type="line" smooth="yes"/>
      <point x="-45.0" y="3.0"/>
      <point x="-52.0" y="-3.0"/>
    </contour>
  </outline>
</glyph>
<glyph name="y" format="2">
  <advance height="1879" width="878"/>
  <unicode hex="0079"/>
  <anchor x="577.0" y="1050.0" name="top"/>
  <outline>
    <contour>
      <point x="328.0" y="30.0" type="line"/>
      <point x="923.0" y="1040.0" type="line" smooth="yes"/>
      <point x="927.0" y="1047.0"/>
      <point x="932.0" y="1053.0"/>
      <point x="939.0" y="1053.0" type="curve" smooth="yes"/>
      <point x="940.0" y="1053.0" type="line" smooth="yes"/>
      <point x="950.0" y="1053.0"/>
      <point x="957.542179888" y="1042.93454157"/>
      <point x="950.0" y="1030.0" type="curve" smooth="yes"/>
      <point x="315.0" y="-59.0" type="line" smooth="yes"/>
      <point x="205.0" y="-248.0"/>
      <point x="90.0" y="-371.0"/>
      <point x="-9.0" y="-371.0" type="curve" smooth="yes"/>
      <point x="-138.0" y="-371.0"/>
      <point x="-67.9139315678" y="-202.483589407"/>
      <point x="-28.0" y="-115.0" type="curve" smooth="yes"/>
      <point x="-22.9502872887" y="-103.93201005"/>
      <point x="-18.0" y="-98.0"/>
      <point x="-12.0" y="-98.0" type="curve" smooth="yes"/>
      <point x="-11.0" y="-98.0" type="line" smooth="yes"/>
      <point x="0.0" y="-98.0"/>
      <point x="1.89826489769" y="-106.521282006"/>
      <point x="-2.0" y="-117.0" type="curve" smooth="yes"/>
      <point x="-34.0062211471" y="-203.034216309"/>
      <point x="-93.0" y="-340.0"/>
      <point x="-11.0" y="-340.0" type="curve" smooth="yes"/>
      <point x="93.0" y="-340.0"/>
      <point x="202.0" y="-197.0"/>
      <point x="303.0" y="-16.0" type="curve"/>
      <point x="159.0" y="1034.0" type="line" smooth="yes"/>
      <point x="158.0" y="1041.0"/>
      <point x="161.0" y="1053.0"/>
      <point x="172.0" y="1053.0" type="curve" smooth="yes"/>
      <point x="173.0" y="1053.0" type="line" smooth="yes"/>
      <point x="182.0" y="1053.0"/>
      <point x="186.202752779" y="1046.88883007"/>
      <point x="188.0" y="1034.0" type="curve" smooth="yes"/>
    </contour>
  </outline>
</glyph>
<glyph name="z" format="2">
  <advance height="1879" width="857"/>
  <unicode hex="007A"/>
  <anchor x="573.0" y="1050.0" name="top"/>
  <outline>
    <contour>
      <point x="-47.0" y="24.0" type="curve" smooth="yes"/>
      <point x="876.0" y="1020.0" type="line"/>
      <point x="244.0" y="1020.0" type="line" smooth="yes"/>
      <point x="229.0" y="1020.0"/>
      <point x="225.0" y="1021.0"/>
      <point x="225.0" y="1034.0" type="curve" smooth="yes"/>
      <point x="225.0" y="1035.0" type="line" smooth="yes"/>
      <point x="225.0" y="1048.0"/>
      <point x="229.0" y="1050.0"/>
      <point x="244.0" y="1050.0" type="curve" smooth="yes"/>
      <point x="921.0" y="1050.0" type="line" smooth="yes"/>
      <point x="936.0" y="1050.0"/>
      <point x="941.012421446" y="1040.98851203"/>
      <point x="929.0" y="1028.0" type="curve" smooth="yes"/>
      <point x="6.0" y="30.0" type="line"/>
      <point x="707.0" y="30.0" type="line" smooth="yes"/>
      <point x="720.0" y="30.0"/>
      <point x="726.0" y="27.0"/>
      <point x="726.0" y="16.0" type="curve" smooth="yes"/>
      <point x="726.0" y="15.0" type="line" smooth="yes"/>
      <point x="726.0" y="4.0"/>
      <point x="720.0" y="0.0"/>
      <point x="707.0" y="0.0" type="curve" smooth="yes"/>
      <point x="-45.0" y="0.0" type="line" smooth="yes"/>
      <point x="-59.0" y="0.0"/>
      <point x="-61.0" y="10.0"/>
    </contour>
  </outline>
</glyph>
<glyph name="braceleft" format="2">
  <advance height="2048" width="575"/>
  <unicode hex="007B"/>
  <outline>
    <contour>
      <point x="390.0" y="1278.0" type="line" smooth="yes"/>
      <point x="442.0" y="1505.0"/>
      <point x="518.0" y="1598.0"/>
      <point x="708.0" y="1600.0" type="curve" smooth="yes"/>
      <point x="721.0" y="1600.0"/>
      <point x="726.0" y="1595.0"/>
      <point x="724.0" y="1586.0" type="curve" smooth="yes"/>
      <point x="723.0" y="1582.0" type="line" smooth="yes"/>
      <point x="721.0" y="1572.0"/>
      <point x="713.0" y="1570.0"/>
      <point x="702.0" y="1569.0" type="curve" smooth="yes"/>
      <point x="527.0" y="1564.0"/>
      <point x="472.0" y="1482.0"/>
      <point x="425.0" y="1278.0" type="curve" smooth="yes"/>
      <point x="351.0" y="956.0" type="line" smooth="yes"/>
      <point x="308.0" y="771.0"/>
      <point x="226.0" y="668.0"/>
      <point x="59.0" y="620.0" type="curve"/>
      <point x="204.0" y="572.0"/>
      <point x="239.0" y="469.0"/>
      <point x="196.0" y="284.0" type="curve" smooth="yes"/>
      <point x="121.0" y="-38.0" type="line" smooth="yes"/>
      <point x="74.0" y="-241.0"/>
      <point x="91.0" y="-323.0"/>
      <point x="262.0" y="-329.0" type="curve" smooth="yes"/>
      <point x="274.0" y="-330.0"/>
      <point x="281.0" y="-332.0"/>
      <point x="279.0" y="-342.0" type="curve" smooth="yes"/>
      <point x="278.0" y="-346.0" type="line" smooth="yes"/>
      <point x="276.0" y="-355.0"/>
      <point x="269.0" y="-360.0"/>
      <point x="254.0" y="-360.0" type="curve" smooth="yes"/>
      <point x="67.0" y="-356.0"/>
      <point x="34.0" y="-265.0"/>
      <point x="86.0" y="-38.0" type="curve" smooth="yes"/>
      <point x="161.0" y="284.0" type="line" smooth="yes"/>
      <point x="210.0" y="497.0"/>
      <point x="132.0" y="569.0"/>
      <point x="44.0" y="601.0" type="curve" smooth="yes"/>
      <point x="34.0" y="605.0"/>
      <point x="30.0" y="609.0"/>
      <point x="32.0" y="619.0" type="curve" smooth="yes"/>
      <point x="32.0" y="620.0" type="line" smooth="yes"/>
      <point x="34.0" y="630.0"/>
      <point x="40.0" y="635.0"/>
      <point x="50.0" y="638.0" type="curve" smooth="yes"/>
      <point x="157.0" y="671.0"/>
      <point x="264.0" y="732.0"/>
      <point x="316.0" y="956.0" type="curve" smooth="yes"/>
    </contour>
  </outline>
</glyph>
<glyph name="bar" format="2">
  <advance height="1920" width="415"/>
  <unicode hex="007C"/>
  <outline>
    <contour>
      <point x="457.0" y="1603.0" type="curve" smooth="yes"/>
      <point x="458.0" y="1603.0" type="line" smooth="yes"/>
      <point x="469.0" y="1603.0"/>
      <point x="472.0" y="1597.0"/>
      <point x="469.0" y="1584.0" type="curve" smooth="yes"/>
      <point x="24.0" y="-344.0" type="line" smooth="yes"/>
      <point x="21.0" y="-357.0"/>
      <point x="16.0" y="-363.0"/>
      <point x="5.0" y="-363.0" type="curve" smooth="yes"/>
      <point x="3.0" y="-363.0" type="line" smooth="yes"/>
      <point x="-8.0" y="-363.0"/>
      <point x="-9.0" y="-357.0"/>
      <point x="-6.0" y="-344.0" type="curve" smooth="yes"/>
      <point x="439.0" y="1584.0" type="line" smooth="yes"/>
      <point x="442.0" y="1597.0"/>
      <point x="446.0" y="1603.0"/>
    </contour>
  </outline>
</glyph>
<glyph name="braceright" format="2">
  <advance height="2048" width="575"/>
  <unicode hex="007D"/>
  <outline>
    <contour>
      <point x="231.0" y="-38.0" type="line" smooth="yes"/>
      <point x="179.0" y="-265.0"/>
      <point x="103.0" y="-358.0"/>
      <point x="-87.0" y="-360.0" type="curve" smooth="yes"/>
      <point x="-100.0" y="-360.0"/>
      <point x="-105.0" y="-355.0"/>
      <point x="-103.0" y="-346.0" type="curve" smooth="yes"/>
      <point x="-102.0" y="-342.0" type="line" smooth="yes"/>
      <point x="-100.0" y="-332.0"/>
      <point x="-91.0" y="-330.0"/>
      <point x="-80.0" y="-329.0" type="curve" smooth="yes"/>
      <point x="95.0" y="-324.0"/>
      <point x="149.0" y="-242.0"/>
      <point x="196.0" y="-38.0" type="curve" smooth="yes"/>
      <point x="271.0" y="284.0" type="line" smooth="yes"/>
      <point x="314.0" y="469.0"/>
      <point x="395.0" y="572.0"/>
      <point x="562.0" y="620.0" type="curve"/>
      <point x="417.0" y="668.0"/>
      <point x="383.0" y="771.0"/>
      <point x="426.0" y="956.0" type="curve" smooth="yes"/>
      <point x="500.0" y="1278.0" type="line" smooth="yes"/>
      <point x="547.0" y="1481.0"/>
      <point x="530.0" y="1563.0"/>
      <point x="359.0" y="1569.0" type="curve" smooth="yes"/>
      <point x="347.0" y="1570.0"/>
      <point x="340.0" y="1572.0"/>
      <point x="342.0" y="1582.0" type="curve" smooth="yes"/>
      <point x="343.0" y="1586.0" type="line" smooth="yes"/>
      <point x="345.0" y="1595.0"/>
      <point x="352.0" y="1600.0"/>
      <point x="367.0" y="1600.0" type="curve" smooth="yes"/>
      <point x="554.0" y="1596.0"/>
      <point x="587.0" y="1505.0"/>
      <point x="535.0" y="1278.0" type="curve" smooth="yes"/>
      <point x="461.0" y="956.0" type="line" smooth="yes"/>
      <point x="412.0" y="743.0"/>
      <point x="490.0" y="671.0"/>
      <point x="578.0" y="639.0" type="curve" smooth="yes"/>
      <point x="588.0" y="635.0"/>
      <point x="591.0" y="631.0"/>
      <point x="589.0" y="621.0" type="curve" smooth="yes"/>
      <point x="589.0" y="620.0" type="line" smooth="yes"/>
      <point x="587.0" y="610.0"/>
      <point x="581.0" y="605.0"/>
      <point x="571.0" y="602.0" type="curve" smooth="yes"/>
      <point x="464.0" y="569.0"/>
      <point x="358.0" y="508.0"/>
      <point x="306.0" y="284.0" type="curve" smooth="yes"/>
    </contour>
  </outline>
</glyph>
<glyph name="asciitilde" format="2">
  <advance height="2048" width="1330"/>
  <unicode hex="007E"/>
  <outline>
    <contour>
      <point x="482.0" y="779.0" type="curve" smooth="yes"/>
      <point x="330.0" y="779.0"/>
      <point x="243.0" y="640.0"/>
      <point x="196.0" y="453.0" type="curve" smooth="yes"/>
      <point x="193.0" y="441.0"/>
      <point x="186.0" y="435.0"/>
      <point x="175.0" y="435.0" type="curve" smooth="yes"/>
      <point x="174.0" y="435.0" type="line" smooth="yes"/>
      <point x="163.0" y="435.0"/>
      <point x="163.0" y="441.0"/>
      <point x="166.0" y="453.0" type="curve" smooth="yes"/>
      <point x="218.0" y="655.0"/>
      <point x="318.0" y="809.0"/>
      <point x="489.0" y="809.0" type="curve" smooth="yes"/>
      <point x="698.0" y="809.0"/>
      <point x="697.0" y="432.0"/>
      <point x="889.0" y="432.0" type="curve" smooth="yes"/>
      <point x="1041.0" y="432.0"/>
      <point x="1128.0" y="570.0"/>
      <point x="1175.0" y="757.0" type="curve" smooth="yes"/>
      <point x="1178.0" y="770.0"/>
      <point x="1182.0" y="776.0"/>
      <point x="1193.0" y="776.0" type="curve" smooth="yes"/>
      <point x="1194.0" y="776.0" type="line" smooth="yes"/>
      <point x="1205.0" y="776.0"/>
      <point x="1207.0" y="770.0"/>
      <point x="1204.0" y="757.0" type="curve" smooth="yes"/>
      <point x="1152.0" y="555.0"/>
      <point x="1052.0" y="402.0"/>
      <point x="882.0" y="402.0" type="curve" smooth="yes"/>
      <point x="673.0" y="402.0"/>
      <point x="674.0" y="779.0"/>
    </contour>
  </outline>
</glyph>
<glyph name="exclamdown" format="2">
  <advance height="1920" width="540"/>
  <unicode hex="00A1"/>
  <outline>
    <contour>
      <point x="391.0" y="1053.0" type="curve" smooth="yes"/>
      <point x="395.0" y="1053.0" type="line" smooth="yes"/>
      <point x="408.0" y="1053.0"/>
      <point x="414.0" y="1044.0"/>
      <point x="411.0" y="1032.0" type="curve" smooth="yes"/>
      <point x="371.0" y="858.0" type="line" smooth="yes"/>
      <point x="368.0" y="846.0"/>
      <point x="358.0" y="837.0"/>
      <point x="345.0" y="837.0" type="curve" smooth="yes"/>
      <point x="341.0" y="837.0" type="line" smooth="yes"/>
      <point x="328.0" y="837.0"/>
      <point x="322.0" y="846.0"/>
      <point x="325.0" y="858.0" type="curve" smooth="yes"/>
      <point x="365.0" y="1032.0" type="line" smooth="yes"/>
      <point x="368.0" y="1044.0"/>
      <point x="378.0" y="1053.0"/>
    </contour>
    <contour>
      <point x="186.0" y="93.0" type="curve" smooth="yes"/>
      <point x="76.0" y="-384.0" type="line" smooth="yes"/>
      <point x="73.0" y="-397.0"/>
      <point x="67.0" y="-403.0"/>
      <point x="58.0" y="-403.0" type="curve" smooth="yes"/>
      <point x="56.0" y="-403.0" type="line" smooth="yes"/>
      <point x="47.0" y="-403.0"/>
      <point x="43.0" y="-397.0"/>
      <point x="46.0" y="-384.0" type="curve" smooth="yes"/>
      <point x="156.0" y="93.0" type="line" smooth="yes"/>
      <point x="159.0" y="104.0"/>
      <point x="182.0" y="195.0"/>
      <point x="185.0" y="206.0" type="curve" smooth="yes"/>
      <point x="279.0" y="606.0" type="line" smooth="yes"/>
      <point x="282.0" y="617.0"/>
      <point x="285.0" y="622.0"/>
      <point x="293.0" y="622.0" type="curve" smooth="yes"/>
      <point x="295.0" y="622.0" type="line" smooth="yes"/>
      <point x="303.0" y="622.0"/>
      <point x="304.0" y="617.0"/>
      <point x="301.0" y="606.0" type="curve" smooth="yes"/>
      <point x="211.0" y="206.0" type="line" smooth="yes"/>
      <point x="208.0" y="195.0"/>
      <point x="189.0" y="104.0"/>
    </contour>
  </outline>
</glyph>
<glyph name="cent" format="2">
  <advance height="1920" width="954"/>
  <unicode hex="00A2"/>
  <outline>
    <contour>
      <point x="671.0" y="1242.0" type="curve" smooth="yes"/>
      <point x="672.0" y="1242.0" type="line" smooth="yes"/>
      <point x="679.0" y="1242.0"/>
      <point x="683.0" y="1237.0"/>
      <point x="681.0" y="1230.0" type="curve" smooth="yes"/>
      <point x="355.0" y="-180.0" type="line" smooth="yes"/>
      <point x="353.0" y="-187.0"/>
      <point x="348.0" y="-192.0"/>
      <point x="341.0" y="-192.0" type="curve" smooth="yes"/>
      <point x="340.0" y="-192.0" type="line" smooth="yes"/>
      <point x="333.0" y="-192.0"/>
      <point x="328.0" y="-187.0"/>
      <point x="330.0" y="-180.0" type="curve" smooth="yes"/>
      <point x="656.0" y="1230.0" type="line" smooth="yes"/>
      <point x="658.0" y="1237.0"/>
      <point x="664.0" y="1242.0"/>
    </contour>
    <component base="c"/>
  </outline>
</glyph>
<glyph name="sterling" format="2">
  <advance height="1920" width="1280"/>
  <unicode hex="00A3"/>
  <outline>
    <contour>
      <point x="85.0" y="697.0" type="curve" smooth="yes"/>
      <point x="85.0" y="698.0" type="line" smooth="yes"/>
      <point x="87.0" y="708.0"/>
      <point x="96.0" y="710.0"/>
      <point x="109.0" y="710.0" type="curve" smooth="yes"/>
      <point x="759.0" y="710.0" type="line" smooth="yes"/>
      <point x="772.0" y="710.0"/>
      <point x="778.0" y="708.0"/>
      <point x="776.0" y="698.0" type="curve" smooth="yes"/>
      <point x="776.0" y="697.0" type="line" smooth="yes"/>
      <point x="774.0" y="687.0"/>
      <point x="766.0" y="685.0"/>
      <point x="753.0" y="685.0" type="curve" smooth="yes"/>
      <point x="103.0" y="685.0" type="line" smooth="yes"/>
      <point x="90.0" y="685.0"/>
      <point x="83.0" y="687.0"/>
    </contour>
    <contour>
      <point x="-23.0" y="38.0" type="curve" smooth="yes"/>
      <point x="119.0" y="152.0"/>
      <point x="280.0" y="309.0"/>
      <point x="327.0" y="514.0" type="curve" smooth="yes"/>
      <point x="377.0" y="732.0"/>
      <point x="208.0" y="815.0"/>
      <point x="261.0" y="1043.0" type="curve" smooth="yes"/>
      <point x="314.0" y="1273.0"/>
      <point x="479.0" y="1435.0"/>
      <point x="766.0" y="1435.0" type="curve" smooth="yes"/>
      <point x="1060.0" y="1435.0"/>
      <point x="1108.0" y="1266.0"/>
      <point x="1056.0" y="977.0" type="curve" smooth="yes"/>
      <point x="1053.0" y="963.0"/>
      <point x="1048.0" y="957.0"/>
      <point x="1037.0" y="957.0" type="curve" smooth="yes"/>
      <point x="1036.0" y="957.0" type="line" smooth="yes"/>
      <point x="1025.0" y="957.0"/>
      <point x="1024.0" y="963.0"/>
      <point x="1026.0" y="977.0" type="curve" smooth="yes"/>
      <point x="1074.0" y="1256.0"/>
      <point x="1024.0" y="1405.0"/>
      <point x="759.0" y="1405.0" type="curve" smooth="yes"/>
      <point x="492.0" y="1405.0"/>
      <point x="339.0" y="1253.0"/>
      <point x="291.0" y="1043.0" type="curve" smooth="yes"/>
      <point x="240.0" y="822.0"/>
      <point x="409.0" y="740.0"/>
      <point x="357.0" y="514.0" type="curve" smooth="yes"/>
      <point x="315.0" y="332.0"/>
      <point x="144.0" y="121.0"/>
      <point x="5.0" y="35.0" type="curve"/>
      <point x="912.0" y="35.0" type="line" smooth="yes"/>
      <point x="925.0" y="35.0"/>
      <point x="931.0" y="29.0"/>
      <point x="928.0" y="18.0" type="curve" smooth="yes"/>
      <point x="928.0" y="17.0" type="line" smooth="yes"/>
      <point x="925.0" y="6.0"/>
      <point x="917.0" y="0.0"/>
      <point x="904.0" y="0.0" type="curve" smooth="yes"/>
      <point x="-24.0" y="0.0" type="line" smooth="yes"/>
      <point x="-37.0" y="0.0"/>
      <point x="-45.0" y="4.0"/>
      <point x="-42.0" y="15.0" type="curve" smooth="yes"/>
      <point x="-41.0" y="17.0" type="line" smooth="yes"/>
      <point x="-39.0" y="25.0"/>
      <point x="-34.0" y="30.0"/>
    </contour>
  </outline>
</glyph>
<glyph name="currency" format="2">
  <advance width="1112"/>
  <unicode hex="00A4"/>
  <outline>
    <contour>
      <point x="1155.0" y="1164.0" type="curve" smooth="yes"/>
      <point x="1156.0" y="1163.0" type="line" smooth="yes"/>
      <point x="1162.0" y="1155.0"/>
      <point x="1157.0" y="1147.0"/>
      <point x="1146.0" y="1138.0" type="curve" smooth="yes"/>
      <point x="1024.0" y="1039.0" type="line" smooth="yes"/>
      <point x="1018.0" y="1034.0"/>
      <point x="1014.0" y="1034.0"/>
      <point x="1010.0" y="1039.0" type="curve" smooth="yes"/>
      <point x="1004.0" y="1047.0" type="line" smooth="yes"/>
      <point x="1000.0" y="1052.0"/>
      <point x="1001.0" y="1057.0"/>
      <point x="1007.0" y="1062.0" type="curve" smooth="yes"/>
      <point x="1128.0" y="1160.0" type="line" smooth="yes"/>
      <point x="1139.0" y="1169.0"/>
      <point x="1149.0" y="1172.0"/>
    </contour>
    <contour>
      <point x="189.0" y="386.0" type="curve" smooth="yes"/>
      <point x="195.0" y="378.0" type="line" smooth="yes"/>
      <point x="199.0" y="373.0"/>
      <point x="198.0" y="368.0"/>
      <point x="192.0" y="363.0" type="curve" smooth="yes"/>
      <point x="59.0" y="255.0" type="line" smooth="yes"/>
      <point x="48.0" y="246.0"/>
      <point x="38.0" y="242.0"/>
      <point x="32.0" y="250.0" type="curve" smooth="yes"/>
      <point x="31.0" y="251.0" type="line" smooth="yes"/>
      <point x="25.0" y="259.0"/>
      <point x="30.0" y="268.0"/>
      <point x="41.0" y="277.0" type="curve" smooth="yes"/>
      <point x="175.0" y="386.0" type="line" smooth="yes"/>
      <point x="181.0" y="391.0"/>
      <point x="185.0" y="391.0"/>
    </contour>
    <contour>
      <point x="242.0" y="1164.0" type="curve" smooth="yes"/>
      <point x="243.0" y="1165.0" type="line" smooth="yes"/>
      <point x="253.0" y="1173.0"/>
      <point x="261.0" y="1169.0"/>
      <point x="268.0" y="1160.0" type="curve" smooth="yes"/>
      <point x="351.0" y="1052.0" type="line" smooth="yes"/>
      <point x="355.0" y="1047.0"/>
      <point x="353.0" y="1042.0"/>
      <point x="347.0" y="1037.0" type="curve" smooth="yes"/>
      <point x="338.0" y="1029.0" type="line" smooth="yes"/>
      <point x="332.0" y="1024.0"/>
      <point x="328.0" y="1024.0"/>
      <point x="324.0" y="1029.0" type="curve" smooth="yes"/>
      <point x="240.0" y="1138.0" type="line" smooth="yes"/>
      <point x="233.0" y="1147.0"/>
      <point x="232.0" y="1156.0"/>
    </contour>
    <contour>
      <point x="847.0" y="368.0" type="curve" smooth="yes"/>
      <point x="857.0" y="376.0" type="line" smooth="yes"/>
      <point x="863.0" y="381.0"/>
      <point x="867.0" y="381.0"/>
      <point x="871.0" y="376.0" type="curve" smooth="yes"/>
      <point x="947.0" y="277.0" type="line" smooth="yes"/>
      <point x="954.0" y="268.0"/>
      <point x="955.0" y="259.0"/>
      <point x="945.0" y="251.0" type="curve" smooth="yes"/>
      <point x="944.0" y="250.0" type="line" smooth="yes"/>
      <point x="934.0" y="242.0"/>
      <point x="926.0" y="246.0"/>
      <point x="919.0" y="255.0" type="curve" smooth="yes"/>
      <point x="843.0" y="353.0" type="line" smooth="yes"/>
      <point x="839.0" y="358.0"/>
      <point x="841.0" y="363.0"/>
    </contour>
    <contour>
      <point x="107.0" y="710.0" type="curve" smooth="yes"/>
      <point x="169.0" y="979.0"/>
      <point x="441.0" y="1200.0"/>
      <point x="710.0" y="1200.0" type="curve" smooth="yes"/>
      <point x="979.0" y="1200.0"/>
      <point x="1149.0" y="979.0"/>
      <point x="1087.0" y="710.0" type="curve" smooth="yes"/>
      <point x="1025.0" y="441.0"/>
      <point x="753.0" y="220.0"/>
      <point x="484.0" y="220.0" type="curve" smooth="yes"/>
      <point x="215.0" y="220.0"/>
      <point x="45.0" y="441.0"/>
    </contour>
    <contour>
      <point x="137.0" y="710.0" type="curve" smooth="yes"/>
      <point x="77.0" y="451.0"/>
      <point x="242.0" y="250.0"/>
      <point x="491.0" y="250.0" type="curve" smooth="yes"/>
      <point x="740.0" y="250.0"/>
      <point x="997.0" y="451.0"/>
      <point x="1057.0" y="710.0" type="curve" smooth="yes"/>
      <point x="1114.0" y="959.0"/>
      <point x="952.0" y="1170.0"/>
      <point x="703.0" y="1170.0" type="curve" smooth="yes"/>
      <point x="454.0" y="1170.0"/>
      <point x="194.0" y="959.0"/>
    </contour>
  </outline>
</glyph>
<glyph name="yen" format="2">
  <advance height="1920" width="1125"/>
  <unicode hex="00A5"/>
  <outline>
    <contour>
      <point x="106.0" y="385.0" type="curve" smooth="yes"/>
      <point x="106.0" y="390.0" type="line" smooth="yes"/>
      <point x="106.0" y="397.0"/>
      <point x="109.0" y="400.0"/>
      <point x="116.0" y="400.0" type="curve" smooth="yes"/>
      <point x="996.0" y="400.0" type="line" smooth="yes"/>
      <point x="1003.0" y="400.0"/>
      <point x="1006.0" y="397.0"/>
      <point x="1006.0" y="390.0" type="curve" smooth="yes"/>
      <point x="1006.0" y="385.0" type="line" smooth="yes"/>
      <point x="1006.0" y="378.0"/>
      <point x="1003.0" y="375.0"/>
      <point x="996.0" y="375.0" type="curve" smooth="yes"/>
      <point x="116.0" y="375.0" type="line" smooth="yes"/>
      <point x="109.0" y="375.0"/>
      <point x="106.0" y="378.0"/>
    </contour>
    <contour>
      <point x="146.0" y="555.0" type="curve" smooth="yes"/>
      <point x="146.0" y="560.0" type="line" smooth="yes"/>
      <point x="146.0" y="567.0"/>
      <point x="149.0" y="570.0"/>
      <point x="156.0" y="570.0" type="curve" smooth="yes"/>
      <point x="1036.0" y="570.0" type="line" smooth="yes"/>
      <point x="1043.0" y="570.0"/>
      <point x="1046.0" y="567.0"/>
      <point x="1046.0" y="560.0" type="curve" smooth="yes"/>
      <point x="1046.0" y="555.0" type="line" smooth="yes"/>
      <point x="1046.0" y="548.0"/>
      <point x="1043.0" y="545.0"/>
      <point x="1036.0" y="545.0" type="curve" smooth="yes"/>
      <point x="156.0" y="545.0" type="line" smooth="yes"/>
      <point x="149.0" y="545.0"/>
      <point x="146.0" y="548.0"/>
    </contour>
    <component base="Y"/>
  </outline>
</glyph>
<glyph name="brokenbar" format="2">
  <advance height="1920" width="415"/>
  <unicode hex="00A6"/>
  <outline>
    <contour>
      <point x="184.0" y="433.0" type="curve" smooth="yes"/>
      <point x="192.0" y="433.0" type="line" smooth="yes"/>
      <point x="203.0" y="433.0"/>
      <point x="207.0" y="427.0"/>
      <point x="204.0" y="414.0" type="curve" smooth="yes"/>
      <point x="29.0" y="-344.0" type="line" smooth="yes"/>
      <point x="26.0" y="-357.0"/>
      <point x="19.0" y="-363.0"/>
      <point x="8.0" y="-363.0" type="curve" smooth="yes"/>
      <point x="0.0" y="-363.0" type="line" smooth="yes"/>
      <point x="-11.0" y="-363.0"/>
      <point x="-14.0" y="-357.0"/>
      <point x="-11.0" y="-344.0" type="curve" smooth="yes"/>
      <point x="164.0" y="414.0" type="line" smooth="yes"/>
      <point x="167.0" y="427.0"/>
      <point x="173.0" y="433.0"/>
    </contour>
    <contour>
      <point x="454.0" y="1603.0" type="curve" smooth="yes"/>
      <point x="462.0" y="1603.0" type="line" smooth="yes"/>
      <point x="473.0" y="1603.0"/>
      <point x="477.0" y="1597.0"/>
      <point x="474.0" y="1584.0" type="curve" smooth="yes"/>
      <point x="299.0" y="826.0" type="line" smooth="yes"/>
      <point x="296.0" y="813.0"/>
      <point x="289.0" y="807.0"/>
      <point x="278.0" y="807.0" type="curve" smooth="yes"/>
      <point x="270.0" y="807.0" type="line" smooth="yes"/>
      <point x="259.0" y="807.0"/>
      <point x="256.0" y="813.0"/>
      <point x="259.0" y="826.0" type="curve" smooth="yes"/>
      <point x="434.0" y="1584.0" type="line" smooth="yes"/>
      <point x="437.0" y="1597.0"/>
      <point x="443.0" y="1603.0"/>
    </contour>
  </outline>
</glyph>
<glyph name="copyright" format="2">
  <advance width="1484"/>
  <unicode hex="00A9"/>
  <outline>
    <contour>
      <point x="1061.0" y="545.0" type="curve" smooth="yes"/>
      <point x="1020.0" y="399.0"/>
      <point x="863.0" y="229.0"/>
      <point x="674.0" y="229.0" type="curve" smooth="yes"/>
      <point x="442.0" y="229.0"/>
      <point x="384.0" y="393.0"/>
      <point x="437.0" y="621.0" type="curve" smooth="yes"/>
      <point x="460.0" y="720.0" type="line" smooth="yes"/>
      <point x="513.0" y="948.0"/>
      <point x="645.0" y="1111.0"/>
      <point x="877.0" y="1111.0" type="curve" smooth="yes"/>
      <point x="947.0" y="1111.0"/>
      <point x="1165.0" y="1093.0"/>
      <point x="1111.0" y="839.0" type="curve" smooth="yes"/>
      <point x="1109.0" y="831.0"/>
      <point x="1106.0" y="826.0"/>
      <point x="1100.0" y="826.0" type="curve" smooth="yes"/>
      <point x="1099.0" y="826.0" type="line" smooth="yes"/>
      <point x="1092.0" y="826.0"/>
      <point x="1091.0" y="831.0"/>
      <point x="1093.0" y="839.0" type="curve" smooth="yes"/>
      <point x="1126.0" y="996.0"/>
      <point x="1049.0" y="1093.0"/>
      <point x="879.0" y="1093.0" type="curve" smooth="yes"/>
      <point x="653.0" y="1093.0"/>
      <point x="528.0" y="936.0"/>
      <point x="478.0" y="720.0" type="curve" smooth="yes"/>
      <point x="455.0" y="621.0" type="line" smooth="yes"/>
      <point x="405.0" y="405.0"/>
      <point x="458.0" y="247.0"/>
      <point x="684.0" y="247.0" type="curve" smooth="yes"/>
      <point x="825.0" y="247.0"/>
      <point x="992.0" y="377.0"/>
      <point x="1043.0" y="545.0" type="curve" smooth="yes"/>
      <point x="1045.0" y="553.0"/>
      <point x="1048.0" y="558.0"/>
      <point x="1055.0" y="558.0" type="curve" smooth="yes"/>
      <point x="1056.0" y="558.0" type="line" smooth="yes"/>
      <point x="1063.0" y="558.0"/>
      <point x="1063.0" y="553.0"/>
    </contour>
    <contour>
      <point x="1473.0" y="668.0" type="curve" smooth="yes"/>
      <point x="1384.0" y="284.0"/>
      <point x="999.0" y="-28.0"/>
      <point x="615.0" y="-28.0" type="curve" smooth="yes"/>
      <point x="231.0" y="-28.0"/>
      <point x="-10.0" y="284.0"/>
      <point x="79.0" y="668.0" type="curve" smooth="yes"/>
      <point x="168.0" y="1052.0"/>
      <point x="552.0" y="1366.0"/>
      <point x="936.0" y="1366.0" type="curve" smooth="yes"/>
      <point x="1320.0" y="1366.0"/>
      <point x="1562.0" y="1052.0"/>
    </contour>
    <contour>
      <point x="1443.0" y="668.0" type="curve" smooth="yes"/>
      <point x="1528.0" y="1036.0"/>
      <point x="1297.0" y="1336.0"/>
      <point x="929.0" y="1336.0" type="curve" smooth="yes"/>
      <point x="561.0" y="1336.0"/>
      <point x="194.0" y="1036.0"/>
      <point x="109.0" y="668.0" type="curve" smooth="yes"/>
      <point x="24.0" y="300.0"/>
      <point x="253.0" y="2.0"/>
      <point x="621.0" y="2.0" type="curve" smooth="yes"/>
      <point x="989.0" y="2.0"/>
      <point x="1358.0" y="300.0"/>
    </contour>
  </outline>
</glyph>
<glyph name="ordfeminine" format="2">
  <advance height="1920" width="847"/>
  <unicode hex="00AA"/>
  <outline>
    <contour>
      <point x="243.0" y="834.0" type="curve" smooth="yes"/>
      <point x="217.0" y="720.0"/>
      <point x="246.0" y="639.0"/>
      <point x="374.0" y="639.0" type="curve" smooth="yes"/>
      <point x="578.0" y="639.0"/>
      <point x="704.0" y="806.0"/>
      <point x="738.0" y="952.0" type="curve"/>
      <point x="746.0" y="902.0" type="line"/>
      <point x="713.0" y="759.0"/>
      <point x="558.0" y="609.0"/>
      <point x="367.0" y="609.0" type="curve" smooth="yes"/>
      <point x="218.0" y="609.0"/>
      <point x="184.0" y="709.0"/>
      <point x="213.0" y="834.0" type="curve" smooth="yes"/>
      <point x="243.0" y="965.0"/>
      <point x="303.0" y="1040.0"/>
      <point x="548.0" y="1079.0" type="curve" smooth="yes"/>
      <point x="678.0" y="1099.0"/>
      <point x="786.0" y="1159.0"/>
      <point x="805.0" y="1242.0" type="curve"/>
      <point x="806.0" y="1202.0" type="line"/>
      <point x="791.0" y="1139.0"/>
      <point x="668.0" y="1074.0"/>
      <point x="549.0" y="1054.0" type="curve" smooth="yes"/>
      <point x="332.0" y="1017.0"/>
      <point x="271.0" y="954.0"/>
    </contour>
    <contour>
      <point x="715.0" y="852.0" type="curve" smooth="yes"/>
      <point x="809.0" y="1262.0" type="line" smooth="yes"/>
      <point x="841.0" y="1402.0"/>
      <point x="780.0" y="1459.0"/>
      <point x="655.0" y="1459.0" type="curve" smooth="yes"/>
      <point x="496.0" y="1459.0"/>
      <point x="405.0" y="1363.0"/>
      <point x="363.0" y="1230.0" type="curve" smooth="yes"/>
      <point x="360.0" y="1220.0"/>
      <point x="355.0" y="1215.0"/>
      <point x="345.0" y="1215.0" type="curve" smooth="yes"/>
      <point x="344.0" y="1215.0" type="line" smooth="yes"/>
      <point x="334.0" y="1215.0"/>
      <point x="330.0" y="1221.0"/>
      <point x="334.0" y="1232.0" type="curve" smooth="yes"/>
      <point x="392.0" y="1380.0"/>
      <point x="478.0" y="1489.0"/>
      <point x="662.0" y="1489.0" type="curve" smooth="yes"/>
      <point x="822.0" y="1489.0"/>
      <point x="874.0" y="1415.0"/>
      <point x="838.0" y="1257.0" type="curve" smooth="yes"/>
      <point x="745.0" y="852.0" type="line" smooth="yes"/>
      <point x="724.0" y="760.0"/>
      <point x="728.0" y="699.0"/>
      <point x="753.0" y="656.0" type="curve" smooth="yes"/>
      <point x="758.0" y="647.0"/>
      <point x="753.0" y="639.0"/>
      <point x="743.0" y="639.0" type="curve" smooth="yes"/>
      <point x="741.0" y="639.0" type="line" smooth="yes"/>
      <point x="731.0" y="639.0"/>
      <point x="724.0" y="647.0"/>
      <point x="720.0" y="654.0" type="curve" smooth="yes"/>
      <point x="695.0" y="697.0"/>
      <point x="694.0" y="759.0"/>
    </contour>
  </outline>
</glyph>
<glyph name="logicalnot" format="2">
  <advance height="2048" width="1150"/>
  <unicode hex="00AC"/>
  <outline>
    <contour>
      <point x="164.0" y="681.0" type="curve" smooth="yes"/>
      <point x="165.0" y="684.0" type="line" smooth="yes"/>
      <point x="168.0" y="695.0"/>
      <point x="175.0" y="700.0"/>
      <point x="188.0" y="700.0" type="curve" smooth="yes"/>
      <point x="999.0" y="700.0" type="line" smooth="yes"/>
      <point x="1015.0" y="700.0"/>
      <point x="1020.0" y="693.0"/>
      <point x="1016.0" y="677.0" type="curve" smooth="yes"/>
      <point x="936.0" y="331.0" type="line" smooth="yes"/>
      <point x="933.0" y="318.0"/>
      <point x="928.0" y="312.0"/>
      <point x="918.0" y="312.0" type="curve" smooth="yes"/>
      <point x="917.0" y="312.0" type="line" smooth="yes"/>
      <point x="907.0" y="312.0"/>
      <point x="903.0" y="318.0"/>
      <point x="906.0" y="331.0" type="curve" smooth="yes"/>
      <point x="984.0" y="665.0" type="line"/>
      <point x="180.0" y="665.0" type="line" smooth="yes"/>
      <point x="167.0" y="665.0"/>
      <point x="161.0" y="670.0"/>
    </contour>
  </outline>
</glyph>
<glyph name="registered" format="2">
  <advance width="1484"/>
  <unicode hex="00AE"/>
  <outline>
    <contour>
      <point x="629.0" y="1072.0" type="line"/>
      <point x="540.0" y="685.0" type="line"/>
      <point x="828.0" y="685.0" type="line" smooth="yes"/>
      <point x="940.0" y="685.0"/>
      <point x="1054.0" y="741.0"/>
      <point x="1080.0" y="855.0" type="curve" smooth="yes"/>
      <point x="1085.0" y="875.0" type="line" smooth="yes"/>
      <point x="1114.0" y="1001.0"/>
      <point x="1059.0" y="1072.0"/>
      <point x="917.0" y="1072.0" type="curve" smooth="yes"/>
    </contour>
    <contour>
      <point x="922.0" y="1090.0" type="line" smooth="yes"/>
      <point x="1070.0" y="1090.0"/>
      <point x="1135.0" y="1013.0"/>
      <point x="1103.0" y="875.0" type="curve" smooth="yes"/>
      <point x="1100.0" y="861.0" type="line" smooth="yes"/>
      <point x="1071.0" y="735.0"/>
      <point x="968.0" y="676.0"/>
      <point x="826.0" y="676.0" type="curve"/>
      <point x="827.0" y="682.0" type="line"/>
      <point x="981.0" y="682.0"/>
      <point x="1044.0" y="647.0"/>
      <point x="1011.0" y="503.0" type="curve" smooth="yes"/>
      <point x="998.0" y="447.0" type="line" smooth="yes"/>
      <point x="982.0" y="379.0"/>
      <point x="983.0" y="306.0"/>
      <point x="1001.0" y="266.0" type="curve" smooth="yes"/>
      <point x="1004.0" y="258.0"/>
      <point x="1005.0" y="255.0"/>
      <point x="1005.0" y="253.0" type="curve" smooth="yes"/>
      <point x="1005.0" y="252.0" type="line" smooth="yes"/>
      <point x="1004.0" y="248.0"/>
      <point x="1002.0" y="245.0"/>
      <point x="996.0" y="245.0" type="curve" smooth="yes"/>
      <point x="995.0" y="245.0" type="line" smooth="yes"/>
      <point x="989.0" y="245.0"/>
      <point x="985.0" y="250.0"/>
      <point x="983.0" y="257.0" type="curve" smooth="yes"/>
      <point x="963.0" y="315.0"/>
      <point x="961.0" y="371.0"/>
      <point x="979.0" y="447.0" type="curve" smooth="yes"/>
      <point x="992.0" y="503.0" type="line" smooth="yes"/>
      <point x="1025.0" y="647.0"/>
      <point x="955.0" y="673.0"/>
      <point x="825.0" y="673.0" type="curve" smooth="yes"/>
      <point x="537.0" y="673.0" type="line"/>
      <point x="442.0" y="260.0" type="line" smooth="yes"/>
      <point x="440.0" y="252.0"/>
      <point x="437.0" y="248.0"/>
      <point x="430.0" y="248.0" type="curve" smooth="yes"/>
      <point x="429.0" y="248.0" type="line" smooth="yes"/>
      <point x="422.0" y="248.0"/>
      <point x="422.0" y="252.0"/>
      <point x="424.0" y="260.0" type="curve" smooth="yes"/>
      <point x="612.0" y="1076.0" type="line" smooth="yes"/>
      <point x="614.0" y="1085.0"/>
      <point x="621.0" y="1090.0"/>
      <point x="630.0" y="1090.0" type="curve" smooth="yes"/>
    </contour>
    <contour>
      <point x="1473.0" y="668.0" type="curve" smooth="yes"/>
      <point x="1384.0" y="284.0"/>
      <point x="999.0" y="-28.0"/>
      <point x="615.0" y="-28.0" type="curve" smooth="yes"/>
      <point x="231.0" y="-28.0"/>
      <point x="-10.0" y="284.0"/>
      <point x="79.0" y="668.0" type="curve" smooth="yes"/>
      <point x="168.0" y="1052.0"/>
      <point x="552.0" y="1366.0"/>
      <point x="936.0" y="1366.0" type="curve" smooth="yes"/>
      <point x="1320.0" y="1366.0"/>
      <point x="1562.0" y="1052.0"/>
    </contour>
    <contour>
      <point x="1443.0" y="668.0" type="curve" smooth="yes"/>
      <point x="1528.0" y="1036.0"/>
      <point x="1297.0" y="1336.0"/>
      <point x="929.0" y="1336.0" type="curve" smooth="yes"/>
      <point x="561.0" y="1336.0"/>
      <point x="194.0" y="1036.0"/>
      <point x="109.0" y="668.0" type="curve" smooth="yes"/>
      <point x="24.0" y="300.0"/>
      <point x="253.0" y="2.0"/>
      <point x="621.0" y="2.0" type="curve" smooth="yes"/>
      <point x="989.0" y="2.0"/>
      <point x="1358.0" y="300.0"/>
    </contour>
  </outline>
</glyph>
<glyph name="plusminus" format="2">
  <advance width="1168"/>
  <unicode hex="00B1"/>
  <outline>
    <contour>
      <point x="43.0" y="262.0" type="curve" smooth="yes"/>
      <point x="43.0" y="263.0" type="line" smooth="yes"/>
      <point x="43.0" y="272.0"/>
      <point x="49.0" y="275.0"/>
      <point x="61.0" y="275.0" type="curve" smooth="yes"/>
      <point x="981.0" y="275.0" type="line" smooth="yes"/>
      <point x="993.0" y="275.0"/>
      <point x="999.0" y="270.0"/>
      <point x="999.0" y="263.0" type="curve" smooth="yes"/>
      <point x="999.0" y="262.0" type="line" smooth="yes"/>
      <point x="999.0" y="255.0"/>
      <point x="993.0" y="250.0"/>
      <point x="981.0" y="250.0" type="curve" smooth="yes"/>
      <point x="61.0" y="250.0" type="line" smooth="yes"/>
      <point x="49.0" y="250.0"/>
      <point x="43.0" y="253.0"/>
    </contour>
    <contour>
      <point x="220.0" y="1040.0" type="curve" smooth="yes"/>
      <point x="220.0" y="1045.0" type="line" smooth="yes"/>
      <point x="220.0" y="1055.0"/>
      <point x="228.0" y="1060.0"/>
      <point x="240.0" y="1060.0" type="curve" smooth="yes"/>
      <point x="1160.0" y="1060.0" type="line" smooth="yes"/>
      <point x="1172.0" y="1060.0"/>
      <point x="1180.0" y="1055.0"/>
      <point x="1180.0" y="1045.0" type="curve" smooth="yes"/>
      <point x="1180.0" y="1040.0" type="line" smooth="yes"/>
      <point x="1180.0" y="1030.0"/>
      <point x="1172.0" y="1025.0"/>
      <point x="1160.0" y="1025.0" type="curve" smooth="yes"/>
      <point x="240.0" y="1025.0" type="line" smooth="yes"/>
      <point x="228.0" y="1025.0"/>
      <point x="220.0" y="1030.0"/>
    </contour>
    <contour>
      <point x="805.0" y="1498.0" type="curve" smooth="yes"/>
      <point x="807.0" y="1498.0" type="line" smooth="yes"/>
      <point x="817.0" y="1498.0"/>
      <point x="819.0" y="1491.0"/>
      <point x="816.0" y="1479.0" type="curve" smooth="yes"/>
      <point x="609.0" y="581.0" type="line" smooth="yes"/>
      <point x="606.0" y="569.0"/>
      <point x="601.0" y="561.0"/>
      <point x="591.0" y="561.0" type="curve" smooth="yes"/>
      <point x="589.0" y="561.0" type="line" smooth="yes"/>
      <point x="579.0" y="561.0"/>
      <point x="576.0" y="569.0"/>
      <point x="579.0" y="581.0" type="curve" smooth="yes"/>
      <point x="786.0" y="1479.0" type="line" smooth="yes"/>
      <point x="789.0" y="1491.0"/>
      <point x="795.0" y="1498.0"/>
    </contour>
  </outline>
</glyph>
<glyph name="acute" format="2">
  <advance width="619"/>
  <unicode hex="00B4"/>
  <outline>
    <contour>
      <point x="290.0" y="1102.0" type="line" smooth="yes"/>
      <point x="281.0" y="1102.0"/>
      <point x="273.0" y="1110.0"/>
      <point x="284.0" y="1121.0" type="curve" smooth="yes"/>
      <point x="550.0" y="1387.0" type="line" smooth="yes"/>
      <point x="567.0" y="1404.0"/>
      <point x="582.0" y="1414.0"/>
      <point x="593.0" y="1414.0" type="curve" smooth="yes"/>
      <point x="596.0" y="1414.0" type="line" smooth="yes"/>
      <point x="618.0" y="1414.0"/>
      <point x="624.0" y="1392.0"/>
      <point x="611.0" y="1380.0" type="curve" smooth="yes"/>
      <point x="327.0" y="1118.0" type="line" smooth="yes"/>
      <point x="316.0" y="1108.0"/>
      <point x="304.0" y="1102.0"/>
      <point x="295.0" y="1102.0" type="curve" smooth="yes"/>
    </contour>
  </outline>
</glyph>
<glyph name="mu" format="2">
  <advance height="1920" width="1110"/>
  <unicode hex="00B5"/>
  <outline>
    <contour>
      <point x="339.0" y="1052.0" type="curve" smooth="yes"/>
      <point x="343.0" y="1052.0" type="line" smooth="yes"/>
      <point x="350.0" y="1052.0"/>
      <point x="355.0" y="1047.0"/>
      <point x="353.0" y="1040.0" type="curve" smooth="yes"/>
      <point x="32.0" y="-350.0" type="line" smooth="yes"/>
      <point x="30.0" y="-359.0"/>
      <point x="22.0" y="-365.0"/>
      <point x="15.0" y="-365.0" type="curve" smooth="yes"/>
      <point x="13.0" y="-365.0" type="line" smooth="yes"/>
      <point x="6.0" y="-365.0"/>
      <point x="0.0" y="-359.0"/>
      <point x="2.0" y="-350.0" type="curve" smooth="yes"/>
      <point x="323.0" y="1040.0" type="line" smooth="yes"/>
      <point x="325.0" y="1047.0"/>
      <point x="332.0" y="1052.0"/>
    </contour>
    <contour>
      <point x="806.0" y="-3.0" type="curve" smooth="yes"/>
      <point x="805.0" y="-3.0" type="line" smooth="yes"/>
      <point x="795.0" y="-3.0"/>
      <point x="794.0" y="3.0"/>
      <point x="797.0" y="16.0" type="curve" smooth="yes"/>
      <point x="881.0" y="383.0" type="line"/>
      <point x="884.0" y="410.0" type="line"/>
      <point x="1028.0" y="1034.0" type="line" smooth="yes"/>
      <point x="1031.0" y="1047.0"/>
      <point x="1035.0" y="1053.0"/>
      <point x="1046.0" y="1053.0" type="curve" smooth="yes"/>
      <point x="1048.0" y="1053.0" type="line" smooth="yes"/>
      <point x="1059.0" y="1053.0"/>
      <point x="1061.0" y="1047.0"/>
      <point x="1058.0" y="1034.0" type="curve" smooth="yes"/>
      <point x="823.0" y="16.0" type="line" smooth="yes"/>
      <point x="820.0" y="3.0"/>
      <point x="815.0" y="-3.0"/>
    </contour>
    <contour>
      <point x="908.0" y="427.0" type="line"/>
      <point x="855.0" y="197.0"/>
      <point x="636.0" y="-35.0"/>
      <point x="402.0" y="-35.0" type="curve" smooth="yes"/>
      <point x="186.0" y="-35.0"/>
      <point x="116.0" y="87.0"/>
      <point x="169.0" y="317.0" type="curve" smooth="yes"/>
      <point x="335.0" y="1034.0" type="line" smooth="yes"/>
      <point x="336.0" y="1037.0"/>
      <point x="343.0" y="1043.0"/>
      <point x="344.0" y="1043.0" type="curve" smooth="yes"/>
      <point x="346.0" y="1043.0" type="line" smooth="yes"/>
      <point x="352.0" y="1043.0"/>
      <point x="353.0" y="1038.0"/>
      <point x="352.0" y="1034.0" type="curve" smooth="yes"/>
      <point x="186.0" y="317.0" type="line" smooth="yes"/>
      <point x="138.0" y="107.0"/>
      <point x="210.0" y="-10.0"/>
      <point x="408.0" y="-10.0" type="curve" smooth="yes"/>
      <point x="637.0" y="-10.0"/>
      <point x="840.0" y="217.0"/>
      <point x="888.0" y="427.0" type="curve"/>
    </contour>
  </outline>
</glyph>
<glyph name="paragraph" format="2">
  <advance height="1920" width="1070"/>
  <unicode hex="00B6"/>
  <outline>
    <contour>
      <point x="1080.0" y="1365.0" type="line"/>
      <point x="686.0" y="-344.0" type="line" smooth="yes"/>
      <point x="683.0" y="-357.0"/>
      <point x="678.0" y="-364.0"/>
      <point x="667.0" y="-364.0" type="curve" smooth="yes"/>
      <point x="665.0" y="-364.0" type="line" smooth="yes"/>
      <point x="654.0" y="-364.0"/>
      <point x="652.0" y="-357.0"/>
      <point x="656.0" y="-344.0" type="curve" smooth="yes"/>
      <point x="1050.0" y="1365.0" type="line"/>
      <point x="800.0" y="1365.0" type="line"/>
      <point x="406.0" y="-344.0" type="line" smooth="yes"/>
      <point x="402.0" y="-357.0"/>
      <point x="398.0" y="-364.0"/>
      <point x="387.0" y="-364.0" type="curve" smooth="yes"/>
      <point x="385.0" y="-364.0" type="line" smooth="yes"/>
      <point x="374.0" y="-364.0"/>
      <point x="373.0" y="-357.0"/>
      <point x="376.0" y="-344.0" type="curve" smooth="yes"/>
      <point x="594.0" y="600.0" type="line"/>
      <point x="514.0" y="600.0" type="line" smooth="yes"/>
      <point x="307.0" y="600.0"/>
      <point x="141.0" y="698.0"/>
      <point x="203.0" y="968.0" type="curve" smooth="yes"/>
      <point x="218.0" y="1032.0" type="line" smooth="yes"/>
      <point x="280.0" y="1302.0"/>
      <point x="491.0" y="1400.0"/>
      <point x="698.0" y="1400.0" type="curve" smooth="yes"/>
      <point x="1222.0" y="1400.0" type="line" smooth="yes"/>
      <point x="1235.0" y="1400.0"/>
      <point x="1241.0" y="1394.0"/>
      <point x="1238.0" y="1383.0" type="curve" smooth="yes"/>
      <point x="1238.0" y="1382.0" type="line" smooth="yes"/>
      <point x="1235.0" y="1371.0"/>
      <point x="1227.0" y="1365.0"/>
      <point x="1214.0" y="1365.0" type="curve" smooth="yes"/>
    </contour>
  </outline>
</glyph>
